<?xml version="1.0" encoding="UTF-8"?>
<svg xmlns="http://www.w3.org/2000/svg"
     xmlns:xlink="http://www.w3.org/1999/xlink"
     xmlns:gadfly="http://www.gadflyjl.org/ns"
     version="1.2"
     width="300mm" height="150mm" viewBox="0 0 300 150"
     stroke="none"
     fill="#000000"
     stroke-width="0.3"
     font-size="3.88"
>
<defs>
  <marker id="arrow" markerWidth="15" markerHeight="7" refX="5" refY="3.5" orient="auto" markerUnits="strokeWidth">
    <path d="M0,0 L15,3.5 L0,7 z" stroke="context-stroke" fill="context-stroke"/>
  </marker>
</defs>
<g stroke="#000000" stroke-opacity="0.000" fill="#FFFFFF" id="img-8e940f66-1">
  <g transform="translate(150,75)">
    <path d="M-150,-75 L 150 -75 150 75 -150 75 z" class="primitive"/>
  </g>
</g>
<g class="plotroot xscalable yscalable" id="img-8e940f66-2">
  <g class="guide xlabels" font-size="5.64" font-family="'PT Sans Caption','Helvetica Neue','Helvetica',sans-serif" fill="#6C606B" id="img-8e940f66-3">
    <g transform="translate(17.04,138.65)">
      <g class="primitive">
        <text text-anchor="middle" dy="0.6em">0</text>
      </g>
    </g>
    <g transform="translate(86.03,138.65)">
      <g class="primitive">
        <text text-anchor="middle" dy="0.6em">10</text>
      </g>
    </g>
    <g transform="translate(155.02,138.65)">
      <g class="primitive">
        <text text-anchor="middle" dy="0.6em">20</text>
      </g>
    </g>
    <g transform="translate(224.01,138.65)">
      <g class="primitive">
        <text text-anchor="middle" dy="0.6em">30</text>
      </g>
    </g>
    <g transform="translate(293,138.65)">
      <g class="primitive">
        <text text-anchor="middle" dy="0.6em">40</text>
      </g>
    </g>
  </g>
  <g clip-path="url(#img-8e940f66-4)">
    <g id="img-8e940f66-5">
      <g pointer-events="visible" fill="#000000" fill-opacity="0.000" stroke="#000000" class="guide background" id="img-8e940f66-6">
        <g transform="translate(155.02,76.27)" id="img-8e940f66-7">
          <path d="M-139.98,-61.39 L 139.98 -61.39 139.98 61.39 -139.98 61.39 z" class="primitive"/>
        </g>
      </g>
      <g class="guide ygridlines xfixed" stroke-dasharray="0.5,0.5" stroke-width="0.2" stroke="#D0D0E0" id="img-8e940f66-8">
        <g transform="translate(155.02,135.65)" id="img-8e940f66-9">
          <path fill="none" d="M-139.98,0 L 139.98 0" class="primitive"/>
        </g>
        <g transform="translate(155.02,111.9)" id="img-8e940f66-10">
          <path fill="none" d="M-139.98,0 L 139.98 0" class="primitive"/>
        </g>
        <g transform="translate(155.02,88.14)" id="img-8e940f66-11">
          <path fill="none" d="M-139.98,0 L 139.98 0" class="primitive"/>
        </g>
        <g transform="translate(155.02,64.39)" id="img-8e940f66-12">
          <path fill="none" d="M-139.98,0 L 139.98 0" class="primitive"/>
        </g>
        <g transform="translate(155.02,40.63)" id="img-8e940f66-13">
          <path fill="none" d="M-139.98,0 L 139.98 0" class="primitive"/>
        </g>
        <g transform="translate(155.02,16.88)" id="img-8e940f66-14">
          <path fill="none" d="M-139.98,0 L 139.98 0" class="primitive"/>
        </g>
      </g>
      <g class="guide xgridlines yfixed" stroke-dasharray="0.5,0.5" stroke-width="0.2" stroke="#D0D0E0" id="img-8e940f66-15">
        <g transform="translate(17.04,76.27)" id="img-8e940f66-16">
          <path fill="none" d="M0,-61.39 L 0 61.39" class="primitive"/>
        </g>
        <g transform="translate(86.03,76.27)" id="img-8e940f66-17">
          <path fill="none" d="M0,-61.39 L 0 61.39" class="primitive"/>
        </g>
        <g transform="translate(155.02,76.27)" id="img-8e940f66-18">
          <path fill="none" d="M0,-61.39 L 0 61.39" class="primitive"/>
        </g>
        <g transform="translate(224.01,76.27)" id="img-8e940f66-19">
          <path fill="none" d="M0,-61.39 L 0 61.39" class="primitive"/>
        </g>
        <g transform="translate(293,76.27)" id="img-8e940f66-20">
          <path fill="none" d="M0,-61.39 L 0 61.39" class="primitive"/>
        </g>
      </g>
      <g class="plotpanel" id="img-8e940f66-21">
        <metadata>
          <boundingbox value="15.04000000000002mm 14.879999999999995mm 279.96000000000004mm 122.77333333333334mm"/>
          <unitbox value="-0.2898970865342803 2.542096991468343 40.579794173068564 -2.5841939829366862"/>
        </metadata>
        <g shape-rendering="crispEdges" stroke-width="0.3" id="img-8e940f66-22">
          <g stroke="#000000" stroke-opacity="0.000" class="geometry" id="img-8e940f66-23">
            <g transform="translate(32.55,112.94)" id="img-8e940f66-24" fill="#00BFFF">
              <path d="M-5.19,-22.72 L 5.19 -22.72 5.19 22.72 -5.19 22.72 z" class="primitive"/>
            </g>
            <g transform="translate(53.25,111.49)" id="img-8e940f66-25" fill="#00BFFF">
              <path d="M-5.19,-24.16 L 5.19 -24.16 5.19 24.16 -5.19 24.16 z" class="primitive"/>
            </g>
            <g transform="translate(73.94,112.28)" id="img-8e940f66-26" fill="#00BFFF">
              <path d="M-5.19,-23.38 L 5.19 -23.38 5.19 23.38 -5.19 23.38 z" class="primitive"/>
            </g>
            <g transform="translate(94.64,109.29)" id="img-8e940f66-27" fill="#00BFFF">
              <path d="M-5.19,-26.37 L 5.19 -26.37 5.19 26.37 -5.19 26.37 z" class="primitive"/>
            </g>
            <g transform="translate(115.34,106.13)" id="img-8e940f66-28" fill="#00BFFF">
              <path d="M-5.19,-29.52 L 5.19 -29.52 5.19 29.52 -5.19 29.52 z" class="primitive"/>
            </g>
            <g transform="translate(136.04,107.92)" id="img-8e940f66-29" fill="#00BFFF">
              <path d="M-5.19,-27.73 L 5.19 -27.73 5.19 27.73 -5.19 27.73 z" class="primitive"/>
            </g>
            <g transform="translate(156.73,101.76)" id="img-8e940f66-30" fill="#00BFFF">
              <path d="M-5.19,-33.9 L 5.19 -33.9 5.19 33.9 -5.19 33.9 z" class="primitive"/>
            </g>
            <g transform="translate(177.43,97.97)" id="img-8e940f66-31" fill="#00BFFF">
              <path d="M-5.19,-37.68 L 5.19 -37.68 5.19 37.68 -5.19 37.68 z" class="primitive"/>
            </g>
            <g transform="translate(198.13,94.18)" id="img-8e940f66-32" fill="#00BFFF">
              <path d="M-5.19,-41.47 L 5.19 -41.47 5.19 41.47 -5.19 41.47 z" class="primitive"/>
            </g>
            <g transform="translate(218.82,90.49)" id="img-8e940f66-33" fill="#00BFFF">
              <path d="M-5.19,-45.17 L 5.19 -45.17 5.19 45.17 -5.19 45.17 z" class="primitive"/>
            </g>
            <g transform="translate(239.52,87.21)" id="img-8e940f66-34" fill="#00BFFF">
              <path d="M-5.19,-48.44 L 5.19 -48.44 5.19 48.44 -5.19 48.44 z" class="primitive"/>
            </g>
            <g transform="translate(260.22,80.86)" id="img-8e940f66-35" fill="#00BFFF">
              <path d="M-5.19,-54.8 L 5.19 -54.8 5.19 54.8 -5.19 54.8 z" class="primitive"/>
            </g>
            <g transform="translate(42.9,109.45)" id="img-8e940f66-36" fill="#D4CA3A">
              <path d="M-5.19,-26.21 L 5.19 -26.21 5.19 26.21 -5.19 26.21 z" class="primitive"/>
            </g>
            <g transform="translate(63.6,110.41)" id="img-8e940f66-37" fill="#D4CA3A">
              <path d="M-5.19,-25.25 L 5.19 -25.25 5.19 25.25 -5.19 25.25 z" class="primitive"/>
            </g>
            <g transform="translate(84.29,111.59)" id="img-8e940f66-38" fill="#D4CA3A">
              <path d="M-5.19,-24.07 L 5.19 -24.07 5.19 24.07 -5.19 24.07 z" class="primitive"/>
            </g>
            <g transform="translate(104.99,112.09)" id="img-8e940f66-39" fill="#D4CA3A">
              <path d="M-5.19,-23.56 L 5.19 -23.56 5.19 23.56 -5.19 23.56 z" class="primitive"/>
            </g>
            <g transform="translate(125.69,108.2)" id="img-8e940f66-40" fill="#D4CA3A">
              <path d="M-5.19,-27.46 L 5.19 -27.46 5.19 27.46 -5.19 27.46 z" class="primitive"/>
            </g>
            <g transform="translate(146.38,104.3)" id="img-8e940f66-41" fill="#D4CA3A">
              <path d="M-5.19,-31.35 L 5.19 -31.35 5.19 31.35 -5.19 31.35 z" class="primitive"/>
            </g>
            <g transform="translate(167.08,103.67)" id="img-8e940f66-42" fill="#D4CA3A">
              <path d="M-5.19,-31.98 L 5.19 -31.98 5.19 31.98 -5.19 31.98 z" class="primitive"/>
            </g>
            <g transform="translate(187.78,97.84)" id="img-8e940f66-43" fill="#D4CA3A">
              <path d="M-5.19,-37.82 L 5.19 -37.82 5.19 37.82 -5.19 37.82 z" class="primitive"/>
            </g>
            <g transform="translate(208.47,96.04)" id="img-8e940f66-44" fill="#D4CA3A">
              <path d="M-5.19,-39.62 L 5.19 -39.62 5.19 39.62 -5.19 39.62 z" class="primitive"/>
            </g>
            <g transform="translate(229.17,91.17)" id="img-8e940f66-45" fill="#D4CA3A">
              <path d="M-5.19,-44.49 L 5.19 -44.49 5.19 44.49 -5.19 44.49 z" class="primitive"/>
            </g>
            <g transform="translate(249.87,88.37)" id="img-8e940f66-46" fill="#D4CA3A">
              <path d="M-5.19,-47.28 L 5.19 -47.28 5.19 47.28 -5.19 47.28 z" class="primitive"/>
            </g>
            <g transform="translate(270.57,83.81)" id="img-8e940f66-47" fill="#D4CA3A">
              <path d="M-5.19,-51.84 L 5.19 -51.84 5.19 51.84 -5.19 51.84 z" class="primitive"/>
            </g>
          </g>
        </g>
      </g>
    </g>
  </g>
  <g class="guide ylabels" font-size="5.64" font-family="'PT Sans Caption','Helvetica Neue','Helvetica',sans-serif" fill="#6C606B" id="img-8e940f66-48">
    <g transform="translate(14.04,135.65)" id="img-8e940f66-49">
      <g class="primitive">
        <text text-anchor="end" dy="0.35em">0.0</text>
      </g>
    </g>
    <g transform="translate(14.04,111.9)" id="img-8e940f66-50">
      <g class="primitive">
        <text text-anchor="end" dy="0.35em">0.5</text>
      </g>
    </g>
    <g transform="translate(14.04,88.14)" id="img-8e940f66-51">
      <g class="primitive">
        <text text-anchor="end" dy="0.35em">1.0</text>
      </g>
    </g>
    <g transform="translate(14.04,64.39)" id="img-8e940f66-52">
      <g class="primitive">
        <text text-anchor="end" dy="0.35em">1.5</text>
      </g>
    </g>
    <g transform="translate(14.04,40.63)" id="img-8e940f66-53">
      <g class="primitive">
        <text text-anchor="end" dy="0.35em">2.0</text>
      </g>
    </g>
    <g transform="translate(14.04,16.88)" id="img-8e940f66-54">
      <g class="primitive">
        <text text-anchor="end" dy="0.35em">2.5</text>
      </g>
    </g>
  </g>
  <g font-size="8.47" font-family="'PT Sans','Helvetica Neue','Helvetica',sans-serif" fill="#564A55" stroke="#000000" stroke-opacity="0.000" id="img-8e940f66-55">
    <g transform="translate(155.02,5)" id="img-8e940f66-56">
      <g class="primitive">
        <text text-anchor="middle" dy="0.6em">MSE</text>
      </g>
    </g>
  </g>
</g>
<defs>
  <clipPath id="img-8e940f66-4">
    <path d="M15.04,14.88 L 295 14.88 295 137.65 15.04 137.65" />
  </clipPath>
</defs>
</svg>
