<?xml version="1.0" encoding="UTF-8"?>
<svg xmlns="http://www.w3.org/2000/svg"
     xmlns:xlink="http://www.w3.org/1999/xlink"
     xmlns:gadfly="http://www.gadflyjl.org/ns"
     version="1.2"
     width="141.42mm" height="100mm" viewBox="0 0 141.42 100"
     stroke="none"
     fill="#000000"
     stroke-width="0.3"
     font-size="3.88"
>
<defs>
  <marker id="arrow" markerWidth="15" markerHeight="7" refX="5" refY="3.5" orient="auto" markerUnits="strokeWidth">
    <path d="M0,0 L15,3.5 L0,7 z" stroke="context-stroke" fill="context-stroke"/>
  </marker>
</defs>
<g class="plotroot xscalable yscalable" id="img-20586e24-1">
  <g font-size="3.88" font-family="'PT Sans','Helvetica Neue','Helvetica',sans-serif" fill="#564A55" stroke="#000000" stroke-opacity="0.000" id="img-20586e24-2">
    <g transform="translate(70.89,88.39)">
      <g class="primitive">
        <text text-anchor="middle" dy="0.6em">dz</text>
      </g>
    </g>
  </g>
  <g class="guide xlabels" font-size="2.82" font-family="'PT Sans Caption','Helvetica Neue','Helvetica',sans-serif" fill="#6C606B" id="img-20586e24-3">
    <g transform="translate(20.63,81.72)">
      <g class="primitive">
        <text text-anchor="middle" dy="0.6em">0</text>
      </g>
    </g>
    <g transform="translate(45.76,81.72)">
      <g class="primitive">
        <text text-anchor="middle" dy="0.6em">10</text>
      </g>
    </g>
    <g transform="translate(70.89,81.72)">
      <g class="primitive">
        <text text-anchor="middle" dy="0.6em">20</text>
      </g>
    </g>
    <g transform="translate(96.01,81.72)">
      <g class="primitive">
        <text text-anchor="middle" dy="0.6em">30</text>
      </g>
    </g>
    <g transform="translate(121.14,81.72)">
      <g class="primitive">
        <text text-anchor="middle" dy="0.6em">40</text>
      </g>
    </g>
  </g>
  <g class="guide colorkey" id="img-20586e24-4">
    <g fill="#4C404B" font-size="2.82" font-family="'PT Sans','Helvetica Neue','Helvetica',sans-serif" id="img-20586e24-5">
      <g transform="translate(126.95,42.86)" id="img-20586e24-6" class="color_SBias">
        <g class="primitive">
          <text dy="0.35em">SBias</text>
        </g>
      </g>
      <g transform="translate(126.95,46.48)" id="img-20586e24-7" class="color_SBias2">
        <g class="primitive">
          <text dy="0.35em">SBias2</text>
        </g>
      </g>
    </g>
    <g stroke="#000000" stroke-opacity="0.000" id="img-20586e24-8">
      <g transform="translate(125.05,42.86)" id="img-20586e24-9" fill="#00BFFF" class="color_SBias">
        <path d="M-0.91,-0.91 L 0.91 -0.91 0.91 0.91 -0.91 0.91 z" class="primitive"/>
      </g>
      <g transform="translate(125.05,46.48)" id="img-20586e24-10" fill="#D4CA3A" class="color_SBias2">
        <path d="M-0.91,-0.91 L 0.91 -0.91 0.91 0.91 -0.91 0.91 z" class="primitive"/>
      </g>
    </g>
    <g fill="#362A35" font-size="3.88" font-family="'PT Sans','Helvetica Neue','Helvetica',sans-serif" stroke="#000000" stroke-opacity="0.000" id="img-20586e24-11">
      <g transform="translate(124.14,39.04)" id="img-20586e24-12">
        <g class="primitive">
          <text dy="-0em">variable</text>
        </g>
      </g>
    </g>
  </g>
  <g clip-path="url(#img-20586e24-13)">
    <g id="img-20586e24-14">
      <g pointer-events="visible" fill="#000000" fill-opacity="0.000" stroke="#000000" stroke-opacity="0.000" class="guide background" id="img-20586e24-15">
        <g transform="translate(70.89,42.86)" id="img-20586e24-16">
          <path d="M-52.25,-37.86 L 52.25 -37.86 52.25 37.86 -52.25 37.86 z" class="primitive"/>
        </g>
      </g>
      <g class="guide ygridlines xfixed" stroke-dasharray="0.5,0.5" stroke-width="0.2" stroke="#D0D0E0" id="img-20586e24-17">
        <g transform="translate(70.89,78.71)" id="img-20586e24-18">
          <path fill="none" d="M-52.25,0 L 52.25 0" class="primitive"/>
        </g>
        <g transform="translate(70.89,54.81)" id="img-20586e24-19">
          <path fill="none" d="M-52.25,0 L 52.25 0" class="primitive"/>
        </g>
        <g transform="translate(70.89,30.9)" id="img-20586e24-20">
          <path fill="none" d="M-52.25,0 L 52.25 0" class="primitive"/>
        </g>
        <g transform="translate(70.89,7)" id="img-20586e24-21">
          <path fill="none" d="M-52.25,0 L 52.25 0" class="primitive"/>
        </g>
      </g>
      <g class="guide xgridlines yfixed" stroke-dasharray="0.5,0.5" stroke-width="0.2" stroke="#D0D0E0" id="img-20586e24-22">
        <g transform="translate(20.63,42.86)" id="img-20586e24-23">
          <path fill="none" d="M0,-37.86 L 0 37.86" class="primitive"/>
        </g>
        <g transform="translate(45.76,42.86)" id="img-20586e24-24">
          <path fill="none" d="M0,-37.86 L 0 37.86" class="primitive"/>
        </g>
        <g transform="translate(70.89,42.86)" id="img-20586e24-25">
          <path fill="none" d="M0,-37.86 L 0 37.86" class="primitive"/>
        </g>
        <g transform="translate(96.01,42.86)" id="img-20586e24-26">
          <path fill="none" d="M0,-37.86 L 0 37.86" class="primitive"/>
        </g>
        <g transform="translate(121.14,42.86)" id="img-20586e24-27">
          <path fill="none" d="M0,-37.86 L 0 37.86" class="primitive"/>
        </g>
      </g>
      <g class="plotpanel" id="img-20586e24-28">
        <metadata>
          <boundingbox value="18.63166666666666mm 5.0mm 104.50718957064284mm 75.715mm"/>
          <unitbox value="-0.7959629588863484 0.30836645053336126 41.5919259177727 -0.3167329010667225"/>
        </metadata>
        <g shape-rendering="crispEdges" stroke-width="0.3" id="img-20586e24-29">
          <g stroke="#000000" stroke-opacity="0.000" class="geometry" id="img-20586e24-30">
            <g transform="translate(26.27,78.71)" id="img-20586e24-31" fill="#D4CA3A">
              <path d="M-1.9,-0.01 L 1.9 -0.01 1.9 0.01 -1.9 0.01 z" class="primitive"/>
            </g>
            <g transform="translate(33.81,78.71)" id="img-20586e24-32" fill="#D4CA3A">
              <path d="M-1.9,-0.01 L 1.9 -0.01 1.9 0.01 -1.9 0.01 z" class="primitive"/>
            </g>
            <g transform="translate(41.35,77.52)" id="img-20586e24-33" fill="#D4CA3A">
              <path d="M-1.9,-1.19 L 1.9 -1.19 1.9 1.19 -1.9 1.19 z" class="primitive"/>
            </g>
            <g transform="translate(48.89,77.99)" id="img-20586e24-34" fill="#D4CA3A">
              <path d="M-1.9,-0.72 L 1.9 -0.72 1.9 0.72 -1.9 0.72 z" class="primitive"/>
            </g>
            <g transform="translate(56.42,73.2)" id="img-20586e24-35" fill="#D4CA3A">
              <path d="M-1.9,-5.52 L 1.9 -5.52 1.9 5.52 -1.9 5.52 z" class="primitive"/>
            </g>
            <g transform="translate(63.96,70.22)" id="img-20586e24-36" fill="#D4CA3A">
              <path d="M-1.9,-8.49 L 1.9 -8.49 1.9 8.49 -1.9 8.49 z" class="primitive"/>
            </g>
            <g transform="translate(71.5,63.91)" id="img-20586e24-37" fill="#D4CA3A">
              <path d="M-1.9,-14.8 L 1.9 -14.8 1.9 14.8 -1.9 14.8 z" class="primitive"/>
            </g>
            <g transform="translate(79.04,68.57)" id="img-20586e24-38" fill="#D4CA3A">
              <path d="M-1.9,-10.15 L 1.9 -10.15 1.9 10.15 -1.9 10.15 z" class="primitive"/>
            </g>
            <g transform="translate(86.58,60.6)" id="img-20586e24-39" fill="#D4CA3A">
              <path d="M-1.9,-18.11 L 1.9 -18.11 1.9 18.11 -1.9 18.11 z" class="primitive"/>
            </g>
            <g transform="translate(94.12,59.32)" id="img-20586e24-40" fill="#D4CA3A">
              <path d="M-1.9,-19.39 L 1.9 -19.39 1.9 19.39 -1.9 19.39 z" class="primitive"/>
            </g>
            <g transform="translate(101.65,52.06)" id="img-20586e24-41" fill="#D4CA3A">
              <path d="M-1.9,-26.66 L 1.9 -26.66 1.9 26.66 -1.9 26.66 z" class="primitive"/>
            </g>
            <g transform="translate(109.19,47.09)" id="img-20586e24-42" fill="#D4CA3A">
              <path d="M-1.9,-31.62 L 1.9 -31.62 1.9 31.62 -1.9 31.62 z" class="primitive"/>
            </g>
            <g transform="translate(30.04,77.41)" id="img-20586e24-43" fill="#00BFFF">
              <path d="M-1.9,-1.31 L 1.9 -1.31 1.9 1.31 -1.9 1.31 z" class="primitive"/>
            </g>
            <g transform="translate(37.58,78.38)" id="img-20586e24-44" fill="#00BFFF">
              <path d="M-1.9,-0.34 L 1.9 -0.34 1.9 0.34 -1.9 0.34 z" class="primitive"/>
            </g>
            <g transform="translate(45.12,76.57)" id="img-20586e24-45" fill="#00BFFF">
              <path d="M-1.9,-2.15 L 1.9 -2.15 1.9 2.15 -1.9 2.15 z" class="primitive"/>
            </g>
            <g transform="translate(52.66,76.1)" id="img-20586e24-46" fill="#00BFFF">
              <path d="M-1.9,-2.61 L 1.9 -2.61 1.9 2.61 -1.9 2.61 z" class="primitive"/>
            </g>
            <g transform="translate(60.19,74.87)" id="img-20586e24-47" fill="#00BFFF">
              <path d="M-1.9,-3.84 L 1.9 -3.84 1.9 3.84 -1.9 3.84 z" class="primitive"/>
            </g>
            <g transform="translate(67.73,75.56)" id="img-20586e24-48" fill="#00BFFF">
              <path d="M-1.9,-3.15 L 1.9 -3.15 1.9 3.15 -1.9 3.15 z" class="primitive"/>
            </g>
            <g transform="translate(75.27,69.11)" id="img-20586e24-49" fill="#00BFFF">
              <path d="M-1.9,-9.61 L 1.9 -9.61 1.9 9.61 -1.9 9.61 z" class="primitive"/>
            </g>
            <g transform="translate(82.81,64.33)" id="img-20586e24-50" fill="#00BFFF">
              <path d="M-1.9,-14.39 L 1.9 -14.39 1.9 14.39 -1.9 14.39 z" class="primitive"/>
            </g>
            <g transform="translate(90.35,64.19)" id="img-20586e24-51" fill="#00BFFF">
              <path d="M-1.9,-14.52 L 1.9 -14.52 1.9 14.52 -1.9 14.52 z" class="primitive"/>
            </g>
            <g transform="translate(97.88,63.44)" id="img-20586e24-52" fill="#00BFFF">
              <path d="M-1.9,-15.27 L 1.9 -15.27 1.9 15.27 -1.9 15.27 z" class="primitive"/>
            </g>
            <g transform="translate(105.42,46.08)" id="img-20586e24-53" fill="#00BFFF">
              <path d="M-1.9,-32.64 L 1.9 -32.64 1.9 32.64 -1.9 32.64 z" class="primitive"/>
            </g>
            <g transform="translate(112.96,46.61)" id="img-20586e24-54" fill="#00BFFF">
              <path d="M-1.9,-32.11 L 1.9 -32.11 1.9 32.11 -1.9 32.11 z" class="primitive"/>
            </g>
          </g>
        </g>
      </g>
    </g>
  </g>
  <g class="guide ylabels" font-size="2.82" font-family="'PT Sans Caption','Helvetica Neue','Helvetica',sans-serif" fill="#6C606B" id="img-20586e24-55">
    <g transform="translate(17.63,78.71)" id="img-20586e24-56">
      <g class="primitive">
        <text text-anchor="end" dy="0.35em">0.0</text>
      </g>
    </g>
    <g transform="translate(17.63,54.81)" id="img-20586e24-57">
      <g class="primitive">
        <text text-anchor="end" dy="0.35em">0.1</text>
      </g>
    </g>
    <g transform="translate(17.63,30.9)" id="img-20586e24-58">
      <g class="primitive">
        <text text-anchor="end" dy="0.35em">0.2</text>
      </g>
    </g>
    <g transform="translate(17.63,7)" id="img-20586e24-59">
      <g class="primitive">
        <text text-anchor="end" dy="0.35em">0.3</text>
      </g>
    </g>
  </g>
  <g font-size="3.88" font-family="'PT Sans','Helvetica Neue','Helvetica',sans-serif" fill="#564A55" stroke="#000000" stroke-opacity="0.000" id="img-20586e24-60">
    <g transform="translate(8.81,40.86)" id="img-20586e24-61">
      <g class="primitive">
        <text text-anchor="middle" dy="0.35em" transform="rotate(-90,0, 2)">value</text>
      </g>
    </g>
  </g>
</g>
<defs>
  <clipPath id="img-20586e24-13">
    <path d="M18.63,5 L 123.14 5 123.14 80.72 18.63 80.72" />
  </clipPath>
</defs>
</svg>
