<?xml version="1.0" encoding="UTF-8"?>
<svg xmlns="http://www.w3.org/2000/svg"
     xmlns:xlink="http://www.w3.org/1999/xlink"
     xmlns:gadfly="http://www.gadflyjl.org/ns"
     version="1.2"
     width="141.42mm" height="100mm" viewBox="0 0 141.42 100"
     stroke="none"
     fill="#000000"
     stroke-width="0.3"
     font-size="3.88"
>
<defs>
  <marker id="arrow" markerWidth="15" markerHeight="7" refX="5" refY="3.5" orient="auto" markerUnits="strokeWidth">
    <path d="M0,0 L15,3.5 L0,7 z" stroke="context-stroke" fill="context-stroke"/>
  </marker>
</defs>
<g class="plotroot xscalable yscalable" id="img-8b0329e1-1">
  <g font-size="3.88" font-family="'PT Sans','Helvetica Neue','Helvetica',sans-serif" fill="#564A55" stroke="#000000" stroke-opacity="0.000" id="img-8b0329e1-2">
    <g transform="translate(70.89,88.39)">
      <g class="primitive">
        <text text-anchor="middle" dy="0.6em">dz</text>
      </g>
    </g>
  </g>
  <g class="guide xlabels" font-size="2.82" font-family="'PT Sans Caption','Helvetica Neue','Helvetica',sans-serif" fill="#6C606B" id="img-8b0329e1-3">
    <g transform="translate(20.63,81.72)">
      <g class="primitive">
        <text text-anchor="middle" dy="0.6em">0</text>
      </g>
    </g>
    <g transform="translate(45.76,81.72)">
      <g class="primitive">
        <text text-anchor="middle" dy="0.6em">10</text>
      </g>
    </g>
    <g transform="translate(70.89,81.72)">
      <g class="primitive">
        <text text-anchor="middle" dy="0.6em">20</text>
      </g>
    </g>
    <g transform="translate(96.01,81.72)">
      <g class="primitive">
        <text text-anchor="middle" dy="0.6em">30</text>
      </g>
    </g>
    <g transform="translate(121.14,81.72)">
      <g class="primitive">
        <text text-anchor="middle" dy="0.6em">40</text>
      </g>
    </g>
  </g>
  <g class="guide colorkey" id="img-8b0329e1-4">
    <g fill="#4C404B" font-size="2.82" font-family="'PT Sans','Helvetica Neue','Helvetica',sans-serif" id="img-8b0329e1-5">
      <g transform="translate(126.95,42.86)" id="img-8b0329e1-6" class="color_Var">
        <g class="primitive">
          <text dy="0.35em">Var</text>
        </g>
      </g>
      <g transform="translate(126.95,46.48)" id="img-8b0329e1-7" class="color_Var2">
        <g class="primitive">
          <text dy="0.35em">Var2</text>
        </g>
      </g>
    </g>
    <g stroke="#000000" stroke-opacity="0.000" id="img-8b0329e1-8">
      <g transform="translate(125.05,42.86)" id="img-8b0329e1-9" fill="#00BFFF" class="color_Var">
        <path d="M-0.91,-0.91 L 0.91 -0.91 0.91 0.91 -0.91 0.91 z" class="primitive"/>
      </g>
      <g transform="translate(125.05,46.48)" id="img-8b0329e1-10" fill="#D4CA3A" class="color_Var2">
        <path d="M-0.91,-0.91 L 0.91 -0.91 0.91 0.91 -0.91 0.91 z" class="primitive"/>
      </g>
    </g>
    <g fill="#362A35" font-size="3.88" font-family="'PT Sans','Helvetica Neue','Helvetica',sans-serif" stroke="#000000" stroke-opacity="0.000" id="img-8b0329e1-11">
      <g transform="translate(124.14,39.04)" id="img-8b0329e1-12">
        <g class="primitive">
          <text dy="-0em">variable</text>
        </g>
      </g>
    </g>
  </g>
  <g clip-path="url(#img-8b0329e1-13)">
    <g id="img-8b0329e1-14">
      <g pointer-events="visible" fill="#000000" fill-opacity="0.000" stroke="#000000" stroke-opacity="0.000" class="guide background" id="img-8b0329e1-15">
        <g transform="translate(70.89,42.86)" id="img-8b0329e1-16">
          <path d="M-52.25,-37.86 L 52.25 -37.86 52.25 37.86 -52.25 37.86 z" class="primitive"/>
        </g>
      </g>
      <g class="guide ygridlines xfixed" stroke-dasharray="0.5,0.5" stroke-width="0.2" stroke="#D0D0E0" id="img-8b0329e1-17">
        <g transform="translate(70.89,78.71)" id="img-8b0329e1-18">
          <path fill="none" d="M-52.25,0 L 52.25 0" class="primitive"/>
        </g>
        <g transform="translate(70.89,54.81)" id="img-8b0329e1-19">
          <path fill="none" d="M-52.25,0 L 52.25 0" class="primitive"/>
        </g>
        <g transform="translate(70.89,30.9)" id="img-8b0329e1-20">
          <path fill="none" d="M-52.25,0 L 52.25 0" class="primitive"/>
        </g>
        <g transform="translate(70.89,7)" id="img-8b0329e1-21">
          <path fill="none" d="M-52.25,0 L 52.25 0" class="primitive"/>
        </g>
      </g>
      <g class="guide xgridlines yfixed" stroke-dasharray="0.5,0.5" stroke-width="0.2" stroke="#D0D0E0" id="img-8b0329e1-22">
        <g transform="translate(20.63,42.86)" id="img-8b0329e1-23">
          <path fill="none" d="M0,-37.86 L 0 37.86" class="primitive"/>
        </g>
        <g transform="translate(45.76,42.86)" id="img-8b0329e1-24">
          <path fill="none" d="M0,-37.86 L 0 37.86" class="primitive"/>
        </g>
        <g transform="translate(70.89,42.86)" id="img-8b0329e1-25">
          <path fill="none" d="M0,-37.86 L 0 37.86" class="primitive"/>
        </g>
        <g transform="translate(96.01,42.86)" id="img-8b0329e1-26">
          <path fill="none" d="M0,-37.86 L 0 37.86" class="primitive"/>
        </g>
        <g transform="translate(121.14,42.86)" id="img-8b0329e1-27">
          <path fill="none" d="M0,-37.86 L 0 37.86" class="primitive"/>
        </g>
      </g>
      <g class="plotpanel" id="img-8b0329e1-28">
        <metadata>
          <boundingbox value="18.63166666666666mm 5.0mm 104.50718957064284mm 75.715mm"/>
          <unitbox value="-0.7959629588863484 1.541832252666806 41.5919259177727 -1.5836645053336125"/>
        </metadata>
        <g shape-rendering="crispEdges" stroke-width="0.3" id="img-8b0329e1-29">
          <g stroke="#000000" stroke-opacity="0.000" class="geometry" id="img-8b0329e1-30">
            <g transform="translate(26.27,55.02)" id="img-8b0329e1-31" fill="#D4CA3A">
              <path d="M-1.9,-23.7 L 1.9 -23.7 1.9 23.7 -1.9 23.7 z" class="primitive"/>
            </g>
            <g transform="translate(33.81,54.11)" id="img-8b0329e1-32" fill="#D4CA3A">
              <path d="M-1.9,-24.6 L 1.9 -24.6 1.9 24.6 -1.9 24.6 z" class="primitive"/>
            </g>
            <g transform="translate(41.35,56.17)" id="img-8b0329e1-33" fill="#D4CA3A">
              <path d="M-1.9,-22.54 L 1.9 -22.54 1.9 22.54 -1.9 22.54 z" class="primitive"/>
            </g>
            <g transform="translate(48.89,54.67)" id="img-8b0329e1-34" fill="#D4CA3A">
              <path d="M-1.9,-24.05 L 1.9 -24.05 1.9 24.05 -1.9 24.05 z" class="primitive"/>
            </g>
            <g transform="translate(56.42,57.08)" id="img-8b0329e1-35" fill="#D4CA3A">
              <path d="M-1.9,-21.64 L 1.9 -21.64 1.9 21.64 -1.9 21.64 z" class="primitive"/>
            </g>
            <g transform="translate(63.96,53.72)" id="img-8b0329e1-36" fill="#D4CA3A">
              <path d="M-1.9,-24.99 L 1.9 -24.99 1.9 24.99 -1.9 24.99 z" class="primitive"/>
            </g>
            <g transform="translate(71.5,55.5)" id="img-8b0329e1-37" fill="#D4CA3A">
              <path d="M-1.9,-23.22 L 1.9 -23.22 1.9 23.22 -1.9 23.22 z" class="primitive"/>
            </g>
            <g transform="translate(79.04,54.7)" id="img-8b0329e1-38" fill="#D4CA3A">
              <path d="M-1.9,-24.02 L 1.9 -24.02 1.9 24.02 -1.9 24.02 z" class="primitive"/>
            </g>
            <g transform="translate(86.58,56.13)" id="img-8b0329e1-39" fill="#D4CA3A">
              <path d="M-1.9,-22.58 L 1.9 -22.58 1.9 22.58 -1.9 22.58 z" class="primitive"/>
            </g>
            <g transform="translate(94.12,56.42)" id="img-8b0329e1-40" fill="#D4CA3A">
              <path d="M-1.9,-22.3 L 1.9 -22.3 1.9 22.3 -1.9 22.3 z" class="primitive"/>
            </g>
            <g transform="translate(101.65,55.23)" id="img-8b0329e1-41" fill="#D4CA3A">
              <path d="M-1.9,-23.48 L 1.9 -23.48 1.9 23.48 -1.9 23.48 z" class="primitive"/>
            </g>
            <g transform="translate(109.19,56.02)" id="img-8b0329e1-42" fill="#D4CA3A">
              <path d="M-1.9,-22.7 L 1.9 -22.7 1.9 22.7 -1.9 22.7 z" class="primitive"/>
            </g>
            <g transform="translate(30.04,54.56)" id="img-8b0329e1-43" fill="#00BFFF">
              <path d="M-1.9,-24.15 L 1.9 -24.15 1.9 24.15 -1.9 24.15 z" class="primitive"/>
            </g>
            <g transform="translate(37.58,56.8)" id="img-8b0329e1-44" fill="#00BFFF">
              <path d="M-1.9,-21.92 L 1.9 -21.92 1.9 21.92 -1.9 21.92 z" class="primitive"/>
            </g>
            <g transform="translate(45.12,55.24)" id="img-8b0329e1-45" fill="#00BFFF">
              <path d="M-1.9,-23.47 L 1.9 -23.47 1.9 23.47 -1.9 23.47 z" class="primitive"/>
            </g>
            <g transform="translate(52.66,56.13)" id="img-8b0329e1-46" fill="#00BFFF">
              <path d="M-1.9,-22.58 L 1.9 -22.58 1.9 22.58 -1.9 22.58 z" class="primitive"/>
            </g>
            <g transform="translate(60.19,56.93)" id="img-8b0329e1-47" fill="#00BFFF">
              <path d="M-1.9,-21.78 L 1.9 -21.78 1.9 21.78 -1.9 21.78 z" class="primitive"/>
            </g>
            <g transform="translate(67.73,55.63)" id="img-8b0329e1-48" fill="#00BFFF">
              <path d="M-1.9,-23.08 L 1.9 -23.08 1.9 23.08 -1.9 23.08 z" class="primitive"/>
            </g>
            <g transform="translate(75.27,55.29)" id="img-8b0329e1-49" fill="#00BFFF">
              <path d="M-1.9,-23.43 L 1.9 -23.43 1.9 23.43 -1.9 23.43 z" class="primitive"/>
            </g>
            <g transform="translate(82.81,55.29)" id="img-8b0329e1-50" fill="#00BFFF">
              <path d="M-1.9,-23.42 L 1.9 -23.42 1.9 23.42 -1.9 23.42 z" class="primitive"/>
            </g>
            <g transform="translate(90.35,55.25)" id="img-8b0329e1-51" fill="#00BFFF">
              <path d="M-1.9,-23.47 L 1.9 -23.47 1.9 23.47 -1.9 23.47 z" class="primitive"/>
            </g>
            <g transform="translate(97.88,56.35)" id="img-8b0329e1-52" fill="#00BFFF">
              <path d="M-1.9,-22.37 L 1.9 -22.37 1.9 22.37 -1.9 22.37 z" class="primitive"/>
            </g>
            <g transform="translate(105.42,55.76)" id="img-8b0329e1-53" fill="#00BFFF">
              <path d="M-1.9,-22.96 L 1.9 -22.96 1.9 22.96 -1.9 22.96 z" class="primitive"/>
            </g>
            <g transform="translate(112.96,55.73)" id="img-8b0329e1-54" fill="#00BFFF">
              <path d="M-1.9,-22.98 L 1.9 -22.98 1.9 22.98 -1.9 22.98 z" class="primitive"/>
            </g>
          </g>
        </g>
      </g>
    </g>
  </g>
  <g class="guide ylabels" font-size="2.82" font-family="'PT Sans Caption','Helvetica Neue','Helvetica',sans-serif" fill="#6C606B" id="img-8b0329e1-55">
    <g transform="translate(17.63,78.71)" id="img-8b0329e1-56">
      <g class="primitive">
        <text text-anchor="end" dy="0.35em">0.0</text>
      </g>
    </g>
    <g transform="translate(17.63,54.81)" id="img-8b0329e1-57">
      <g class="primitive">
        <text text-anchor="end" dy="0.35em">0.5</text>
      </g>
    </g>
    <g transform="translate(17.63,30.9)" id="img-8b0329e1-58">
      <g class="primitive">
        <text text-anchor="end" dy="0.35em">1.0</text>
      </g>
    </g>
    <g transform="translate(17.63,7)" id="img-8b0329e1-59">
      <g class="primitive">
        <text text-anchor="end" dy="0.35em">1.5</text>
      </g>
    </g>
  </g>
  <g font-size="3.88" font-family="'PT Sans','Helvetica Neue','Helvetica',sans-serif" fill="#564A55" stroke="#000000" stroke-opacity="0.000" id="img-8b0329e1-60">
    <g transform="translate(8.81,40.86)" id="img-8b0329e1-61">
      <g class="primitive">
        <text text-anchor="middle" dy="0.35em" transform="rotate(-90,0, 2)">value</text>
      </g>
    </g>
  </g>
</g>
<defs>
  <clipPath id="img-8b0329e1-13">
    <path d="M18.63,5 L 123.14 5 123.14 80.72 18.63 80.72" />
  </clipPath>
</defs>
</svg>
