<?xml version="1.0" encoding="UTF-8"?>
<svg xmlns="http://www.w3.org/2000/svg"
     xmlns:xlink="http://www.w3.org/1999/xlink"
     xmlns:gadfly="http://www.gadflyjl.org/ns"
     version="1.2"
     width="300mm" height="150mm" viewBox="0 0 300 150"
     stroke="none"
     fill="#000000"
     stroke-width="0.3"
     font-size="3.88"
>
<defs>
  <marker id="arrow" markerWidth="15" markerHeight="7" refX="5" refY="3.5" orient="auto" markerUnits="strokeWidth">
    <path d="M0,0 L15,3.5 L0,7 z" stroke="context-stroke" fill="context-stroke"/>
  </marker>
</defs>
<g stroke="#000000" stroke-opacity="0.000" fill="#FFFFFF" id="img-45c3dcd2-1">
  <g transform="translate(150,75)">
    <path d="M-150,-75 L 150 -75 150 75 -150 75 z" class="primitive"/>
  </g>
</g>
<g class="plotroot xscalable yscalable" id="img-45c3dcd2-2">
  <g class="guide xlabels" font-size="5.64" font-family="'PT Sans Caption','Helvetica Neue','Helvetica',sans-serif" fill="#6C606B" id="img-45c3dcd2-3">
    <g transform="translate(17.04,138.65)">
      <g class="primitive">
        <text text-anchor="middle" dy="0.6em">0</text>
      </g>
    </g>
    <g transform="translate(86.03,138.65)">
      <g class="primitive">
        <text text-anchor="middle" dy="0.6em">10</text>
      </g>
    </g>
    <g transform="translate(155.02,138.65)">
      <g class="primitive">
        <text text-anchor="middle" dy="0.6em">20</text>
      </g>
    </g>
    <g transform="translate(224.01,138.65)">
      <g class="primitive">
        <text text-anchor="middle" dy="0.6em">30</text>
      </g>
    </g>
    <g transform="translate(293,138.65)">
      <g class="primitive">
        <text text-anchor="middle" dy="0.6em">40</text>
      </g>
    </g>
  </g>
  <g clip-path="url(#img-45c3dcd2-4)">
    <g id="img-45c3dcd2-5">
      <g pointer-events="visible" fill="#000000" fill-opacity="0.000" stroke="#000000" stroke-opacity="0.000" class="guide background" id="img-45c3dcd2-6">
        <g transform="translate(155.02,76.27)" id="img-45c3dcd2-7">
          <path d="M-139.98,-61.39 L 139.98 -61.39 139.98 61.39 -139.98 61.39 z" class="primitive"/>
        </g>
      </g>
      <g class="guide ygridlines xfixed" stroke-dasharray="0.5,0.5" stroke-width="0.2" stroke="#D0D0E0" id="img-45c3dcd2-8">
        <g transform="translate(155.02,135.65)" id="img-45c3dcd2-9">
          <path fill="none" d="M-139.98,0 L 139.98 0" class="primitive"/>
        </g>
        <g transform="translate(155.02,96.06)" id="img-45c3dcd2-10">
          <path fill="none" d="M-139.98,0 L 139.98 0" class="primitive"/>
        </g>
        <g transform="translate(155.02,56.47)" id="img-45c3dcd2-11">
          <path fill="none" d="M-139.98,0 L 139.98 0" class="primitive"/>
        </g>
        <g transform="translate(155.02,16.88)" id="img-45c3dcd2-12">
          <path fill="none" d="M-139.98,0 L 139.98 0" class="primitive"/>
        </g>
      </g>
      <g class="guide xgridlines yfixed" stroke-dasharray="0.5,0.5" stroke-width="0.2" stroke="#D0D0E0" id="img-45c3dcd2-13">
        <g transform="translate(17.04,76.27)" id="img-45c3dcd2-14">
          <path fill="none" d="M0,-61.39 L 0 61.39" class="primitive"/>
        </g>
        <g transform="translate(86.03,76.27)" id="img-45c3dcd2-15">
          <path fill="none" d="M0,-61.39 L 0 61.39" class="primitive"/>
        </g>
        <g transform="translate(155.02,76.27)" id="img-45c3dcd2-16">
          <path fill="none" d="M0,-61.39 L 0 61.39" class="primitive"/>
        </g>
        <g transform="translate(224.01,76.27)" id="img-45c3dcd2-17">
          <path fill="none" d="M0,-61.39 L 0 61.39" class="primitive"/>
        </g>
        <g transform="translate(293,76.27)" id="img-45c3dcd2-18">
          <path fill="none" d="M0,-61.39 L 0 61.39" class="primitive"/>
        </g>
      </g>
      <g class="plotpanel" id="img-45c3dcd2-19">
        <metadata>
          <boundingbox value="15.04000000000002mm 14.879999999999995mm 279.96mm 122.77333333333334mm"/>
          <unitbox value="-0.28989708653428037 1.5252581948810058 40.579794173068564 -1.5505163897620116"/>
        </metadata>
        <g shape-rendering="crispEdges" stroke-width="0.3" id="img-45c3dcd2-20">
          <g stroke="#000000" stroke-opacity="0.000" class="geometry" id="img-45c3dcd2-21">
            <g transform="translate(32.55,97.89)" id="img-45c3dcd2-22" fill="#00BFFF">
              <path d="M-5.19,-37.77 L 5.19 -37.77 5.19 37.77 -5.19 37.77 z" class="primitive"/>
            </g>
            <g transform="translate(53.25,96.09)" id="img-45c3dcd2-23" fill="#00BFFF">
              <path d="M-5.19,-39.57 L 5.19 -39.57 5.19 39.57 -5.19 39.57 z" class="primitive"/>
            </g>
            <g transform="translate(73.94,100.63)" id="img-45c3dcd2-24" fill="#00BFFF">
              <path d="M-5.19,-35.03 L 5.19 -35.03 5.19 35.03 -5.19 35.03 z" class="primitive"/>
            </g>
            <g transform="translate(94.64,98.08)" id="img-45c3dcd2-25" fill="#00BFFF">
              <path d="M-5.19,-37.57 L 5.19 -37.57 5.19 37.57 -5.19 37.57 z" class="primitive"/>
            </g>
            <g transform="translate(115.34,100.07)" id="img-45c3dcd2-26" fill="#00BFFF">
              <path d="M-5.19,-35.59 L 5.19 -35.59 5.19 35.59 -5.19 35.59 z" class="primitive"/>
            </g>
            <g transform="translate(136.04,103.32)" id="img-45c3dcd2-27" fill="#00BFFF">
              <path d="M-5.19,-32.33 L 5.19 -32.33 5.19 32.33 -5.19 32.33 z" class="primitive"/>
            </g>
            <g transform="translate(156.73,104.85)" id="img-45c3dcd2-28" fill="#00BFFF">
              <path d="M-5.19,-30.81 L 5.19 -30.81 5.19 30.81 -5.19 30.81 z" class="primitive"/>
            </g>
            <g transform="translate(177.43,107.5)" id="img-45c3dcd2-29" fill="#00BFFF">
              <path d="M-5.19,-28.15 L 5.19 -28.15 5.19 28.15 -5.19 28.15 z" class="primitive"/>
            </g>
            <g transform="translate(198.13,109.05)" id="img-45c3dcd2-30" fill="#00BFFF">
              <path d="M-5.19,-26.61 L 5.19 -26.61 5.19 26.61 -5.19 26.61 z" class="primitive"/>
            </g>
            <g transform="translate(218.82,109.71)" id="img-45c3dcd2-31" fill="#00BFFF">
              <path d="M-5.19,-25.95 L 5.19 -25.95 5.19 25.95 -5.19 25.95 z" class="primitive"/>
            </g>
            <g transform="translate(239.52,111.4)" id="img-45c3dcd2-32" fill="#00BFFF">
              <path d="M-5.19,-24.25 L 5.19 -24.25 5.19 24.25 -5.19 24.25 z" class="primitive"/>
            </g>
            <g transform="translate(260.22,109.24)" id="img-45c3dcd2-33" fill="#00BFFF">
              <path d="M-5.19,-26.42 L 5.19 -26.42 5.19 26.42 -5.19 26.42 z" class="primitive"/>
            </g>
            <g transform="translate(42.9,92.04)" id="img-45c3dcd2-34" fill="#D4CA3A">
              <path d="M-5.19,-43.61 L 5.19 -43.61 5.19 43.61 -5.19 43.61 z" class="primitive"/>
            </g>
            <g transform="translate(63.6,94.3)" id="img-45c3dcd2-35" fill="#D4CA3A">
              <path d="M-5.19,-41.35 L 5.19 -41.35 5.19 41.35 -5.19 41.35 z" class="primitive"/>
            </g>
            <g transform="translate(84.29,98.96)" id="img-45c3dcd2-36" fill="#D4CA3A">
              <path d="M-5.19,-36.69 L 5.19 -36.69 5.19 36.69 -5.19 36.69 z" class="primitive"/>
            </g>
            <g transform="translate(104.99,103.08)" id="img-45c3dcd2-37" fill="#D4CA3A">
              <path d="M-5.19,-32.57 L 5.19 -32.57 5.19 32.57 -5.19 32.57 z" class="primitive"/>
            </g>
            <g transform="translate(125.69,104.24)" id="img-45c3dcd2-38" fill="#D4CA3A">
              <path d="M-5.19,-31.41 L 5.19 -31.41 5.19 31.41 -5.19 31.41 z" class="primitive"/>
            </g>
            <g transform="translate(146.38,104.97)" id="img-45c3dcd2-39" fill="#D4CA3A">
              <path d="M-5.19,-30.69 L 5.19 -30.69 5.19 30.69 -5.19 30.69 z" class="primitive"/>
            </g>
            <g transform="translate(167.08,106.52)" id="img-45c3dcd2-40" fill="#D4CA3A">
              <path d="M-5.19,-29.13 L 5.19 -29.13 5.19 29.13 -5.19 29.13 z" class="primitive"/>
            </g>
            <g transform="translate(187.78,107.06)" id="img-45c3dcd2-41" fill="#D4CA3A">
              <path d="M-5.19,-28.59 L 5.19 -28.59 5.19 28.59 -5.19 28.59 z" class="primitive"/>
            </g>
            <g transform="translate(208.47,108.51)" id="img-45c3dcd2-42" fill="#D4CA3A">
              <path d="M-5.19,-27.14 L 5.19 -27.14 5.19 27.14 -5.19 27.14 z" class="primitive"/>
            </g>
            <g transform="translate(229.17,111.19)" id="img-45c3dcd2-43" fill="#D4CA3A">
              <path d="M-5.19,-24.46 L 5.19 -24.46 5.19 24.46 -5.19 24.46 z" class="primitive"/>
            </g>
            <g transform="translate(249.87,110.54)" id="img-45c3dcd2-44" fill="#D4CA3A">
              <path d="M-5.19,-25.11 L 5.19 -25.11 5.19 25.11 -5.19 25.11 z" class="primitive"/>
            </g>
            <g transform="translate(270.57,110.85)" id="img-45c3dcd2-45" fill="#D4CA3A">
              <path d="M-5.19,-24.8 L 5.19 -24.8 5.19 24.8 -5.19 24.8 z" class="primitive"/>
            </g>
          </g>
        </g>
      </g>
    </g>
  </g>
  <g class="guide ylabels" font-size="5.64" font-family="'PT Sans Caption','Helvetica Neue','Helvetica',sans-serif" fill="#6C606B" id="img-45c3dcd2-46">
    <g transform="translate(14.04,135.65)" id="img-45c3dcd2-47">
      <g class="primitive">
        <text text-anchor="end" dy="0.35em">0.0</text>
      </g>
    </g>
    <g transform="translate(14.04,96.06)" id="img-45c3dcd2-48">
      <g class="primitive">
        <text text-anchor="end" dy="0.35em">0.5</text>
      </g>
    </g>
    <g transform="translate(14.04,56.47)" id="img-45c3dcd2-49">
      <g class="primitive">
        <text text-anchor="end" dy="0.35em">1.0</text>
      </g>
    </g>
    <g transform="translate(14.04,16.88)" id="img-45c3dcd2-50">
      <g class="primitive">
        <text text-anchor="end" dy="0.35em">1.5</text>
      </g>
    </g>
  </g>
  <g font-size="8.47" font-family="'PT Sans','Helvetica Neue','Helvetica',sans-serif" fill="#564A55" stroke="#000000" stroke-opacity="0.000" id="img-45c3dcd2-51">
    <g transform="translate(155.02,5)" id="img-45c3dcd2-52">
      <g class="primitive">
        <text text-anchor="middle" dy="0.6em">Variance of θ hat</text>
      </g>
    </g>
  </g>
</g>
<defs>
  <clipPath id="img-45c3dcd2-4">
    <path d="M15.04,14.88 L 295 14.88 295 137.65 15.04 137.65" />
  </clipPath>
</defs>
</svg>
