<?xml version="1.0" encoding="UTF-8"?>
<svg xmlns="http://www.w3.org/2000/svg"
     xmlns:xlink="http://www.w3.org/1999/xlink"
     xmlns:gadfly="http://www.gadflyjl.org/ns"
     version="1.2"
     width="141.42mm" height="100mm" viewBox="0 0 141.42 100"
     stroke="none"
     fill="#000000"
     stroke-width="0.3"
     font-size="3.88"
>
<defs>
  <marker id="arrow" markerWidth="15" markerHeight="7" refX="5" refY="3.5" orient="auto" markerUnits="strokeWidth">
    <path d="M0,0 L15,3.5 L0,7 z" stroke="context-stroke" fill="context-stroke"/>
  </marker>
</defs>
<g class="plotroot xscalable yscalable" id="img-c1df042a-1">
  <g font-size="3.88" font-family="'PT Sans','Helvetica Neue','Helvetica',sans-serif" fill="#564A55" stroke="#000000" stroke-opacity="0.000" id="img-c1df042a-2">
    <g transform="translate(70.89,88.39)">
      <g class="primitive">
        <text text-anchor="middle" dy="0.6em">dz</text>
      </g>
    </g>
  </g>
  <g class="guide xlabels" font-size="2.82" font-family="'PT Sans Caption','Helvetica Neue','Helvetica',sans-serif" fill="#6C606B" id="img-c1df042a-3">
    <g transform="translate(20.63,81.72)">
      <g class="primitive">
        <text text-anchor="middle" dy="0.6em">0</text>
      </g>
    </g>
    <g transform="translate(45.76,81.72)">
      <g class="primitive">
        <text text-anchor="middle" dy="0.6em">10</text>
      </g>
    </g>
    <g transform="translate(70.89,81.72)">
      <g class="primitive">
        <text text-anchor="middle" dy="0.6em">20</text>
      </g>
    </g>
    <g transform="translate(96.01,81.72)">
      <g class="primitive">
        <text text-anchor="middle" dy="0.6em">30</text>
      </g>
    </g>
    <g transform="translate(121.14,81.72)">
      <g class="primitive">
        <text text-anchor="middle" dy="0.6em">40</text>
      </g>
    </g>
  </g>
  <g class="guide colorkey" id="img-c1df042a-4">
    <g fill="#4C404B" font-size="2.82" font-family="'PT Sans','Helvetica Neue','Helvetica',sans-serif" id="img-c1df042a-5">
      <g transform="translate(126.95,42.86)" id="img-c1df042a-6" class="color_MSE">
        <g class="primitive">
          <text dy="0.35em">MSE</text>
        </g>
      </g>
      <g transform="translate(126.95,46.48)" id="img-c1df042a-7" class="color_MSE2">
        <g class="primitive">
          <text dy="0.35em">MSE2</text>
        </g>
      </g>
    </g>
    <g stroke="#000000" stroke-opacity="0.000" id="img-c1df042a-8">
      <g transform="translate(125.05,42.86)" id="img-c1df042a-9" fill="#00BFFF" class="color_MSE">
        <path d="M-0.91,-0.91 L 0.91 -0.91 0.91 0.91 -0.91 0.91 z" class="primitive"/>
      </g>
      <g transform="translate(125.05,46.48)" id="img-c1df042a-10" fill="#D4CA3A" class="color_MSE2">
        <path d="M-0.91,-0.91 L 0.91 -0.91 0.91 0.91 -0.91 0.91 z" class="primitive"/>
      </g>
    </g>
    <g fill="#362A35" font-size="3.88" font-family="'PT Sans','Helvetica Neue','Helvetica',sans-serif" stroke="#000000" stroke-opacity="0.000" id="img-c1df042a-11">
      <g transform="translate(124.14,39.04)" id="img-c1df042a-12">
        <g class="primitive">
          <text dy="-0em">variable</text>
        </g>
      </g>
    </g>
  </g>
  <g clip-path="url(#img-c1df042a-13)">
    <g id="img-c1df042a-14">
      <g pointer-events="visible" fill="#000000" fill-opacity="0.000" stroke="#000000" stroke-opacity="0.000" class="guide background" id="img-c1df042a-15">
        <g transform="translate(70.89,42.86)" id="img-c1df042a-16">
          <path d="M-52.25,-37.86 L 52.25 -37.86 52.25 37.86 -52.25 37.86 z" class="primitive"/>
        </g>
      </g>
      <g class="guide ygridlines xfixed" stroke-dasharray="0.5,0.5" stroke-width="0.2" stroke="#D0D0E0" id="img-c1df042a-17">
        <g transform="translate(70.89,78.71)" id="img-c1df042a-18">
          <path fill="none" d="M-52.25,0 L 52.25 0" class="primitive"/>
        </g>
        <g transform="translate(70.89,54.81)" id="img-c1df042a-19">
          <path fill="none" d="M-52.25,0 L 52.25 0" class="primitive"/>
        </g>
        <g transform="translate(70.89,30.9)" id="img-c1df042a-20">
          <path fill="none" d="M-52.25,0 L 52.25 0" class="primitive"/>
        </g>
        <g transform="translate(70.89,7)" id="img-c1df042a-21">
          <path fill="none" d="M-52.25,0 L 52.25 0" class="primitive"/>
        </g>
      </g>
      <g class="guide xgridlines yfixed" stroke-dasharray="0.5,0.5" stroke-width="0.2" stroke="#D0D0E0" id="img-c1df042a-22">
        <g transform="translate(20.63,42.86)" id="img-c1df042a-23">
          <path fill="none" d="M0,-37.86 L 0 37.86" class="primitive"/>
        </g>
        <g transform="translate(45.76,42.86)" id="img-c1df042a-24">
          <path fill="none" d="M0,-37.86 L 0 37.86" class="primitive"/>
        </g>
        <g transform="translate(70.89,42.86)" id="img-c1df042a-25">
          <path fill="none" d="M0,-37.86 L 0 37.86" class="primitive"/>
        </g>
        <g transform="translate(96.01,42.86)" id="img-c1df042a-26">
          <path fill="none" d="M0,-37.86 L 0 37.86" class="primitive"/>
        </g>
        <g transform="translate(121.14,42.86)" id="img-c1df042a-27">
          <path fill="none" d="M0,-37.86 L 0 37.86" class="primitive"/>
        </g>
      </g>
      <g class="plotpanel" id="img-c1df042a-28">
        <metadata>
          <boundingbox value="18.63166666666666mm 5.0mm 104.50718957064284mm 75.715mm"/>
          <unitbox value="-0.7959629588863484 1.541832252666806 41.5919259177727 -1.5836645053336125"/>
        </metadata>
        <g shape-rendering="crispEdges" stroke-width="0.3" id="img-c1df042a-29">
          <g stroke="#000000" stroke-opacity="0.000" class="geometry" id="img-c1df042a-30">
            <g transform="translate(26.27,55.02)" id="img-c1df042a-31" fill="#D4CA3A">
              <path d="M-1.9,-23.7 L 1.9 -23.7 1.9 23.7 -1.9 23.7 z" class="primitive"/>
            </g>
            <g transform="translate(33.81,54.11)" id="img-c1df042a-32" fill="#D4CA3A">
              <path d="M-1.9,-24.61 L 1.9 -24.61 1.9 24.61 -1.9 24.61 z" class="primitive"/>
            </g>
            <g transform="translate(41.35,55.93)" id="img-c1df042a-33" fill="#D4CA3A">
              <path d="M-1.9,-22.78 L 1.9 -22.78 1.9 22.78 -1.9 22.78 z" class="primitive"/>
            </g>
            <g transform="translate(48.89,54.52)" id="img-c1df042a-34" fill="#D4CA3A">
              <path d="M-1.9,-24.19 L 1.9 -24.19 1.9 24.19 -1.9 24.19 z" class="primitive"/>
            </g>
            <g transform="translate(56.42,55.98)" id="img-c1df042a-35" fill="#D4CA3A">
              <path d="M-1.9,-22.74 L 1.9 -22.74 1.9 22.74 -1.9 22.74 z" class="primitive"/>
            </g>
            <g transform="translate(63.96,52.02)" id="img-c1df042a-36" fill="#D4CA3A">
              <path d="M-1.9,-26.69 L 1.9 -26.69 1.9 26.69 -1.9 26.69 z" class="primitive"/>
            </g>
            <g transform="translate(71.5,52.54)" id="img-c1df042a-37" fill="#D4CA3A">
              <path d="M-1.9,-26.18 L 1.9 -26.18 1.9 26.18 -1.9 26.18 z" class="primitive"/>
            </g>
            <g transform="translate(79.04,52.67)" id="img-c1df042a-38" fill="#D4CA3A">
              <path d="M-1.9,-26.05 L 1.9 -26.05 1.9 26.05 -1.9 26.05 z" class="primitive"/>
            </g>
            <g transform="translate(86.58,52.51)" id="img-c1df042a-39" fill="#D4CA3A">
              <path d="M-1.9,-26.2 L 1.9 -26.2 1.9 26.2 -1.9 26.2 z" class="primitive"/>
            </g>
            <g transform="translate(94.12,52.54)" id="img-c1df042a-40" fill="#D4CA3A">
              <path d="M-1.9,-26.17 L 1.9 -26.17 1.9 26.17 -1.9 26.17 z" class="primitive"/>
            </g>
            <g transform="translate(101.65,49.9)" id="img-c1df042a-41" fill="#D4CA3A">
              <path d="M-1.9,-28.81 L 1.9 -28.81 1.9 28.81 -1.9 28.81 z" class="primitive"/>
            </g>
            <g transform="translate(109.19,49.69)" id="img-c1df042a-42" fill="#D4CA3A">
              <path d="M-1.9,-29.02 L 1.9 -29.02 1.9 29.02 -1.9 29.02 z" class="primitive"/>
            </g>
            <g transform="translate(30.04,54.3)" id="img-c1df042a-43" fill="#00BFFF">
              <path d="M-1.9,-24.41 L 1.9 -24.41 1.9 24.41 -1.9 24.41 z" class="primitive"/>
            </g>
            <g transform="translate(37.58,56.73)" id="img-c1df042a-44" fill="#00BFFF">
              <path d="M-1.9,-21.98 L 1.9 -21.98 1.9 21.98 -1.9 21.98 z" class="primitive"/>
            </g>
            <g transform="translate(45.12,54.81)" id="img-c1df042a-45" fill="#00BFFF">
              <path d="M-1.9,-23.9 L 1.9 -23.9 1.9 23.9 -1.9 23.9 z" class="primitive"/>
            </g>
            <g transform="translate(52.66,55.61)" id="img-c1df042a-46" fill="#00BFFF">
              <path d="M-1.9,-23.1 L 1.9 -23.1 1.9 23.1 -1.9 23.1 z" class="primitive"/>
            </g>
            <g transform="translate(60.19,56.17)" id="img-c1df042a-47" fill="#00BFFF">
              <path d="M-1.9,-22.55 L 1.9 -22.55 1.9 22.55 -1.9 22.55 z" class="primitive"/>
            </g>
            <g transform="translate(67.73,55)" id="img-c1df042a-48" fill="#00BFFF">
              <path d="M-1.9,-23.71 L 1.9 -23.71 1.9 23.71 -1.9 23.71 z" class="primitive"/>
            </g>
            <g transform="translate(75.27,53.37)" id="img-c1df042a-49" fill="#00BFFF">
              <path d="M-1.9,-25.35 L 1.9 -25.35 1.9 25.35 -1.9 25.35 z" class="primitive"/>
            </g>
            <g transform="translate(82.81,52.42)" id="img-c1df042a-50" fill="#00BFFF">
              <path d="M-1.9,-26.3 L 1.9 -26.3 1.9 26.3 -1.9 26.3 z" class="primitive"/>
            </g>
            <g transform="translate(90.35,52.35)" id="img-c1df042a-51" fill="#00BFFF">
              <path d="M-1.9,-26.37 L 1.9 -26.37 1.9 26.37 -1.9 26.37 z" class="primitive"/>
            </g>
            <g transform="translate(97.88,53.29)" id="img-c1df042a-52" fill="#00BFFF">
              <path d="M-1.9,-25.42 L 1.9 -25.42 1.9 25.42 -1.9 25.42 z" class="primitive"/>
            </g>
            <g transform="translate(105.42,49.23)" id="img-c1df042a-53" fill="#00BFFF">
              <path d="M-1.9,-29.49 L 1.9 -29.49 1.9 29.49 -1.9 29.49 z" class="primitive"/>
            </g>
            <g transform="translate(112.96,49.31)" id="img-c1df042a-54" fill="#00BFFF">
              <path d="M-1.9,-29.4 L 1.9 -29.4 1.9 29.4 -1.9 29.4 z" class="primitive"/>
            </g>
          </g>
        </g>
      </g>
    </g>
  </g>
  <g class="guide ylabels" font-size="2.82" font-family="'PT Sans Caption','Helvetica Neue','Helvetica',sans-serif" fill="#6C606B" id="img-c1df042a-55">
    <g transform="translate(17.63,78.71)" id="img-c1df042a-56">
      <g class="primitive">
        <text text-anchor="end" dy="0.35em">0.0</text>
      </g>
    </g>
    <g transform="translate(17.63,54.81)" id="img-c1df042a-57">
      <g class="primitive">
        <text text-anchor="end" dy="0.35em">0.5</text>
      </g>
    </g>
    <g transform="translate(17.63,30.9)" id="img-c1df042a-58">
      <g class="primitive">
        <text text-anchor="end" dy="0.35em">1.0</text>
      </g>
    </g>
    <g transform="translate(17.63,7)" id="img-c1df042a-59">
      <g class="primitive">
        <text text-anchor="end" dy="0.35em">1.5</text>
      </g>
    </g>
  </g>
  <g font-size="3.88" font-family="'PT Sans','Helvetica Neue','Helvetica',sans-serif" fill="#564A55" stroke="#000000" stroke-opacity="0.000" id="img-c1df042a-60">
    <g transform="translate(8.81,40.86)" id="img-c1df042a-61">
      <g class="primitive">
        <text text-anchor="middle" dy="0.35em" transform="rotate(-90,0, 2)">value</text>
      </g>
    </g>
  </g>
</g>
<defs>
  <clipPath id="img-c1df042a-13">
    <path d="M18.63,5 L 123.14 5 123.14 80.72 18.63 80.72" />
  </clipPath>
</defs>
</svg>
