<?xml version="1.0" encoding="UTF-8"?>
<svg xmlns="http://www.w3.org/2000/svg"
     xmlns:xlink="http://www.w3.org/1999/xlink"
     xmlns:gadfly="http://www.gadflyjl.org/ns"
     version="1.2"
     width="141.42mm" height="100mm" viewBox="0 0 141.42 100"
     stroke="none"
     fill="#000000"
     stroke-width="0.3"
     font-size="3.88"
>
<defs>
  <marker id="arrow" markerWidth="15" markerHeight="7" refX="5" refY="3.5" orient="auto" markerUnits="strokeWidth">
    <path d="M0,0 L15,3.5 L0,7 z" stroke="context-stroke" fill="context-stroke"/>
  </marker>
</defs>
<g class="plotroot xscalable yscalable" id="img-242d0415-1">
  <g font-size="3.88" font-family="'PT Sans','Helvetica Neue','Helvetica',sans-serif" fill="#564A55" stroke="#000000" stroke-opacity="0.000" id="img-242d0415-2">
    <g transform="translate(70.89,88.39)">
      <g class="primitive">
        <text text-anchor="middle" dy="0.6em">dz</text>
      </g>
    </g>
  </g>
  <g class="guide xlabels" font-size="2.82" font-family="'PT Sans Caption','Helvetica Neue','Helvetica',sans-serif" fill="#6C606B" id="img-242d0415-3">
    <g transform="translate(20.63,81.72)">
      <g class="primitive">
        <text text-anchor="middle" dy="0.6em">0</text>
      </g>
    </g>
    <g transform="translate(45.76,81.72)">
      <g class="primitive">
        <text text-anchor="middle" dy="0.6em">10</text>
      </g>
    </g>
    <g transform="translate(70.89,81.72)">
      <g class="primitive">
        <text text-anchor="middle" dy="0.6em">20</text>
      </g>
    </g>
    <g transform="translate(96.01,81.72)">
      <g class="primitive">
        <text text-anchor="middle" dy="0.6em">30</text>
      </g>
    </g>
    <g transform="translate(121.14,81.72)">
      <g class="primitive">
        <text text-anchor="middle" dy="0.6em">40</text>
      </g>
    </g>
  </g>
  <g class="guide colorkey" id="img-242d0415-4">
    <g fill="#4C404B" font-size="2.82" font-family="'PT Sans','Helvetica Neue','Helvetica',sans-serif" id="img-242d0415-5">
      <g transform="translate(126.95,42.86)" id="img-242d0415-6" class="color_Var">
        <g class="primitive">
          <text dy="0.35em">Var</text>
        </g>
      </g>
      <g transform="translate(126.95,46.48)" id="img-242d0415-7" class="color_Var2">
        <g class="primitive">
          <text dy="0.35em">Var2</text>
        </g>
      </g>
    </g>
    <g stroke="#000000" stroke-opacity="0.000" id="img-242d0415-8">
      <g transform="translate(125.05,42.86)" id="img-242d0415-9" fill="#00BFFF" class="color_Var">
        <path d="M-0.91,-0.91 L 0.91 -0.91 0.91 0.91 -0.91 0.91 z" class="primitive"/>
      </g>
      <g transform="translate(125.05,46.48)" id="img-242d0415-10" fill="#D4CA3A" class="color_Var2">
        <path d="M-0.91,-0.91 L 0.91 -0.91 0.91 0.91 -0.91 0.91 z" class="primitive"/>
      </g>
    </g>
    <g fill="#362A35" font-size="3.88" font-family="'PT Sans','Helvetica Neue','Helvetica',sans-serif" stroke="#000000" stroke-opacity="0.000" id="img-242d0415-11">
      <g transform="translate(124.14,39.04)" id="img-242d0415-12">
        <g class="primitive">
          <text dy="-0em">variable</text>
        </g>
      </g>
    </g>
  </g>
  <g clip-path="url(#img-242d0415-13)">
    <g id="img-242d0415-14">
      <g pointer-events="visible" fill="#000000" fill-opacity="0.000" stroke="#000000" stroke-opacity="0.000" class="guide background" id="img-242d0415-15">
        <g transform="translate(70.89,42.86)" id="img-242d0415-16">
          <path d="M-52.25,-37.86 L 52.25 -37.86 52.25 37.86 -52.25 37.86 z" class="primitive"/>
        </g>
      </g>
      <g class="guide ygridlines xfixed" stroke-dasharray="0.5,0.5" stroke-width="0.2" stroke="#D0D0E0" id="img-242d0415-17">
        <g transform="translate(70.89,78.71)" id="img-242d0415-18">
          <path fill="none" d="M-52.25,0 L 52.25 0" class="primitive"/>
        </g>
        <g transform="translate(70.89,54.81)" id="img-242d0415-19">
          <path fill="none" d="M-52.25,0 L 52.25 0" class="primitive"/>
        </g>
        <g transform="translate(70.89,30.9)" id="img-242d0415-20">
          <path fill="none" d="M-52.25,0 L 52.25 0" class="primitive"/>
        </g>
        <g transform="translate(70.89,7)" id="img-242d0415-21">
          <path fill="none" d="M-52.25,0 L 52.25 0" class="primitive"/>
        </g>
      </g>
      <g class="guide xgridlines yfixed" stroke-dasharray="0.5,0.5" stroke-width="0.2" stroke="#D0D0E0" id="img-242d0415-22">
        <g transform="translate(20.63,42.86)" id="img-242d0415-23">
          <path fill="none" d="M0,-37.86 L 0 37.86" class="primitive"/>
        </g>
        <g transform="translate(45.76,42.86)" id="img-242d0415-24">
          <path fill="none" d="M0,-37.86 L 0 37.86" class="primitive"/>
        </g>
        <g transform="translate(70.89,42.86)" id="img-242d0415-25">
          <path fill="none" d="M0,-37.86 L 0 37.86" class="primitive"/>
        </g>
        <g transform="translate(96.01,42.86)" id="img-242d0415-26">
          <path fill="none" d="M0,-37.86 L 0 37.86" class="primitive"/>
        </g>
        <g transform="translate(121.14,42.86)" id="img-242d0415-27">
          <path fill="none" d="M0,-37.86 L 0 37.86" class="primitive"/>
        </g>
      </g>
      <g class="plotpanel" id="img-242d0415-28">
        <metadata>
          <boundingbox value="18.63166666666666mm 5.0mm 104.50718957064284mm 75.715mm"/>
          <unitbox value="-0.7959629588863484 1.541832252666806 41.5919259177727 -1.5836645053336125"/>
        </metadata>
        <g shape-rendering="crispEdges" stroke-width="0.3" id="img-242d0415-29">
          <g stroke="#000000" stroke-opacity="0.000" class="geometry" id="img-242d0415-30">
            <g transform="translate(26.27,52.38)" id="img-242d0415-31" fill="#D4CA3A">
              <path d="M-1.9,-26.33 L 1.9 -26.33 1.9 26.33 -1.9 26.33 z" class="primitive"/>
            </g>
            <g transform="translate(33.81,53.75)" id="img-242d0415-32" fill="#D4CA3A">
              <path d="M-1.9,-24.97 L 1.9 -24.97 1.9 24.97 -1.9 24.97 z" class="primitive"/>
            </g>
            <g transform="translate(41.35,56.56)" id="img-242d0415-33" fill="#D4CA3A">
              <path d="M-1.9,-22.16 L 1.9 -22.16 1.9 22.16 -1.9 22.16 z" class="primitive"/>
            </g>
            <g transform="translate(48.89,59.05)" id="img-242d0415-34" fill="#D4CA3A">
              <path d="M-1.9,-19.67 L 1.9 -19.67 1.9 19.67 -1.9 19.67 z" class="primitive"/>
            </g>
            <g transform="translate(56.42,59.75)" id="img-242d0415-35" fill="#D4CA3A">
              <path d="M-1.9,-18.97 L 1.9 -18.97 1.9 18.97 -1.9 18.97 z" class="primitive"/>
            </g>
            <g transform="translate(63.96,60.19)" id="img-242d0415-36" fill="#D4CA3A">
              <path d="M-1.9,-18.53 L 1.9 -18.53 1.9 18.53 -1.9 18.53 z" class="primitive"/>
            </g>
            <g transform="translate(71.5,61.12)" id="img-242d0415-37" fill="#D4CA3A">
              <path d="M-1.9,-17.59 L 1.9 -17.59 1.9 17.59 -1.9 17.59 z" class="primitive"/>
            </g>
            <g transform="translate(79.04,61.45)" id="img-242d0415-38" fill="#D4CA3A">
              <path d="M-1.9,-17.27 L 1.9 -17.27 1.9 17.27 -1.9 17.27 z" class="primitive"/>
            </g>
            <g transform="translate(86.58,62.33)" id="img-242d0415-39" fill="#D4CA3A">
              <path d="M-1.9,-16.39 L 1.9 -16.39 1.9 16.39 -1.9 16.39 z" class="primitive"/>
            </g>
            <g transform="translate(94.12,63.94)" id="img-242d0415-40" fill="#D4CA3A">
              <path d="M-1.9,-14.77 L 1.9 -14.77 1.9 14.77 -1.9 14.77 z" class="primitive"/>
            </g>
            <g transform="translate(101.65,63.55)" id="img-242d0415-41" fill="#D4CA3A">
              <path d="M-1.9,-15.16 L 1.9 -15.16 1.9 15.16 -1.9 15.16 z" class="primitive"/>
            </g>
            <g transform="translate(109.19,63.74)" id="img-242d0415-42" fill="#D4CA3A">
              <path d="M-1.9,-14.98 L 1.9 -14.98 1.9 14.98 -1.9 14.98 z" class="primitive"/>
            </g>
            <g transform="translate(30.04,55.91)" id="img-242d0415-43" fill="#00BFFF">
              <path d="M-1.9,-22.8 L 1.9 -22.8 1.9 22.8 -1.9 22.8 z" class="primitive"/>
            </g>
            <g transform="translate(37.58,54.83)" id="img-242d0415-44" fill="#00BFFF">
              <path d="M-1.9,-23.89 L 1.9 -23.89 1.9 23.89 -1.9 23.89 z" class="primitive"/>
            </g>
            <g transform="translate(45.12,57.57)" id="img-242d0415-45" fill="#00BFFF">
              <path d="M-1.9,-21.15 L 1.9 -21.15 1.9 21.15 -1.9 21.15 z" class="primitive"/>
            </g>
            <g transform="translate(52.66,56.03)" id="img-242d0415-46" fill="#00BFFF">
              <path d="M-1.9,-22.69 L 1.9 -22.69 1.9 22.69 -1.9 22.69 z" class="primitive"/>
            </g>
            <g transform="translate(60.19,57.23)" id="img-242d0415-47" fill="#00BFFF">
              <path d="M-1.9,-21.49 L 1.9 -21.49 1.9 21.49 -1.9 21.49 z" class="primitive"/>
            </g>
            <g transform="translate(67.73,59.19)" id="img-242d0415-48" fill="#00BFFF">
              <path d="M-1.9,-19.52 L 1.9 -19.52 1.9 19.52 -1.9 19.52 z" class="primitive"/>
            </g>
            <g transform="translate(75.27,60.11)" id="img-242d0415-49" fill="#00BFFF">
              <path d="M-1.9,-18.6 L 1.9 -18.6 1.9 18.6 -1.9 18.6 z" class="primitive"/>
            </g>
            <g transform="translate(82.81,61.72)" id="img-242d0415-50" fill="#00BFFF">
              <path d="M-1.9,-17 L 1.9 -17 1.9 17 -1.9 17 z" class="primitive"/>
            </g>
            <g transform="translate(90.35,62.65)" id="img-242d0415-51" fill="#00BFFF">
              <path d="M-1.9,-16.06 L 1.9 -16.06 1.9 16.06 -1.9 16.06 z" class="primitive"/>
            </g>
            <g transform="translate(97.88,63.05)" id="img-242d0415-52" fill="#00BFFF">
              <path d="M-1.9,-15.67 L 1.9 -15.67 1.9 15.67 -1.9 15.67 z" class="primitive"/>
            </g>
            <g transform="translate(105.42,64.07)" id="img-242d0415-53" fill="#00BFFF">
              <path d="M-1.9,-14.64 L 1.9 -14.64 1.9 14.64 -1.9 14.64 z" class="primitive"/>
            </g>
            <g transform="translate(112.96,62.76)" id="img-242d0415-54" fill="#00BFFF">
              <path d="M-1.9,-15.95 L 1.9 -15.95 1.9 15.95 -1.9 15.95 z" class="primitive"/>
            </g>
          </g>
        </g>
      </g>
    </g>
  </g>
  <g class="guide ylabels" font-size="2.82" font-family="'PT Sans Caption','Helvetica Neue','Helvetica',sans-serif" fill="#6C606B" id="img-242d0415-55">
    <g transform="translate(17.63,78.71)" id="img-242d0415-56">
      <g class="primitive">
        <text text-anchor="end" dy="0.35em">0.0</text>
      </g>
    </g>
    <g transform="translate(17.63,54.81)" id="img-242d0415-57">
      <g class="primitive">
        <text text-anchor="end" dy="0.35em">0.5</text>
      </g>
    </g>
    <g transform="translate(17.63,30.9)" id="img-242d0415-58">
      <g class="primitive">
        <text text-anchor="end" dy="0.35em">1.0</text>
      </g>
    </g>
    <g transform="translate(17.63,7)" id="img-242d0415-59">
      <g class="primitive">
        <text text-anchor="end" dy="0.35em">1.5</text>
      </g>
    </g>
  </g>
  <g font-size="3.88" font-family="'PT Sans','Helvetica Neue','Helvetica',sans-serif" fill="#564A55" stroke="#000000" stroke-opacity="0.000" id="img-242d0415-60">
    <g transform="translate(8.81,40.86)" id="img-242d0415-61">
      <g class="primitive">
        <text text-anchor="middle" dy="0.35em" transform="rotate(-90,0, 2)">value</text>
      </g>
    </g>
  </g>
</g>
<defs>
  <clipPath id="img-242d0415-13">
    <path d="M18.63,5 L 123.14 5 123.14 80.72 18.63 80.72" />
  </clipPath>
</defs>
</svg>
