<?xml version="1.0" encoding="UTF-8"?>
<svg xmlns="http://www.w3.org/2000/svg"
     xmlns:xlink="http://www.w3.org/1999/xlink"
     xmlns:gadfly="http://www.gadflyjl.org/ns"
     version="1.2"
     width="300mm" height="150mm" viewBox="0 0 300 150"
     stroke="none"
     fill="#000000"
     stroke-width="0.3"
     font-size="3.88"
>
<defs>
  <marker id="arrow" markerWidth="15" markerHeight="7" refX="5" refY="3.5" orient="auto" markerUnits="strokeWidth">
    <path d="M0,0 L15,3.5 L0,7 z" stroke="context-stroke" fill="context-stroke"/>
  </marker>
</defs>
<g class="plotroot xscalable yscalable" id="img-6975b0c4-1">
  <g font-size="4.94" font-family="'PT Sans','Helvetica Neue','Helvetica',sans-serif" fill="#564A55" stroke="#000000" stroke-opacity="0.000" id="img-6975b0c4-2">
    <g transform="translate(150.67,137.4)">
      <g class="primitive">
        <text text-anchor="middle" dy="0.6em">dz</text>
      </g>
    </g>
  </g>
  <g class="guide xlabels" font-size="2.82" font-family="'PT Sans Caption','Helvetica Neue','Helvetica',sans-serif" fill="#6C606B" id="img-6975b0c4-3">
    <g transform="translate(21.62,130.73)">
      <g class="primitive">
        <text text-anchor="middle" dy="0.6em">0</text>
      </g>
    </g>
    <g transform="translate(86.14,130.73)">
      <g class="primitive">
        <text text-anchor="middle" dy="0.6em">10</text>
      </g>
    </g>
    <g transform="translate(150.67,130.73)">
      <g class="primitive">
        <text text-anchor="middle" dy="0.6em">20</text>
      </g>
    </g>
    <g transform="translate(215.19,130.73)">
      <g class="primitive">
        <text text-anchor="middle" dy="0.6em">30</text>
      </g>
    </g>
    <g transform="translate(279.72,130.73)">
      <g class="primitive">
        <text text-anchor="middle" dy="0.6em">40</text>
      </g>
    </g>
  </g>
  <g class="guide colorkey" id="img-6975b0c4-4">
    <g fill="#4C404B" font-size="2.82" font-family="'PT Sans','Helvetica Neue','Helvetica',sans-serif" id="img-6975b0c4-5">
      <g transform="translate(285.53,67.37)" id="img-6975b0c4-6" class="color_SBias">
        <g class="primitive">
          <text dy="0.35em">SBias</text>
        </g>
      </g>
      <g transform="translate(285.53,70.99)" id="img-6975b0c4-7" class="color_SBias2">
        <g class="primitive">
          <text dy="0.35em">SBias2</text>
        </g>
      </g>
    </g>
    <g stroke="#000000" stroke-opacity="0.000" id="img-6975b0c4-8">
      <g transform="translate(283.62,67.37)" id="img-6975b0c4-9" fill="#00BFFF" class="color_SBias">
        <path d="M-0.91,-0.91 L 0.91 -0.91 0.91 0.91 -0.91 0.91 z" class="primitive"/>
      </g>
      <g transform="translate(283.62,70.99)" id="img-6975b0c4-10" fill="#D4CA3A" class="color_SBias2">
        <path d="M-0.91,-0.91 L 0.91 -0.91 0.91 0.91 -0.91 0.91 z" class="primitive"/>
      </g>
    </g>
    <g fill="#362A35" font-size="3.88" font-family="'PT Sans','Helvetica Neue','Helvetica',sans-serif" stroke="#000000" stroke-opacity="0.000" id="img-6975b0c4-11">
      <g transform="translate(282.72,63.54)" id="img-6975b0c4-12">
        <g class="primitive">
          <text dy="-0em">variable</text>
        </g>
      </g>
    </g>
  </g>
  <g clip-path="url(#img-6975b0c4-13)">
    <g id="img-6975b0c4-14">
      <g pointer-events="visible" fill="#000000" fill-opacity="0.000" stroke="#000000" stroke-opacity="0.000" class="guide background" id="img-6975b0c4-15">
        <g transform="translate(150.67,67.37)" id="img-6975b0c4-16">
          <path d="M-131.05,-62.36 L 131.05 -62.36 131.05 62.36 -131.05 62.36 z" class="primitive"/>
        </g>
      </g>
      <g class="guide ygridlines xfixed" stroke-dasharray="0.5,0.5" stroke-width="0.2" stroke="#D0D0E0" id="img-6975b0c4-17">
        <g transform="translate(150.67,127.73)" id="img-6975b0c4-18">
          <path fill="none" d="M-131.05,0 L 131.05 0" class="primitive"/>
        </g>
        <g transform="translate(150.67,97.55)" id="img-6975b0c4-19">
          <path fill="none" d="M-131.05,0 L 131.05 0" class="primitive"/>
        </g>
        <g transform="translate(150.67,67.37)" id="img-6975b0c4-20">
          <path fill="none" d="M-131.05,0 L 131.05 0" class="primitive"/>
        </g>
        <g transform="translate(150.67,37.18)" id="img-6975b0c4-21">
          <path fill="none" d="M-131.05,0 L 131.05 0" class="primitive"/>
        </g>
        <g transform="translate(150.67,7)" id="img-6975b0c4-22">
          <path fill="none" d="M-131.05,0 L 131.05 0" class="primitive"/>
        </g>
      </g>
      <g class="guide xgridlines yfixed" stroke-dasharray="0.5,0.5" stroke-width="0.2" stroke="#D0D0E0" id="img-6975b0c4-23">
        <g transform="translate(21.62,67.37)" id="img-6975b0c4-24">
          <path fill="none" d="M0,-62.37 L 0 62.37" class="primitive"/>
        </g>
        <g transform="translate(86.14,67.37)" id="img-6975b0c4-25">
          <path fill="none" d="M0,-62.37 L 0 62.37" class="primitive"/>
        </g>
        <g transform="translate(150.67,67.37)" id="img-6975b0c4-26">
          <path fill="none" d="M0,-62.37 L 0 62.37" class="primitive"/>
        </g>
        <g transform="translate(215.19,67.37)" id="img-6975b0c4-27">
          <path fill="none" d="M0,-62.37 L 0 62.37" class="primitive"/>
        </g>
        <g transform="translate(279.72,67.37)" id="img-6975b0c4-28">
          <path fill="none" d="M0,-62.37 L 0 62.37" class="primitive"/>
        </g>
      </g>
      <g class="plotpanel" id="img-6975b0c4-29">
        <metadata>
          <boundingbox value="19.616666666666674mm 5.0mm 262.1008333333333mm 124.73mm"/>
          <unitbox value="-0.30995638009692594 2.033131781661559 40.61991276019385 -2.0662635633231177"/>
        </metadata>
        <g shape-rendering="crispEdges" stroke-width="0.3" id="img-6975b0c4-30">
          <g stroke="#000000" stroke-opacity="0.000" class="geometry" id="img-6975b0c4-31">
            <g transform="translate(36.12,127.68)" id="img-6975b0c4-32" fill="#D4CA3A">
              <path d="M-4.85,-0.05 L 4.85 -0.05 4.85 0.05 -4.85 0.05 z" class="primitive"/>
            </g>
            <g transform="translate(55.48,127.18)" id="img-6975b0c4-33" fill="#D4CA3A">
              <path d="M-4.85,-0.55 L 4.85 -0.55 4.85 0.55 -4.85 0.55 z" class="primitive"/>
            </g>
            <g transform="translate(74.84,125.12)" id="img-6975b0c4-34" fill="#D4CA3A">
              <path d="M-4.85,-2.61 L 4.85 -2.61 4.85 2.61 -4.85 2.61 z" class="primitive"/>
            </g>
            <g transform="translate(94.2,122.62)" id="img-6975b0c4-35" fill="#D4CA3A">
              <path d="M-4.85,-5.11 L 4.85 -5.11 4.85 5.11 -4.85 5.11 z" class="primitive"/>
            </g>
            <g transform="translate(113.55,116.79)" id="img-6975b0c4-36" fill="#D4CA3A">
              <path d="M-4.85,-10.94 L 4.85 -10.94 4.85 10.94 -4.85 10.94 z" class="primitive"/>
            </g>
            <g transform="translate(132.91,111.29)" id="img-6975b0c4-37" fill="#D4CA3A">
              <path d="M-4.85,-16.44 L 4.85 -16.44 4.85 16.44 -4.85 16.44 z" class="primitive"/>
            </g>
            <g transform="translate(152.27,109.3)" id="img-6975b0c4-38" fill="#D4CA3A">
              <path d="M-4.85,-18.43 L 4.85 -18.43 4.85 18.43 -4.85 18.43 z" class="primitive"/>
            </g>
            <g transform="translate(171.63,101.48)" id="img-6975b0c4-39" fill="#D4CA3A">
              <path d="M-4.85,-26.25 L 4.85 -26.25 4.85 26.25 -4.85 26.25 z" class="primitive"/>
            </g>
            <g transform="translate(190.98,98.08)" id="img-6975b0c4-40" fill="#D4CA3A">
              <path d="M-4.85,-29.65 L 4.85 -29.65 4.85 29.65 -4.85 29.65 z" class="primitive"/>
            </g>
            <g transform="translate(210.34,89.86)" id="img-6975b0c4-41" fill="#D4CA3A">
              <path d="M-4.85,-37.87 L 4.85 -37.87 4.85 37.87 -4.85 37.87 z" class="primitive"/>
            </g>
            <g transform="translate(229.7,86.8)" id="img-6975b0c4-42" fill="#D4CA3A">
              <path d="M-4.85,-40.93 L 4.85 -40.93 4.85 40.93 -4.85 40.93 z" class="primitive"/>
            </g>
            <g transform="translate(249.06,80.77)" id="img-6975b0c4-43" fill="#D4CA3A">
              <path d="M-4.85,-46.96 L 4.85 -46.96 4.85 46.96 -4.85 46.96 z" class="primitive"/>
            </g>
            <g transform="translate(45.8,127.66)" id="img-6975b0c4-44" fill="#00BFFF">
              <path d="M-4.85,-0.07 L 4.85 -0.07 4.85 0.07 -4.85 0.07 z" class="primitive"/>
            </g>
            <g transform="translate(65.16,127.2)" id="img-6975b0c4-45" fill="#00BFFF">
              <path d="M-4.85,-0.53 L 4.85 -0.53 4.85 0.53 -4.85 0.53 z" class="primitive"/>
            </g>
            <g transform="translate(84.52,124.73)" id="img-6975b0c4-46" fill="#00BFFF">
              <path d="M-4.85,-3 L 4.85 -3 4.85 3 -4.85 3 z" class="primitive"/>
            </g>
            <g transform="translate(103.87,122.87)" id="img-6975b0c4-47" fill="#00BFFF">
              <path d="M-4.85,-4.86 L 4.85 -4.86 4.85 4.86 -4.85 4.86 z" class="primitive"/>
            </g>
            <g transform="translate(123.23,117.35)" id="img-6975b0c4-48" fill="#00BFFF">
              <path d="M-4.85,-10.38 L 4.85 -10.38 4.85 10.38 -4.85 10.38 z" class="primitive"/>
            </g>
            <g transform="translate(142.59,117.14)" id="img-6975b0c4-49" fill="#00BFFF">
              <path d="M-4.85,-10.59 L 4.85 -10.59 4.85 10.59 -4.85 10.59 z" class="primitive"/>
            </g>
            <g transform="translate(161.95,108.14)" id="img-6975b0c4-50" fill="#00BFFF">
              <path d="M-4.85,-19.59 L 4.85 -19.59 4.85 19.59 -4.85 19.59 z" class="primitive"/>
            </g>
            <g transform="translate(181.3,101.32)" id="img-6975b0c4-51" fill="#00BFFF">
              <path d="M-4.85,-26.41 L 4.85 -26.41 4.85 26.41 -4.85 26.41 z" class="primitive"/>
            </g>
            <g transform="translate(200.66,95.32)" id="img-6975b0c4-52" fill="#00BFFF">
              <path d="M-4.85,-32.41 L 4.85 -32.41 4.85 32.41 -4.85 32.41 z" class="primitive"/>
            </g>
            <g transform="translate(220.02,90.12)" id="img-6975b0c4-53" fill="#00BFFF">
              <path d="M-4.85,-37.61 L 4.85 -37.61 4.85 37.61 -4.85 37.61 z" class="primitive"/>
            </g>
            <g transform="translate(239.38,84.67)" id="img-6975b0c4-54" fill="#00BFFF">
              <path d="M-4.85,-43.06 L 4.85 -43.06 4.85 43.06 -4.85 43.06 z" class="primitive"/>
            </g>
            <g transform="translate(258.73,78.25)" id="img-6975b0c4-55" fill="#00BFFF">
              <path d="M-4.85,-49.48 L 4.85 -49.48 4.85 49.48 -4.85 49.48 z" class="primitive"/>
            </g>
          </g>
        </g>
      </g>
    </g>
  </g>
  <g class="guide ylabels" font-size="2.82" font-family="'PT Sans Caption','Helvetica Neue','Helvetica',sans-serif" fill="#6C606B" id="img-6975b0c4-56">
    <g transform="translate(18.62,127.73)" id="img-6975b0c4-57">
      <g class="primitive">
        <text text-anchor="end" dy="0.35em">0.0</text>
      </g>
    </g>
    <g transform="translate(18.62,97.55)" id="img-6975b0c4-58">
      <g class="primitive">
        <text text-anchor="end" dy="0.35em">0.5</text>
      </g>
    </g>
    <g transform="translate(18.62,67.37)" id="img-6975b0c4-59">
      <g class="primitive">
        <text text-anchor="end" dy="0.35em">1.0</text>
      </g>
    </g>
    <g transform="translate(18.62,37.18)" id="img-6975b0c4-60">
      <g class="primitive">
        <text text-anchor="end" dy="0.35em">1.5</text>
      </g>
    </g>
    <g transform="translate(18.62,7)" id="img-6975b0c4-61">
      <g class="primitive">
        <text text-anchor="end" dy="0.35em">2.0</text>
      </g>
    </g>
  </g>
  <g font-size="4.94" font-family="'PT Sans','Helvetica Neue','Helvetica',sans-serif" fill="#564A55" stroke="#000000" stroke-opacity="0.000" id="img-6975b0c4-62">
    <g transform="translate(9.3,65.37)" id="img-6975b0c4-63">
      <g class="primitive">
        <text text-anchor="middle" dy="0.35em" transform="rotate(-90,0, 2)">value</text>
      </g>
    </g>
  </g>
</g>
<defs>
  <clipPath id="img-6975b0c4-13">
    <path d="M19.62,5 L 281.72 5 281.72 129.73 19.62 129.73" />
  </clipPath>
</defs>
</svg>
