<?xml version="1.0" encoding="UTF-8"?>
<svg xmlns="http://www.w3.org/2000/svg"
     xmlns:xlink="http://www.w3.org/1999/xlink"
     xmlns:gadfly="http://www.gadflyjl.org/ns"
     version="1.2"
     width="300mm" height="150mm" viewBox="0 0 300 150"
     stroke="none"
     fill="#000000"
     stroke-width="0.3"
     font-size="3.88"
>
<defs>
  <marker id="arrow" markerWidth="15" markerHeight="7" refX="5" refY="3.5" orient="auto" markerUnits="strokeWidth">
    <path d="M0,0 L15,3.5 L0,7 z" stroke="context-stroke" fill="context-stroke"/>
  </marker>
</defs>
<g stroke="#000000" stroke-opacity="0.000" fill="#FFFFFF" id="img-6f66a7e0-1">
  <g transform="translate(150,75)">
    <path d="M-150,-75 L 150 -75 150 75 -150 75 z" class="primitive"/>
  </g>
</g>
<g class="plotroot xscalable yscalable" id="img-6f66a7e0-2">
  <g class="guide xlabels" font-size="5.64" font-family="'PT Sans Caption','Helvetica Neue','Helvetica',sans-serif" fill="#6C606B" id="img-6f66a7e0-3">
    <g transform="translate(17.04,138.65)">
      <g class="primitive">
        <text text-anchor="middle" dy="0.6em">0</text>
      </g>
    </g>
    <g transform="translate(86.03,138.65)">
      <g class="primitive">
        <text text-anchor="middle" dy="0.6em">10</text>
      </g>
    </g>
    <g transform="translate(155.02,138.65)">
      <g class="primitive">
        <text text-anchor="middle" dy="0.6em">20</text>
      </g>
    </g>
    <g transform="translate(224.01,138.65)">
      <g class="primitive">
        <text text-anchor="middle" dy="0.6em">30</text>
      </g>
    </g>
    <g transform="translate(293,138.65)">
      <g class="primitive">
        <text text-anchor="middle" dy="0.6em">40</text>
      </g>
    </g>
  </g>
  <g clip-path="url(#img-6f66a7e0-4)">
    <g id="img-6f66a7e0-5">
      <g pointer-events="visible" fill="#000000" fill-opacity="0.000" stroke="#000000" class="guide background" id="img-6f66a7e0-6">
        <g transform="translate(155.02,76.27)" id="img-6f66a7e0-7">
          <path d="M-139.98,-61.39 L 139.98 -61.39 139.98 61.39 -139.98 61.39 z" class="primitive"/>
        </g>
      </g>
      <g class="guide ygridlines xfixed" stroke-dasharray="0.5,0.5" stroke-width="0.2" stroke="#D0D0E0" id="img-6f66a7e0-8">
        <g transform="translate(155.02,135.65)" id="img-6f66a7e0-9">
          <path fill="none" d="M-139.98,0 L 139.98 0" class="primitive"/>
        </g>
        <g transform="translate(155.02,96.06)" id="img-6f66a7e0-10">
          <path fill="none" d="M-139.98,0 L 139.98 0" class="primitive"/>
        </g>
        <g transform="translate(155.02,56.47)" id="img-6f66a7e0-11">
          <path fill="none" d="M-139.98,0 L 139.98 0" class="primitive"/>
        </g>
        <g transform="translate(155.02,16.88)" id="img-6f66a7e0-12">
          <path fill="none" d="M-139.98,0 L 139.98 0" class="primitive"/>
        </g>
      </g>
      <g class="guide xgridlines yfixed" stroke-dasharray="0.5,0.5" stroke-width="0.2" stroke="#D0D0E0" id="img-6f66a7e0-13">
        <g transform="translate(17.04,76.27)" id="img-6f66a7e0-14">
          <path fill="none" d="M0,-61.39 L 0 61.39" class="primitive"/>
        </g>
        <g transform="translate(86.03,76.27)" id="img-6f66a7e0-15">
          <path fill="none" d="M0,-61.39 L 0 61.39" class="primitive"/>
        </g>
        <g transform="translate(155.02,76.27)" id="img-6f66a7e0-16">
          <path fill="none" d="M0,-61.39 L 0 61.39" class="primitive"/>
        </g>
        <g transform="translate(224.01,76.27)" id="img-6f66a7e0-17">
          <path fill="none" d="M0,-61.39 L 0 61.39" class="primitive"/>
        </g>
        <g transform="translate(293,76.27)" id="img-6f66a7e0-18">
          <path fill="none" d="M0,-61.39 L 0 61.39" class="primitive"/>
        </g>
      </g>
      <g class="plotpanel" id="img-6f66a7e0-19">
        <metadata>
          <boundingbox value="15.04000000000002mm 14.879999999999995mm 279.96mm 122.77333333333334mm"/>
          <unitbox value="-0.28989708653428037 1.5252581948810058 40.579794173068564 -1.5505163897620116"/>
        </metadata>
        <g shape-rendering="crispEdges" stroke-width="0.3" id="img-6f66a7e0-20">
          <g stroke="#000000" stroke-opacity="0.000" class="geometry" id="img-6f66a7e0-21">
            <g transform="translate(32.55,95.22)" id="img-6f66a7e0-22" fill="#00BFFF">
              <path d="M-5.19,-40.43 L 5.19 -40.43 5.19 40.43 -5.19 40.43 z" class="primitive"/>
            </g>
            <g transform="translate(53.25,99.24)" id="img-6f66a7e0-23" fill="#00BFFF">
              <path d="M-5.19,-36.41 L 5.19 -36.41 5.19 36.41 -5.19 36.41 z" class="primitive"/>
            </g>
            <g transform="translate(73.94,96.07)" id="img-6f66a7e0-24" fill="#00BFFF">
              <path d="M-5.19,-39.59 L 5.19 -39.59 5.19 39.59 -5.19 39.59 z" class="primitive"/>
            </g>
            <g transform="translate(94.64,97.39)" id="img-6f66a7e0-25" fill="#00BFFF">
              <path d="M-5.19,-38.26 L 5.19 -38.26 5.19 38.26 -5.19 38.26 z" class="primitive"/>
            </g>
            <g transform="translate(115.34,98.31)" id="img-6f66a7e0-26" fill="#00BFFF">
              <path d="M-5.19,-37.34 L 5.19 -37.34 5.19 37.34 -5.19 37.34 z" class="primitive"/>
            </g>
            <g transform="translate(136.04,96.38)" id="img-6f66a7e0-27" fill="#00BFFF">
              <path d="M-5.19,-39.27 L 5.19 -39.27 5.19 39.27 -5.19 39.27 z" class="primitive"/>
            </g>
            <g transform="translate(156.73,93.68)" id="img-6f66a7e0-28" fill="#00BFFF">
              <path d="M-5.19,-41.98 L 5.19 -41.98 5.19 41.98 -5.19 41.98 z" class="primitive"/>
            </g>
            <g transform="translate(177.43,92.1)" id="img-6f66a7e0-29" fill="#00BFFF">
              <path d="M-5.19,-43.55 L 5.19 -43.55 5.19 43.55 -5.19 43.55 z" class="primitive"/>
            </g>
            <g transform="translate(198.13,91.98)" id="img-6f66a7e0-30" fill="#00BFFF">
              <path d="M-5.19,-43.67 L 5.19 -43.67 5.19 43.67 -5.19 43.67 z" class="primitive"/>
            </g>
            <g transform="translate(218.82,93.55)" id="img-6f66a7e0-31" fill="#00BFFF">
              <path d="M-5.19,-42.11 L 5.19 -42.11 5.19 42.11 -5.19 42.11 z" class="primitive"/>
            </g>
            <g transform="translate(239.52,86.82)" id="img-6f66a7e0-32" fill="#00BFFF">
              <path d="M-5.19,-48.83 L 5.19 -48.83 5.19 48.83 -5.19 48.83 z" class="primitive"/>
            </g>
            <g transform="translate(260.22,86.95)" id="img-6f66a7e0-33" fill="#00BFFF">
              <path d="M-5.19,-48.7 L 5.19 -48.7 5.19 48.7 -5.19 48.7 z" class="primitive"/>
            </g>
            <g transform="translate(42.9,96.4)" id="img-6f66a7e0-34" fill="#D4CA3A">
              <path d="M-5.19,-39.25 L 5.19 -39.25 5.19 39.25 -5.19 39.25 z" class="primitive"/>
            </g>
            <g transform="translate(63.6,94.9)" id="img-6f66a7e0-35" fill="#D4CA3A">
              <path d="M-5.19,-40.75 L 5.19 -40.75 5.19 40.75 -5.19 40.75 z" class="primitive"/>
            </g>
            <g transform="translate(84.29,97.92)" id="img-6f66a7e0-36" fill="#D4CA3A">
              <path d="M-5.19,-37.73 L 5.19 -37.73 5.19 37.73 -5.19 37.73 z" class="primitive"/>
            </g>
            <g transform="translate(104.99,95.59)" id="img-6f66a7e0-37" fill="#D4CA3A">
              <path d="M-5.19,-40.07 L 5.19 -40.07 5.19 40.07 -5.19 40.07 z" class="primitive"/>
            </g>
            <g transform="translate(125.69,97.99)" id="img-6f66a7e0-38" fill="#D4CA3A">
              <path d="M-5.19,-37.66 L 5.19 -37.66 5.19 37.66 -5.19 37.66 z" class="primitive"/>
            </g>
            <g transform="translate(146.38,91.45)" id="img-6f66a7e0-39" fill="#D4CA3A">
              <path d="M-5.19,-44.21 L 5.19 -44.21 5.19 44.21 -5.19 44.21 z" class="primitive"/>
            </g>
            <g transform="translate(167.08,92.3)" id="img-6f66a7e0-40" fill="#D4CA3A">
              <path d="M-5.19,-43.35 L 5.19 -43.35 5.19 43.35 -5.19 43.35 z" class="primitive"/>
            </g>
            <g transform="translate(187.78,92.51)" id="img-6f66a7e0-41" fill="#D4CA3A">
              <path d="M-5.19,-43.14 L 5.19 -43.14 5.19 43.14 -5.19 43.14 z" class="primitive"/>
            </g>
            <g transform="translate(208.47,92.25)" id="img-6f66a7e0-42" fill="#D4CA3A">
              <path d="M-5.19,-43.4 L 5.19 -43.4 5.19 43.4 -5.19 43.4 z" class="primitive"/>
            </g>
            <g transform="translate(229.17,92.3)" id="img-6f66a7e0-43" fill="#D4CA3A">
              <path d="M-5.19,-43.35 L 5.19 -43.35 5.19 43.35 -5.19 43.35 z" class="primitive"/>
            </g>
            <g transform="translate(249.87,87.93)" id="img-6f66a7e0-44" fill="#D4CA3A">
              <path d="M-5.19,-47.72 L 5.19 -47.72 5.19 47.72 -5.19 47.72 z" class="primitive"/>
            </g>
            <g transform="translate(270.57,87.59)" id="img-6f66a7e0-45" fill="#D4CA3A">
              <path d="M-5.19,-48.07 L 5.19 -48.07 5.19 48.07 -5.19 48.07 z" class="primitive"/>
            </g>
          </g>
        </g>
      </g>
    </g>
  </g>
  <g class="guide ylabels" font-size="5.64" font-family="'PT Sans Caption','Helvetica Neue','Helvetica',sans-serif" fill="#6C606B" id="img-6f66a7e0-46">
    <g transform="translate(14.04,135.65)" id="img-6f66a7e0-47">
      <g class="primitive">
        <text text-anchor="end" dy="0.35em">0.0</text>
      </g>
    </g>
    <g transform="translate(14.04,96.06)" id="img-6f66a7e0-48">
      <g class="primitive">
        <text text-anchor="end" dy="0.35em">0.5</text>
      </g>
    </g>
    <g transform="translate(14.04,56.47)" id="img-6f66a7e0-49">
      <g class="primitive">
        <text text-anchor="end" dy="0.35em">1.0</text>
      </g>
    </g>
    <g transform="translate(14.04,16.88)" id="img-6f66a7e0-50">
      <g class="primitive">
        <text text-anchor="end" dy="0.35em">1.5</text>
      </g>
    </g>
  </g>
  <g font-size="8.47" font-family="'PT Sans','Helvetica Neue','Helvetica',sans-serif" fill="#564A55" stroke="#000000" stroke-opacity="0.000" id="img-6f66a7e0-51">
    <g transform="translate(155.02,5)" id="img-6f66a7e0-52">
      <g class="primitive">
        <text text-anchor="middle" dy="0.6em">MSE - n = 1000</text>
      </g>
    </g>
  </g>
</g>
<defs>
  <clipPath id="img-6f66a7e0-4">
    <path d="M15.04,14.88 L 295 14.88 295 137.65 15.04 137.65" />
  </clipPath>
</defs>
</svg>
