<?xml version="1.0" encoding="UTF-8"?>
<svg xmlns="http://www.w3.org/2000/svg"
     xmlns:xlink="http://www.w3.org/1999/xlink"
     xmlns:gadfly="http://www.gadflyjl.org/ns"
     version="1.2"
     width="141.42mm" height="100mm" viewBox="0 0 141.42 100"
     stroke="none"
     fill="#000000"
     stroke-width="0.3"
     font-size="3.88"
>
<defs>
  <marker id="arrow" markerWidth="15" markerHeight="7" refX="5" refY="3.5" orient="auto" markerUnits="strokeWidth">
    <path d="M0,0 L15,3.5 L0,7 z" stroke="context-stroke" fill="context-stroke"/>
  </marker>
</defs>
<g class="plotroot xscalable yscalable" id="img-d3cf0373-1">
  <g font-size="3.88" font-family="'PT Sans','Helvetica Neue','Helvetica',sans-serif" fill="#564A55" stroke="#000000" stroke-opacity="0.000" id="img-d3cf0373-2">
    <g transform="translate(70.89,88.39)">
      <g class="primitive">
        <text text-anchor="middle" dy="0.6em">dz</text>
      </g>
    </g>
  </g>
  <g class="guide xlabels" font-size="2.82" font-family="'PT Sans Caption','Helvetica Neue','Helvetica',sans-serif" fill="#6C606B" id="img-d3cf0373-3">
    <g transform="translate(20.63,81.72)">
      <g class="primitive">
        <text text-anchor="middle" dy="0.6em">0</text>
      </g>
    </g>
    <g transform="translate(45.76,81.72)">
      <g class="primitive">
        <text text-anchor="middle" dy="0.6em">10</text>
      </g>
    </g>
    <g transform="translate(70.89,81.72)">
      <g class="primitive">
        <text text-anchor="middle" dy="0.6em">20</text>
      </g>
    </g>
    <g transform="translate(96.01,81.72)">
      <g class="primitive">
        <text text-anchor="middle" dy="0.6em">30</text>
      </g>
    </g>
    <g transform="translate(121.14,81.72)">
      <g class="primitive">
        <text text-anchor="middle" dy="0.6em">40</text>
      </g>
    </g>
  </g>
  <g class="guide colorkey" id="img-d3cf0373-4">
    <g fill="#4C404B" font-size="2.82" font-family="'PT Sans','Helvetica Neue','Helvetica',sans-serif" id="img-d3cf0373-5">
      <g transform="translate(126.95,42.86)" id="img-d3cf0373-6" class="color_SBias">
        <g class="primitive">
          <text dy="0.35em">SBias</text>
        </g>
      </g>
      <g transform="translate(126.95,46.48)" id="img-d3cf0373-7" class="color_SBias2">
        <g class="primitive">
          <text dy="0.35em">SBias2</text>
        </g>
      </g>
    </g>
    <g stroke="#000000" stroke-opacity="0.000" id="img-d3cf0373-8">
      <g transform="translate(125.05,42.86)" id="img-d3cf0373-9" fill="#00BFFF" class="color_SBias">
        <path d="M-0.91,-0.91 L 0.91 -0.91 0.91 0.91 -0.91 0.91 z" class="primitive"/>
      </g>
      <g transform="translate(125.05,46.48)" id="img-d3cf0373-10" fill="#D4CA3A" class="color_SBias2">
        <path d="M-0.91,-0.91 L 0.91 -0.91 0.91 0.91 -0.91 0.91 z" class="primitive"/>
      </g>
    </g>
    <g fill="#362A35" font-size="3.88" font-family="'PT Sans','Helvetica Neue','Helvetica',sans-serif" stroke="#000000" stroke-opacity="0.000" id="img-d3cf0373-11">
      <g transform="translate(124.14,39.04)" id="img-d3cf0373-12">
        <g class="primitive">
          <text dy="-0em">variable</text>
        </g>
      </g>
    </g>
  </g>
  <g clip-path="url(#img-d3cf0373-13)">
    <g id="img-d3cf0373-14">
      <g pointer-events="visible" fill="#000000" fill-opacity="0.000" stroke="#000000" stroke-opacity="0.000" class="guide background" id="img-d3cf0373-15">
        <g transform="translate(70.89,42.86)" id="img-d3cf0373-16">
          <path d="M-52.25,-37.86 L 52.25 -37.86 52.25 37.86 -52.25 37.86 z" class="primitive"/>
        </g>
      </g>
      <g class="guide ygridlines xfixed" stroke-dasharray="0.5,0.5" stroke-width="0.2" stroke="#D0D0E0" id="img-d3cf0373-17">
        <g transform="translate(70.89,78.71)" id="img-d3cf0373-18">
          <path fill="none" d="M-52.25,0 L 52.25 0" class="primitive"/>
        </g>
        <g transform="translate(70.89,60.79)" id="img-d3cf0373-19">
          <path fill="none" d="M-52.25,0 L 52.25 0" class="primitive"/>
        </g>
        <g transform="translate(70.89,42.86)" id="img-d3cf0373-20">
          <path fill="none" d="M-52.25,0 L 52.25 0" class="primitive"/>
        </g>
        <g transform="translate(70.89,24.93)" id="img-d3cf0373-21">
          <path fill="none" d="M-52.25,0 L 52.25 0" class="primitive"/>
        </g>
        <g transform="translate(70.89,7)" id="img-d3cf0373-22">
          <path fill="none" d="M-52.25,0 L 52.25 0" class="primitive"/>
        </g>
      </g>
      <g class="guide xgridlines yfixed" stroke-dasharray="0.5,0.5" stroke-width="0.2" stroke="#D0D0E0" id="img-d3cf0373-23">
        <g transform="translate(20.63,42.86)" id="img-d3cf0373-24">
          <path fill="none" d="M0,-37.86 L 0 37.86" class="primitive"/>
        </g>
        <g transform="translate(45.76,42.86)" id="img-d3cf0373-25">
          <path fill="none" d="M0,-37.86 L 0 37.86" class="primitive"/>
        </g>
        <g transform="translate(70.89,42.86)" id="img-d3cf0373-26">
          <path fill="none" d="M0,-37.86 L 0 37.86" class="primitive"/>
        </g>
        <g transform="translate(96.01,42.86)" id="img-d3cf0373-27">
          <path fill="none" d="M0,-37.86 L 0 37.86" class="primitive"/>
        </g>
        <g transform="translate(121.14,42.86)" id="img-d3cf0373-28">
          <path fill="none" d="M0,-37.86 L 0 37.86" class="primitive"/>
        </g>
      </g>
      <g class="plotpanel" id="img-d3cf0373-29">
        <metadata>
          <boundingbox value="18.63166666666666mm 5.0mm 104.50718957064284mm 75.715mm"/>
          <unitbox value="-0.7959629588863484 2.0557763368890747 41.5919259177727 -2.11155267377815"/>
        </metadata>
        <g shape-rendering="crispEdges" stroke-width="0.3" id="img-d3cf0373-30">
          <g stroke="#000000" stroke-opacity="0.000" class="geometry" id="img-d3cf0373-31">
            <g transform="translate(26.27,78.69)" id="img-d3cf0373-32" fill="#D4CA3A">
              <path d="M-1.9,-0.03 L 1.9 -0.03 1.9 0.03 -1.9 0.03 z" class="primitive"/>
            </g>
            <g transform="translate(33.81,78.39)" id="img-d3cf0373-33" fill="#D4CA3A">
              <path d="M-1.9,-0.33 L 1.9 -0.33 1.9 0.33 -1.9 0.33 z" class="primitive"/>
            </g>
            <g transform="translate(41.35,77.17)" id="img-d3cf0373-34" fill="#D4CA3A">
              <path d="M-1.9,-1.55 L 1.9 -1.55 1.9 1.55 -1.9 1.55 z" class="primitive"/>
            </g>
            <g transform="translate(48.89,75.68)" id="img-d3cf0373-35" fill="#D4CA3A">
              <path d="M-1.9,-3.03 L 1.9 -3.03 1.9 3.03 -1.9 3.03 z" class="primitive"/>
            </g>
            <g transform="translate(56.42,72.22)" id="img-d3cf0373-36" fill="#D4CA3A">
              <path d="M-1.9,-6.5 L 1.9 -6.5 1.9 6.5 -1.9 6.5 z" class="primitive"/>
            </g>
            <g transform="translate(63.96,68.95)" id="img-d3cf0373-37" fill="#D4CA3A">
              <path d="M-1.9,-9.77 L 1.9 -9.77 1.9 9.77 -1.9 9.77 z" class="primitive"/>
            </g>
            <g transform="translate(71.5,67.77)" id="img-d3cf0373-38" fill="#D4CA3A">
              <path d="M-1.9,-10.95 L 1.9 -10.95 1.9 10.95 -1.9 10.95 z" class="primitive"/>
            </g>
            <g transform="translate(79.04,63.12)" id="img-d3cf0373-39" fill="#D4CA3A">
              <path d="M-1.9,-15.59 L 1.9 -15.59 1.9 15.59 -1.9 15.59 z" class="primitive"/>
            </g>
            <g transform="translate(86.58,61.11)" id="img-d3cf0373-40" fill="#D4CA3A">
              <path d="M-1.9,-17.61 L 1.9 -17.61 1.9 17.61 -1.9 17.61 z" class="primitive"/>
            </g>
            <g transform="translate(94.12,56.22)" id="img-d3cf0373-41" fill="#D4CA3A">
              <path d="M-1.9,-22.5 L 1.9 -22.5 1.9 22.5 -1.9 22.5 z" class="primitive"/>
            </g>
            <g transform="translate(101.65,54.4)" id="img-d3cf0373-42" fill="#D4CA3A">
              <path d="M-1.9,-24.31 L 1.9 -24.31 1.9 24.31 -1.9 24.31 z" class="primitive"/>
            </g>
            <g transform="translate(109.19,50.82)" id="img-d3cf0373-43" fill="#D4CA3A">
              <path d="M-1.9,-27.89 L 1.9 -27.89 1.9 27.89 -1.9 27.89 z" class="primitive"/>
            </g>
            <g transform="translate(30.04,78.67)" id="img-d3cf0373-44" fill="#00BFFF">
              <path d="M-1.9,-0.04 L 1.9 -0.04 1.9 0.04 -1.9 0.04 z" class="primitive"/>
            </g>
            <g transform="translate(37.58,78.4)" id="img-d3cf0373-45" fill="#00BFFF">
              <path d="M-1.9,-0.32 L 1.9 -0.32 1.9 0.32 -1.9 0.32 z" class="primitive"/>
            </g>
            <g transform="translate(45.12,76.93)" id="img-d3cf0373-46" fill="#00BFFF">
              <path d="M-1.9,-1.78 L 1.9 -1.78 1.9 1.78 -1.9 1.78 z" class="primitive"/>
            </g>
            <g transform="translate(52.66,75.83)" id="img-d3cf0373-47" fill="#00BFFF">
              <path d="M-1.9,-2.88 L 1.9 -2.88 1.9 2.88 -1.9 2.88 z" class="primitive"/>
            </g>
            <g transform="translate(60.19,72.55)" id="img-d3cf0373-48" fill="#00BFFF">
              <path d="M-1.9,-6.17 L 1.9 -6.17 1.9 6.17 -1.9 6.17 z" class="primitive"/>
            </g>
            <g transform="translate(67.73,72.43)" id="img-d3cf0373-49" fill="#00BFFF">
              <path d="M-1.9,-6.29 L 1.9 -6.29 1.9 6.29 -1.9 6.29 z" class="primitive"/>
            </g>
            <g transform="translate(75.27,67.08)" id="img-d3cf0373-50" fill="#00BFFF">
              <path d="M-1.9,-11.63 L 1.9 -11.63 1.9 11.63 -1.9 11.63 z" class="primitive"/>
            </g>
            <g transform="translate(82.81,63.02)" id="img-d3cf0373-51" fill="#00BFFF">
              <path d="M-1.9,-15.69 L 1.9 -15.69 1.9 15.69 -1.9 15.69 z" class="primitive"/>
            </g>
            <g transform="translate(90.35,59.46)" id="img-d3cf0373-52" fill="#00BFFF">
              <path d="M-1.9,-19.25 L 1.9 -19.25 1.9 19.25 -1.9 19.25 z" class="primitive"/>
            </g>
            <g transform="translate(97.88,56.38)" id="img-d3cf0373-53" fill="#00BFFF">
              <path d="M-1.9,-22.34 L 1.9 -22.34 1.9 22.34 -1.9 22.34 z" class="primitive"/>
            </g>
            <g transform="translate(105.42,53.14)" id="img-d3cf0373-54" fill="#00BFFF">
              <path d="M-1.9,-25.58 L 1.9 -25.58 1.9 25.58 -1.9 25.58 z" class="primitive"/>
            </g>
            <g transform="translate(112.96,49.32)" id="img-d3cf0373-55" fill="#00BFFF">
              <path d="M-1.9,-29.39 L 1.9 -29.39 1.9 29.39 -1.9 29.39 z" class="primitive"/>
            </g>
          </g>
        </g>
      </g>
    </g>
  </g>
  <g class="guide ylabels" font-size="2.82" font-family="'PT Sans Caption','Helvetica Neue','Helvetica',sans-serif" fill="#6C606B" id="img-d3cf0373-56">
    <g transform="translate(17.63,78.71)" id="img-d3cf0373-57">
      <g class="primitive">
        <text text-anchor="end" dy="0.35em">0.0</text>
      </g>
    </g>
    <g transform="translate(17.63,60.79)" id="img-d3cf0373-58">
      <g class="primitive">
        <text text-anchor="end" dy="0.35em">0.5</text>
      </g>
    </g>
    <g transform="translate(17.63,42.86)" id="img-d3cf0373-59">
      <g class="primitive">
        <text text-anchor="end" dy="0.35em">1.0</text>
      </g>
    </g>
    <g transform="translate(17.63,24.93)" id="img-d3cf0373-60">
      <g class="primitive">
        <text text-anchor="end" dy="0.35em">1.5</text>
      </g>
    </g>
    <g transform="translate(17.63,7)" id="img-d3cf0373-61">
      <g class="primitive">
        <text text-anchor="end" dy="0.35em">2.0</text>
      </g>
    </g>
  </g>
  <g font-size="3.88" font-family="'PT Sans','Helvetica Neue','Helvetica',sans-serif" fill="#564A55" stroke="#000000" stroke-opacity="0.000" id="img-d3cf0373-62">
    <g transform="translate(8.81,40.86)" id="img-d3cf0373-63">
      <g class="primitive">
        <text text-anchor="middle" dy="0.35em" transform="rotate(-90,0, 2)">value</text>
      </g>
    </g>
  </g>
</g>
<defs>
  <clipPath id="img-d3cf0373-13">
    <path d="M18.63,5 L 123.14 5 123.14 80.72 18.63 80.72" />
  </clipPath>
</defs>
</svg>
