<?xml version="1.0" encoding="UTF-8"?>
<svg xmlns="http://www.w3.org/2000/svg"
     xmlns:xlink="http://www.w3.org/1999/xlink"
     xmlns:gadfly="http://www.gadflyjl.org/ns"
     version="1.2"
     width="300mm" height="150mm" viewBox="0 0 300 150"
     stroke="none"
     fill="#000000"
     stroke-width="0.3"
     font-size="3.88"
>
<defs>
  <marker id="arrow" markerWidth="15" markerHeight="7" refX="5" refY="3.5" orient="auto" markerUnits="strokeWidth">
    <path d="M0,0 L15,3.5 L0,7 z" stroke="context-stroke" fill="context-stroke"/>
  </marker>
</defs>
<g stroke="#000000" stroke-opacity="0.000" fill="#FFFFFF" id="img-372291b9-1">
  <g transform="translate(150,75)">
    <path d="M-150,-75 L 150 -75 150 75 -150 75 z" class="primitive"/>
  </g>
</g>
<g class="plotroot xscalable yscalable" id="img-372291b9-2">
  <g font-size="8.47" font-family="'PT Sans','Helvetica Neue','Helvetica',sans-serif" fill="#564A55" stroke="#000000" stroke-opacity="0.000" id="img-372291b9-3">
    <g transform="translate(161.33,134.12)">
      <g class="primitive">
        <text text-anchor="middle" dy="0.6em">σ</text>
      </g>
    </g>
  </g>
  <g class="guide xlabels" font-size="4.94" font-family="'PT Sans Caption','Helvetica Neue','Helvetica',sans-serif" fill="#6C606B" id="img-372291b9-4">
    <g transform="translate(29.67,125.44)">
      <g class="primitive">
        <text text-anchor="middle" dy="0.6em">0.0</text>
      </g>
    </g>
    <g transform="translate(95.5,125.44)">
      <g class="primitive">
        <text text-anchor="middle" dy="0.6em">0.5</text>
      </g>
    </g>
    <g transform="translate(161.33,125.44)">
      <g class="primitive">
        <text text-anchor="middle" dy="0.6em">1.0</text>
      </g>
    </g>
    <g transform="translate(227.17,125.44)">
      <g class="primitive">
        <text text-anchor="middle" dy="0.6em">1.5</text>
      </g>
    </g>
    <g transform="translate(293,125.44)">
      <g class="primitive">
        <text text-anchor="middle" dy="0.6em">2.0</text>
      </g>
    </g>
  </g>
  <g clip-path="url(#img-372291b9-5)">
    <g id="img-372291b9-6">
      <g pointer-events="visible" fill="#000000" fill-opacity="0.000" stroke="#000000" class="guide background" id="img-372291b9-7">
        <g transform="translate(161.33,64.72)" id="img-372291b9-8">
          <path d="M-133.67,-59.72 L 133.67 -59.72 133.67 59.72 -133.67 59.72 z" class="primitive"/>
        </g>
      </g>
      <g class="guide ygridlines xfixed" stroke-dasharray="0.5,0.5" stroke-width="0.2" stroke="#D0D0E0" id="img-372291b9-9">
        <g transform="translate(161.33,122.44)" id="img-372291b9-10">
          <path fill="none" d="M-133.67,0 L 133.67 0" class="primitive"/>
        </g>
        <g transform="translate(161.33,83.96)" id="img-372291b9-11">
          <path fill="none" d="M-133.67,0 L 133.67 0" class="primitive"/>
        </g>
        <g transform="translate(161.33,45.48)" id="img-372291b9-12">
          <path fill="none" d="M-133.67,0 L 133.67 0" class="primitive"/>
        </g>
        <g transform="translate(161.33,7)" id="img-372291b9-13">
          <path fill="none" d="M-133.67,0 L 133.67 0" class="primitive"/>
        </g>
      </g>
      <g class="guide xgridlines yfixed" stroke-dasharray="0.5,0.5" stroke-width="0.2" stroke="#D0D0E0" id="img-372291b9-14">
        <g transform="translate(29.67,64.72)" id="img-372291b9-15">
          <path fill="none" d="M0,-59.72 L 0 59.72" class="primitive"/>
        </g>
        <g transform="translate(95.5,64.72)" id="img-372291b9-16">
          <path fill="none" d="M0,-59.72 L 0 59.72" class="primitive"/>
        </g>
        <g transform="translate(161.33,64.72)" id="img-372291b9-17">
          <path fill="none" d="M0,-59.72 L 0 59.72" class="primitive"/>
        </g>
        <g transform="translate(227.17,64.72)" id="img-372291b9-18">
          <path fill="none" d="M0,-59.72 L 0 59.72" class="primitive"/>
        </g>
        <g transform="translate(293,64.72)" id="img-372291b9-19">
          <path fill="none" d="M0,-59.72 L 0 59.72" class="primitive"/>
        </g>
      </g>
      <g class="plotpanel" id="img-372291b9-20">
        <metadata>
          <boundingbox value="27.66500000000002mm 5.0mm 267.335mm 119.44166666666666mm"/>
          <unitbox value="-0.015189777279890635 152.59871507976612 2.030379554559781 -155.19743015953225"/>
        </metadata>
        <g stroke-width="0.79" fill="#000000" fill-opacity="0.000" class="geometry" id="img-372291b9-21">
          <g transform="translate(167.92,63.6)" id="img-372291b9-22" stroke="#00BFFF" class="color_λ" stroke-dasharray="none">
            <path fill="none" d="M-125.08,15.35 L -111.92 35.79 -98.75 31.89 -85.58 27.52 -72.42 35.85 -59.25 36.78 -46.08 2.45 -32.92 3.43 -19.75 6.3 -6.58 0.36 6.58 -18.37 19.75 -13.32 32.92 -12.57 46.08 -20.55 59.25 -24.17 72.42 -23.17 85.58 -23.49 98.75 -25.58 111.92 -8.58 125.08 -25.9" class="primitive"/>
          </g>
          <g transform="translate(167.92,99.62)" id="img-372291b9-23" stroke="#D4CA3A" class="color_β" stroke-dasharray="none">
            <path fill="none" d="M-125.08,-12.58 L -111.92 15.25 -98.75 2.79 -85.58 12.1 -72.42 -3.4 -59.25 -2.14 -46.08 1.88 -32.92 12.03 -19.75 1.74 -6.58 2.1 6.58 12.92 19.75 4.49 32.92 -1.12 46.08 3.91 59.25 4.34 72.42 -1.25 85.58 -5.35 98.75 -6.85 111.92 -26.33 125.08 -14.54" class="primitive"/>
          </g>
        </g>
      </g>
    </g>
  </g>
  <g class="guide ylabels" font-size="4.94" font-family="'PT Sans Caption','Helvetica Neue','Helvetica',sans-serif" fill="#6C606B" id="img-372291b9-24">
    <g transform="translate(26.66,122.44)" id="img-372291b9-25">
      <g class="primitive">
        <text text-anchor="end" dy="0.35em">0</text>
      </g>
    </g>
    <g transform="translate(26.66,83.96)" id="img-372291b9-26">
      <g class="primitive">
        <text text-anchor="end" dy="0.35em">50</text>
      </g>
    </g>
    <g transform="translate(26.66,45.48)" id="img-372291b9-27">
      <g class="primitive">
        <text text-anchor="end" dy="0.35em">100</text>
      </g>
    </g>
    <g transform="translate(26.66,7)" id="img-372291b9-28">
      <g class="primitive">
        <text text-anchor="end" dy="0.35em">150</text>
      </g>
    </g>
  </g>
  <g font-size="8.47" font-family="'PT Sans','Helvetica Neue','Helvetica',sans-serif" fill="#564A55" stroke="#000000" stroke-opacity="0.000" id="img-372291b9-29">
    <g transform="translate(10.94,62.72)" id="img-372291b9-30">
      <g class="primitive">
        <text text-anchor="middle" dy="0.35em" transform="rotate(-90,0, 2)">SMSE</text>
      </g>
    </g>
  </g>
</g>
<defs>
  <clipPath id="img-372291b9-5">
    <path d="M27.67,5 L 295 5 295 124.44 27.67 124.44" />
  </clipPath>
</defs>
</svg>
