<?xml version="1.0" encoding="UTF-8"?>
<svg xmlns="http://www.w3.org/2000/svg"
     xmlns:xlink="http://www.w3.org/1999/xlink"
     xmlns:gadfly="http://www.gadflyjl.org/ns"
     version="1.2"
     width="300mm" height="150mm" viewBox="0 0 300 150"
     stroke="none"
     fill="#000000"
     stroke-width="0.3"
     font-size="3.88"
>
<defs>
  <marker id="arrow" markerWidth="15" markerHeight="7" refX="5" refY="3.5" orient="auto" markerUnits="strokeWidth">
    <path d="M0,0 L15,3.5 L0,7 z" stroke="context-stroke" fill="context-stroke"/>
  </marker>
</defs>
<g stroke="#000000" stroke-opacity="0.000" fill="#FFFFFF" id="img-364113b1-1">
  <g transform="translate(150,75)">
    <path d="M-150,-75 L 150 -75 150 75 -150 75 z" class="primitive"/>
  </g>
</g>
<g class="plotroot xscalable yscalable" id="img-364113b1-2">
  <g font-size="8.47" font-family="'PT Sans','Helvetica Neue','Helvetica',sans-serif" fill="#564A55" stroke="#000000" stroke-opacity="0.000" id="img-364113b1-3">
    <g transform="translate(166.46,134.12)">
      <g class="primitive">
        <text text-anchor="middle" dy="0.6em">θ</text>
      </g>
    </g>
  </g>
  <g class="guide xlabels" font-size="4.94" font-family="'PT Sans Caption','Helvetica Neue','Helvetica',sans-serif" fill="#6C606B" id="img-364113b1-4">
    <g transform="translate(39.92,123.08)">
      <g class="primitive">
        <text text-anchor="end" dy="0.35em" transform="rotate(-90,0, 0)">0.0</text>
      </g>
    </g>
    <g transform="translate(44.98,123.08)">
      <g class="primitive">
        <text text-anchor="end" dy="0.35em" transform="rotate(-90,0, 0)">0.1</text>
      </g>
    </g>
    <g transform="translate(50.04,123.08)">
      <g class="primitive">
        <text text-anchor="end" dy="0.35em" transform="rotate(-90,0, 0)">0.2</text>
      </g>
    </g>
    <g transform="translate(55.1,123.08)">
      <g class="primitive">
        <text text-anchor="end" dy="0.35em" transform="rotate(-90,0, 0)">0.3</text>
      </g>
    </g>
    <g transform="translate(60.17,123.08)">
      <g class="primitive">
        <text text-anchor="end" dy="0.35em" transform="rotate(-90,0, 0)">0.4</text>
      </g>
    </g>
    <g transform="translate(65.23,123.08)">
      <g class="primitive">
        <text text-anchor="end" dy="0.35em" transform="rotate(-90,0, 0)">0.5</text>
      </g>
    </g>
    <g transform="translate(70.29,123.08)">
      <g class="primitive">
        <text text-anchor="end" dy="0.35em" transform="rotate(-90,0, 0)">0.6</text>
      </g>
    </g>
    <g transform="translate(75.35,123.08)">
      <g class="primitive">
        <text text-anchor="end" dy="0.35em" transform="rotate(-90,0, 0)">0.7</text>
      </g>
    </g>
    <g transform="translate(80.41,123.08)">
      <g class="primitive">
        <text text-anchor="end" dy="0.35em" transform="rotate(-90,0, 0)">0.8</text>
      </g>
    </g>
    <g transform="translate(85.47,123.08)">
      <g class="primitive">
        <text text-anchor="end" dy="0.35em" transform="rotate(-90,0, 0)">0.9</text>
      </g>
    </g>
    <g transform="translate(90.54,123.08)">
      <g class="primitive">
        <text text-anchor="end" dy="0.35em" transform="rotate(-90,0, 0)">1.0</text>
      </g>
    </g>
    <g transform="translate(95.6,123.08)">
      <g class="primitive">
        <text text-anchor="end" dy="0.35em" transform="rotate(-90,0, 0)">1.1</text>
      </g>
    </g>
    <g transform="translate(100.66,123.08)">
      <g class="primitive">
        <text text-anchor="end" dy="0.35em" transform="rotate(-90,0, 0)">1.2</text>
      </g>
    </g>
    <g transform="translate(105.72,123.08)">
      <g class="primitive">
        <text text-anchor="end" dy="0.35em" transform="rotate(-90,0, 0)">1.3</text>
      </g>
    </g>
    <g transform="translate(110.78,123.08)">
      <g class="primitive">
        <text text-anchor="end" dy="0.35em" transform="rotate(-90,0, 0)">1.4</text>
      </g>
    </g>
    <g transform="translate(115.84,123.08)">
      <g class="primitive">
        <text text-anchor="end" dy="0.35em" transform="rotate(-90,0, 0)">1.5</text>
      </g>
    </g>
    <g transform="translate(120.91,123.08)">
      <g class="primitive">
        <text text-anchor="end" dy="0.35em" transform="rotate(-90,0, 0)">1.6</text>
      </g>
    </g>
    <g transform="translate(125.97,123.08)">
      <g class="primitive">
        <text text-anchor="end" dy="0.35em" transform="rotate(-90,0, 0)">1.7</text>
      </g>
    </g>
    <g transform="translate(131.03,123.08)">
      <g class="primitive">
        <text text-anchor="end" dy="0.35em" transform="rotate(-90,0, 0)">1.8</text>
      </g>
    </g>
    <g transform="translate(136.09,123.08)">
      <g class="primitive">
        <text text-anchor="end" dy="0.35em" transform="rotate(-90,0, 0)">1.9</text>
      </g>
    </g>
    <g transform="translate(141.15,123.08)">
      <g class="primitive">
        <text text-anchor="end" dy="0.35em" transform="rotate(-90,0, 0)">2.0</text>
      </g>
    </g>
    <g transform="translate(146.21,123.08)">
      <g class="primitive">
        <text text-anchor="end" dy="0.35em" transform="rotate(-90,0, 0)">2.1</text>
      </g>
    </g>
    <g transform="translate(151.28,123.08)">
      <g class="primitive">
        <text text-anchor="end" dy="0.35em" transform="rotate(-90,0, 0)">2.2</text>
      </g>
    </g>
    <g transform="translate(156.34,123.08)">
      <g class="primitive">
        <text text-anchor="end" dy="0.35em" transform="rotate(-90,0, 0)">2.3</text>
      </g>
    </g>
    <g transform="translate(161.4,123.08)">
      <g class="primitive">
        <text text-anchor="end" dy="0.35em" transform="rotate(-90,0, 0)">2.4</text>
      </g>
    </g>
    <g transform="translate(166.46,123.08)">
      <g class="primitive">
        <text text-anchor="end" dy="0.35em" transform="rotate(-90,0, 0)">2.5</text>
      </g>
    </g>
    <g transform="translate(171.52,123.08)">
      <g class="primitive">
        <text text-anchor="end" dy="0.35em" transform="rotate(-90,0, 0)">2.6</text>
      </g>
    </g>
    <g transform="translate(176.58,123.08)">
      <g class="primitive">
        <text text-anchor="end" dy="0.35em" transform="rotate(-90,0, 0)">2.7</text>
      </g>
    </g>
    <g transform="translate(181.64,123.08)">
      <g class="primitive">
        <text text-anchor="end" dy="0.35em" transform="rotate(-90,0, 0)">2.8</text>
      </g>
    </g>
    <g transform="translate(186.71,123.08)">
      <g class="primitive">
        <text text-anchor="end" dy="0.35em" transform="rotate(-90,0, 0)">2.9</text>
      </g>
    </g>
    <g transform="translate(191.77,123.08)">
      <g class="primitive">
        <text text-anchor="end" dy="0.35em" transform="rotate(-90,0, 0)">3.0</text>
      </g>
    </g>
    <g transform="translate(196.83,123.08)">
      <g class="primitive">
        <text text-anchor="end" dy="0.35em" transform="rotate(-90,0, 0)">3.1</text>
      </g>
    </g>
    <g transform="translate(201.89,123.08)">
      <g class="primitive">
        <text text-anchor="end" dy="0.35em" transform="rotate(-90,0, 0)">3.2</text>
      </g>
    </g>
    <g transform="translate(206.95,123.08)">
      <g class="primitive">
        <text text-anchor="end" dy="0.35em" transform="rotate(-90,0, 0)">3.3</text>
      </g>
    </g>
    <g transform="translate(212.01,123.08)">
      <g class="primitive">
        <text text-anchor="end" dy="0.35em" transform="rotate(-90,0, 0)">3.4</text>
      </g>
    </g>
    <g transform="translate(217.08,123.08)">
      <g class="primitive">
        <text text-anchor="end" dy="0.35em" transform="rotate(-90,0, 0)">3.5</text>
      </g>
    </g>
    <g transform="translate(222.14,123.08)">
      <g class="primitive">
        <text text-anchor="end" dy="0.35em" transform="rotate(-90,0, 0)">3.6</text>
      </g>
    </g>
    <g transform="translate(227.2,123.08)">
      <g class="primitive">
        <text text-anchor="end" dy="0.35em" transform="rotate(-90,0, 0)">3.7</text>
      </g>
    </g>
    <g transform="translate(232.26,123.08)">
      <g class="primitive">
        <text text-anchor="end" dy="0.35em" transform="rotate(-90,0, 0)">3.8</text>
      </g>
    </g>
    <g transform="translate(237.32,123.08)">
      <g class="primitive">
        <text text-anchor="end" dy="0.35em" transform="rotate(-90,0, 0)">3.9</text>
      </g>
    </g>
    <g transform="translate(242.38,123.08)">
      <g class="primitive">
        <text text-anchor="end" dy="0.35em" transform="rotate(-90,0, 0)">4.0</text>
      </g>
    </g>
    <g transform="translate(247.45,123.08)">
      <g class="primitive">
        <text text-anchor="end" dy="0.35em" transform="rotate(-90,0, 0)">4.1</text>
      </g>
    </g>
    <g transform="translate(252.51,123.08)">
      <g class="primitive">
        <text text-anchor="end" dy="0.35em" transform="rotate(-90,0, 0)">4.2</text>
      </g>
    </g>
    <g transform="translate(257.57,123.08)">
      <g class="primitive">
        <text text-anchor="end" dy="0.35em" transform="rotate(-90,0, 0)">4.3</text>
      </g>
    </g>
    <g transform="translate(262.63,123.08)">
      <g class="primitive">
        <text text-anchor="end" dy="0.35em" transform="rotate(-90,0, 0)">4.4</text>
      </g>
    </g>
    <g transform="translate(267.69,123.08)">
      <g class="primitive">
        <text text-anchor="end" dy="0.35em" transform="rotate(-90,0, 0)">4.5</text>
      </g>
    </g>
    <g transform="translate(272.75,123.08)">
      <g class="primitive">
        <text text-anchor="end" dy="0.35em" transform="rotate(-90,0, 0)">4.6</text>
      </g>
    </g>
    <g transform="translate(277.82,123.08)">
      <g class="primitive">
        <text text-anchor="end" dy="0.35em" transform="rotate(-90,0, 0)">4.7</text>
      </g>
    </g>
    <g transform="translate(282.88,123.08)">
      <g class="primitive">
        <text text-anchor="end" dy="0.35em" transform="rotate(-90,0, 0)">4.8</text>
      </g>
    </g>
    <g transform="translate(287.94,123.08)">
      <g class="primitive">
        <text text-anchor="end" dy="0.35em" transform="rotate(-90,0, 0)">4.9</text>
      </g>
    </g>
    <g transform="translate(293,123.08)">
      <g class="primitive">
        <text text-anchor="end" dy="0.35em" transform="rotate(-90,0, 0)">5.0</text>
      </g>
    </g>
  </g>
  <g clip-path="url(#img-364113b1-5)">
    <g id="img-364113b1-6">
      <g pointer-events="visible" fill="#000000" fill-opacity="0.000" stroke="#000000" class="guide background" id="img-364113b1-7">
        <g transform="translate(166.46,63.54)" id="img-364113b1-8">
          <path d="M-128.54,-58.54 L 128.54 -58.54 128.54 58.54 -128.54 58.54 z" class="primitive"/>
        </g>
      </g>
      <g class="guide ygridlines xfixed" stroke-dasharray="0.5,0.5" stroke-width="0.2" stroke="#D0D0E0" id="img-364113b1-9">
        <g transform="translate(166.46,120.08)" id="img-364113b1-10">
          <path fill="none" d="M-128.54,0 L 128.54 0" class="primitive"/>
        </g>
        <g transform="translate(166.46,91.81)" id="img-364113b1-11">
          <path fill="none" d="M-128.54,0 L 128.54 0" class="primitive"/>
        </g>
        <g transform="translate(166.46,63.54)" id="img-364113b1-12">
          <path fill="none" d="M-128.54,0 L 128.54 0" class="primitive"/>
        </g>
        <g transform="translate(166.46,35.27)" id="img-364113b1-13">
          <path fill="none" d="M-128.54,0 L 128.54 0" class="primitive"/>
        </g>
        <g transform="translate(166.46,7)" id="img-364113b1-14">
          <path fill="none" d="M-128.54,0 L 128.54 0" class="primitive"/>
        </g>
      </g>
      <g class="guide xgridlines yfixed" stroke-dasharray="0.5,0.5" stroke-width="0.2" stroke="#D0D0E0" id="img-364113b1-15">
        <g transform="translate(39.92,63.54)" id="img-364113b1-16">
          <path fill="none" d="M0,-58.54 L 0 58.54" class="primitive"/>
        </g>
        <g transform="translate(44.98,63.54)" id="img-364113b1-17">
          <path fill="none" d="M0,-58.54 L 0 58.54" class="primitive"/>
        </g>
        <g transform="translate(50.04,63.54)" id="img-364113b1-18">
          <path fill="none" d="M0,-58.54 L 0 58.54" class="primitive"/>
        </g>
        <g transform="translate(55.1,63.54)" id="img-364113b1-19">
          <path fill="none" d="M0,-58.54 L 0 58.54" class="primitive"/>
        </g>
        <g transform="translate(60.17,63.54)" id="img-364113b1-20">
          <path fill="none" d="M0,-58.54 L 0 58.54" class="primitive"/>
        </g>
        <g transform="translate(65.23,63.54)" id="img-364113b1-21">
          <path fill="none" d="M0,-58.54 L 0 58.54" class="primitive"/>
        </g>
        <g transform="translate(70.29,63.54)" id="img-364113b1-22">
          <path fill="none" d="M0,-58.54 L 0 58.54" class="primitive"/>
        </g>
        <g transform="translate(75.35,63.54)" id="img-364113b1-23">
          <path fill="none" d="M0,-58.54 L 0 58.54" class="primitive"/>
        </g>
        <g transform="translate(80.41,63.54)" id="img-364113b1-24">
          <path fill="none" d="M0,-58.54 L 0 58.54" class="primitive"/>
        </g>
        <g transform="translate(85.47,63.54)" id="img-364113b1-25">
          <path fill="none" d="M0,-58.54 L 0 58.54" class="primitive"/>
        </g>
        <g transform="translate(90.54,63.54)" id="img-364113b1-26">
          <path fill="none" d="M0,-58.54 L 0 58.54" class="primitive"/>
        </g>
        <g transform="translate(95.6,63.54)" id="img-364113b1-27">
          <path fill="none" d="M0,-58.54 L 0 58.54" class="primitive"/>
        </g>
        <g transform="translate(100.66,63.54)" id="img-364113b1-28">
          <path fill="none" d="M0,-58.54 L 0 58.54" class="primitive"/>
        </g>
        <g transform="translate(105.72,63.54)" id="img-364113b1-29">
          <path fill="none" d="M0,-58.54 L 0 58.54" class="primitive"/>
        </g>
        <g transform="translate(110.78,63.54)" id="img-364113b1-30">
          <path fill="none" d="M0,-58.54 L 0 58.54" class="primitive"/>
        </g>
        <g transform="translate(115.84,63.54)" id="img-364113b1-31">
          <path fill="none" d="M0,-58.54 L 0 58.54" class="primitive"/>
        </g>
        <g transform="translate(120.91,63.54)" id="img-364113b1-32">
          <path fill="none" d="M0,-58.54 L 0 58.54" class="primitive"/>
        </g>
        <g transform="translate(125.97,63.54)" id="img-364113b1-33">
          <path fill="none" d="M0,-58.54 L 0 58.54" class="primitive"/>
        </g>
        <g transform="translate(131.03,63.54)" id="img-364113b1-34">
          <path fill="none" d="M0,-58.54 L 0 58.54" class="primitive"/>
        </g>
        <g transform="translate(136.09,63.54)" id="img-364113b1-35">
          <path fill="none" d="M0,-58.54 L 0 58.54" class="primitive"/>
        </g>
        <g transform="translate(141.15,63.54)" id="img-364113b1-36">
          <path fill="none" d="M0,-58.54 L 0 58.54" class="primitive"/>
        </g>
        <g transform="translate(146.21,63.54)" id="img-364113b1-37">
          <path fill="none" d="M0,-58.54 L 0 58.54" class="primitive"/>
        </g>
        <g transform="translate(151.28,63.54)" id="img-364113b1-38">
          <path fill="none" d="M0,-58.54 L 0 58.54" class="primitive"/>
        </g>
        <g transform="translate(156.34,63.54)" id="img-364113b1-39">
          <path fill="none" d="M0,-58.54 L 0 58.54" class="primitive"/>
        </g>
        <g transform="translate(161.4,63.54)" id="img-364113b1-40">
          <path fill="none" d="M0,-58.54 L 0 58.54" class="primitive"/>
        </g>
        <g transform="translate(166.46,63.54)" id="img-364113b1-41">
          <path fill="none" d="M0,-58.54 L 0 58.54" class="primitive"/>
        </g>
        <g transform="translate(171.52,63.54)" id="img-364113b1-42">
          <path fill="none" d="M0,-58.54 L 0 58.54" class="primitive"/>
        </g>
        <g transform="translate(176.58,63.54)" id="img-364113b1-43">
          <path fill="none" d="M0,-58.54 L 0 58.54" class="primitive"/>
        </g>
        <g transform="translate(181.64,63.54)" id="img-364113b1-44">
          <path fill="none" d="M0,-58.54 L 0 58.54" class="primitive"/>
        </g>
        <g transform="translate(186.71,63.54)" id="img-364113b1-45">
          <path fill="none" d="M0,-58.54 L 0 58.54" class="primitive"/>
        </g>
        <g transform="translate(191.77,63.54)" id="img-364113b1-46">
          <path fill="none" d="M0,-58.54 L 0 58.54" class="primitive"/>
        </g>
        <g transform="translate(196.83,63.54)" id="img-364113b1-47">
          <path fill="none" d="M0,-58.54 L 0 58.54" class="primitive"/>
        </g>
        <g transform="translate(201.89,63.54)" id="img-364113b1-48">
          <path fill="none" d="M0,-58.54 L 0 58.54" class="primitive"/>
        </g>
        <g transform="translate(206.95,63.54)" id="img-364113b1-49">
          <path fill="none" d="M0,-58.54 L 0 58.54" class="primitive"/>
        </g>
        <g transform="translate(212.01,63.54)" id="img-364113b1-50">
          <path fill="none" d="M0,-58.54 L 0 58.54" class="primitive"/>
        </g>
        <g transform="translate(217.08,63.54)" id="img-364113b1-51">
          <path fill="none" d="M0,-58.54 L 0 58.54" class="primitive"/>
        </g>
        <g transform="translate(222.14,63.54)" id="img-364113b1-52">
          <path fill="none" d="M0,-58.54 L 0 58.54" class="primitive"/>
        </g>
        <g transform="translate(227.2,63.54)" id="img-364113b1-53">
          <path fill="none" d="M0,-58.54 L 0 58.54" class="primitive"/>
        </g>
        <g transform="translate(232.26,63.54)" id="img-364113b1-54">
          <path fill="none" d="M0,-58.54 L 0 58.54" class="primitive"/>
        </g>
        <g transform="translate(237.32,63.54)" id="img-364113b1-55">
          <path fill="none" d="M0,-58.54 L 0 58.54" class="primitive"/>
        </g>
        <g transform="translate(242.38,63.54)" id="img-364113b1-56">
          <path fill="none" d="M0,-58.54 L 0 58.54" class="primitive"/>
        </g>
        <g transform="translate(247.45,63.54)" id="img-364113b1-57">
          <path fill="none" d="M0,-58.54 L 0 58.54" class="primitive"/>
        </g>
        <g transform="translate(252.51,63.54)" id="img-364113b1-58">
          <path fill="none" d="M0,-58.54 L 0 58.54" class="primitive"/>
        </g>
        <g transform="translate(257.57,63.54)" id="img-364113b1-59">
          <path fill="none" d="M0,-58.54 L 0 58.54" class="primitive"/>
        </g>
        <g transform="translate(262.63,63.54)" id="img-364113b1-60">
          <path fill="none" d="M0,-58.54 L 0 58.54" class="primitive"/>
        </g>
        <g transform="translate(267.69,63.54)" id="img-364113b1-61">
          <path fill="none" d="M0,-58.54 L 0 58.54" class="primitive"/>
        </g>
        <g transform="translate(272.75,63.54)" id="img-364113b1-62">
          <path fill="none" d="M0,-58.54 L 0 58.54" class="primitive"/>
        </g>
        <g transform="translate(277.82,63.54)" id="img-364113b1-63">
          <path fill="none" d="M0,-58.54 L 0 58.54" class="primitive"/>
        </g>
        <g transform="translate(282.88,63.54)" id="img-364113b1-64">
          <path fill="none" d="M0,-58.54 L 0 58.54" class="primitive"/>
        </g>
        <g transform="translate(287.94,63.54)" id="img-364113b1-65">
          <path fill="none" d="M0,-58.54 L 0 58.54" class="primitive"/>
        </g>
        <g transform="translate(293,63.54)" id="img-364113b1-66">
          <path fill="none" d="M0,-58.54 L 0 58.54" class="primitive"/>
        </g>
      </g>
      <g class="plotpanel" id="img-364113b1-67">
        <metadata>
          <boundingbox value="37.920000000000016mm 5.0mm 257.08000000000004mm 117.08500000000001mm"/>
          <unitbox value="-0.03951319740793424 70.7432462307114 5.079026394815869 -4141.486492461423"/>
        </metadata>
        <g stroke-width="0.79" fill="#000000" fill-opacity="0.000" class="geometry" id="img-364113b1-68">
          <g class="color_LCHab{Float32}(70.0f0,60.0f0,240.0f0)" stroke-dasharray="none" stroke="#00BFFF" id="img-364113b1-69">
            <g transform="translate(166.46,24.4)" id="img-364113b1-70">
              <path fill="none" d="M-126.54,90.84 L -121.48 72.37 -116.42 57.26 -111.36 44.88 -106.29 34.75 -101.23 26.45 -96.17 19.66 -91.11 14.1 -86.05 9.55 -80.99 5.82 -75.92 2.77 -70.86 0.27 -65.8 -1.78 -60.74 -3.45 -55.68 -4.82 -50.62 -5.95 -45.55 -6.87 -40.49 -7.62 -35.43 -8.23 -30.37 -8.74 -25.31 -9.15 -20.25 -9.49 -15.18 -9.77 -10.12 -9.99 -5.06 -10.18 0 -10.33 5.06 -10.46 10.12 -10.56 15.18 -10.64 20.25 -10.71 25.31 -10.76 30.37 -10.81 35.43 -10.85 40.49 -10.88 45.55 -10.9 50.62 -10.92 55.68 -10.94 60.74 -10.95 65.8 -10.97 70.86 -10.98 75.92 -10.98 80.99 -10.99 86.05 -10.99 91.11 -11 96.17 -11 101.23 -11 106.29 -11.01 111.36 -11.01 116.42 -11.01 121.48 -11.01 126.54 -11.01" class="primitive"/>
            </g>
          </g>
        </g>
      </g>
    </g>
  </g>
  <g class="guide ylabels" font-size="4.94" font-family="'PT Sans Caption','Helvetica Neue','Helvetica',sans-serif" fill="#6C606B" id="img-364113b1-71">
    <g transform="translate(36.92,120.08)" id="img-364113b1-72">
      <g class="primitive">
        <text text-anchor="end" dy="0.35em">-4×10³</text>
      </g>
    </g>
    <g transform="translate(36.92,91.81)" id="img-364113b1-73">
      <g class="primitive">
        <text text-anchor="end" dy="0.35em">-3×10³</text>
      </g>
    </g>
    <g transform="translate(36.92,63.54)" id="img-364113b1-74">
      <g class="primitive">
        <text text-anchor="end" dy="0.35em">-2×10³</text>
      </g>
    </g>
    <g transform="translate(36.92,35.27)" id="img-364113b1-75">
      <g class="primitive">
        <text text-anchor="end" dy="0.35em">-1×10³</text>
      </g>
    </g>
    <g transform="translate(36.92,7)" id="img-364113b1-76">
      <g class="primitive">
        <text text-anchor="end" dy="0.35em">0</text>
      </g>
    </g>
  </g>
  <g font-size="8.47" font-family="'PT Sans','Helvetica Neue','Helvetica',sans-serif" fill="#564A55" stroke="#000000" stroke-opacity="0.000" id="img-364113b1-77">
    <g transform="translate(10.94,61.54)" id="img-364113b1-78">
      <g class="primitive">
        <text text-anchor="middle" dy="0.35em" transform="rotate(-90,0, 2)">MLE value</text>
      </g>
    </g>
  </g>
</g>
<defs>
  <clipPath id="img-364113b1-5">
    <path d="M37.92,5 L 295 5 295 122.08 37.92 122.08" />
  </clipPath>
</defs>
</svg>
