<?xml version="1.0" encoding="UTF-8"?>
<svg xmlns="http://www.w3.org/2000/svg"
     xmlns:xlink="http://www.w3.org/1999/xlink"
     xmlns:gadfly="http://www.gadflyjl.org/ns"
     version="1.2"
     width="300mm" height="150mm" viewBox="0 0 300 150"
     stroke="none"
     fill="#000000"
     stroke-width="0.3"
     font-size="3.88"
>
<defs>
  <marker id="arrow" markerWidth="15" markerHeight="7" refX="5" refY="3.5" orient="auto" markerUnits="strokeWidth">
    <path d="M0,0 L15,3.5 L0,7 z" stroke="context-stroke" fill="context-stroke"/>
  </marker>
</defs>
<g stroke="#000000" stroke-opacity="0.000" fill="#FFFFFF" id="img-ab9071c0-1">
  <g transform="translate(150,75)">
    <path d="M-150,-75 L 150 -75 150 75 -150 75 z" class="primitive"/>
  </g>
</g>
<g class="plotroot xscalable yscalable" id="img-ab9071c0-2">
  <g font-size="8.47" font-family="'PT Sans','Helvetica Neue','Helvetica',sans-serif" fill="#564A55" stroke="#000000" stroke-opacity="0.000" id="img-ab9071c0-3">
    <g transform="translate(166.46,134.12)">
      <g class="primitive">
        <text text-anchor="middle" dy="0.6em">θ</text>
      </g>
    </g>
  </g>
  <g class="guide xlabels" font-size="4.94" font-family="'PT Sans Caption','Helvetica Neue','Helvetica',sans-serif" fill="#6C606B" id="img-ab9071c0-4">
    <g transform="translate(39.92,123.08)">
      <g class="primitive">
        <text text-anchor="end" dy="0.35em" transform="rotate(-90,0, 0)">0.0</text>
      </g>
    </g>
    <g transform="translate(44.98,123.08)">
      <g class="primitive">
        <text text-anchor="end" dy="0.35em" transform="rotate(-90,0, 0)">0.1</text>
      </g>
    </g>
    <g transform="translate(50.04,123.08)">
      <g class="primitive">
        <text text-anchor="end" dy="0.35em" transform="rotate(-90,0, 0)">0.2</text>
      </g>
    </g>
    <g transform="translate(55.1,123.08)">
      <g class="primitive">
        <text text-anchor="end" dy="0.35em" transform="rotate(-90,0, 0)">0.3</text>
      </g>
    </g>
    <g transform="translate(60.17,123.08)">
      <g class="primitive">
        <text text-anchor="end" dy="0.35em" transform="rotate(-90,0, 0)">0.4</text>
      </g>
    </g>
    <g transform="translate(65.23,123.08)">
      <g class="primitive">
        <text text-anchor="end" dy="0.35em" transform="rotate(-90,0, 0)">0.5</text>
      </g>
    </g>
    <g transform="translate(70.29,123.08)">
      <g class="primitive">
        <text text-anchor="end" dy="0.35em" transform="rotate(-90,0, 0)">0.6</text>
      </g>
    </g>
    <g transform="translate(75.35,123.08)">
      <g class="primitive">
        <text text-anchor="end" dy="0.35em" transform="rotate(-90,0, 0)">0.7</text>
      </g>
    </g>
    <g transform="translate(80.41,123.08)">
      <g class="primitive">
        <text text-anchor="end" dy="0.35em" transform="rotate(-90,0, 0)">0.8</text>
      </g>
    </g>
    <g transform="translate(85.47,123.08)">
      <g class="primitive">
        <text text-anchor="end" dy="0.35em" transform="rotate(-90,0, 0)">0.9</text>
      </g>
    </g>
    <g transform="translate(90.54,123.08)">
      <g class="primitive">
        <text text-anchor="end" dy="0.35em" transform="rotate(-90,0, 0)">1.0</text>
      </g>
    </g>
    <g transform="translate(95.6,123.08)">
      <g class="primitive">
        <text text-anchor="end" dy="0.35em" transform="rotate(-90,0, 0)">1.1</text>
      </g>
    </g>
    <g transform="translate(100.66,123.08)">
      <g class="primitive">
        <text text-anchor="end" dy="0.35em" transform="rotate(-90,0, 0)">1.2</text>
      </g>
    </g>
    <g transform="translate(105.72,123.08)">
      <g class="primitive">
        <text text-anchor="end" dy="0.35em" transform="rotate(-90,0, 0)">1.3</text>
      </g>
    </g>
    <g transform="translate(110.78,123.08)">
      <g class="primitive">
        <text text-anchor="end" dy="0.35em" transform="rotate(-90,0, 0)">1.4</text>
      </g>
    </g>
    <g transform="translate(115.84,123.08)">
      <g class="primitive">
        <text text-anchor="end" dy="0.35em" transform="rotate(-90,0, 0)">1.5</text>
      </g>
    </g>
    <g transform="translate(120.91,123.08)">
      <g class="primitive">
        <text text-anchor="end" dy="0.35em" transform="rotate(-90,0, 0)">1.6</text>
      </g>
    </g>
    <g transform="translate(125.97,123.08)">
      <g class="primitive">
        <text text-anchor="end" dy="0.35em" transform="rotate(-90,0, 0)">1.7</text>
      </g>
    </g>
    <g transform="translate(131.03,123.08)">
      <g class="primitive">
        <text text-anchor="end" dy="0.35em" transform="rotate(-90,0, 0)">1.8</text>
      </g>
    </g>
    <g transform="translate(136.09,123.08)">
      <g class="primitive">
        <text text-anchor="end" dy="0.35em" transform="rotate(-90,0, 0)">1.9</text>
      </g>
    </g>
    <g transform="translate(141.15,123.08)">
      <g class="primitive">
        <text text-anchor="end" dy="0.35em" transform="rotate(-90,0, 0)">2.0</text>
      </g>
    </g>
    <g transform="translate(146.21,123.08)">
      <g class="primitive">
        <text text-anchor="end" dy="0.35em" transform="rotate(-90,0, 0)">2.1</text>
      </g>
    </g>
    <g transform="translate(151.28,123.08)">
      <g class="primitive">
        <text text-anchor="end" dy="0.35em" transform="rotate(-90,0, 0)">2.2</text>
      </g>
    </g>
    <g transform="translate(156.34,123.08)">
      <g class="primitive">
        <text text-anchor="end" dy="0.35em" transform="rotate(-90,0, 0)">2.3</text>
      </g>
    </g>
    <g transform="translate(161.4,123.08)">
      <g class="primitive">
        <text text-anchor="end" dy="0.35em" transform="rotate(-90,0, 0)">2.4</text>
      </g>
    </g>
    <g transform="translate(166.46,123.08)">
      <g class="primitive">
        <text text-anchor="end" dy="0.35em" transform="rotate(-90,0, 0)">2.5</text>
      </g>
    </g>
    <g transform="translate(171.52,123.08)">
      <g class="primitive">
        <text text-anchor="end" dy="0.35em" transform="rotate(-90,0, 0)">2.6</text>
      </g>
    </g>
    <g transform="translate(176.58,123.08)">
      <g class="primitive">
        <text text-anchor="end" dy="0.35em" transform="rotate(-90,0, 0)">2.7</text>
      </g>
    </g>
    <g transform="translate(181.64,123.08)">
      <g class="primitive">
        <text text-anchor="end" dy="0.35em" transform="rotate(-90,0, 0)">2.8</text>
      </g>
    </g>
    <g transform="translate(186.71,123.08)">
      <g class="primitive">
        <text text-anchor="end" dy="0.35em" transform="rotate(-90,0, 0)">2.9</text>
      </g>
    </g>
    <g transform="translate(191.77,123.08)">
      <g class="primitive">
        <text text-anchor="end" dy="0.35em" transform="rotate(-90,0, 0)">3.0</text>
      </g>
    </g>
    <g transform="translate(196.83,123.08)">
      <g class="primitive">
        <text text-anchor="end" dy="0.35em" transform="rotate(-90,0, 0)">3.1</text>
      </g>
    </g>
    <g transform="translate(201.89,123.08)">
      <g class="primitive">
        <text text-anchor="end" dy="0.35em" transform="rotate(-90,0, 0)">3.2</text>
      </g>
    </g>
    <g transform="translate(206.95,123.08)">
      <g class="primitive">
        <text text-anchor="end" dy="0.35em" transform="rotate(-90,0, 0)">3.3</text>
      </g>
    </g>
    <g transform="translate(212.01,123.08)">
      <g class="primitive">
        <text text-anchor="end" dy="0.35em" transform="rotate(-90,0, 0)">3.4</text>
      </g>
    </g>
    <g transform="translate(217.08,123.08)">
      <g class="primitive">
        <text text-anchor="end" dy="0.35em" transform="rotate(-90,0, 0)">3.5</text>
      </g>
    </g>
    <g transform="translate(222.14,123.08)">
      <g class="primitive">
        <text text-anchor="end" dy="0.35em" transform="rotate(-90,0, 0)">3.6</text>
      </g>
    </g>
    <g transform="translate(227.2,123.08)">
      <g class="primitive">
        <text text-anchor="end" dy="0.35em" transform="rotate(-90,0, 0)">3.7</text>
      </g>
    </g>
    <g transform="translate(232.26,123.08)">
      <g class="primitive">
        <text text-anchor="end" dy="0.35em" transform="rotate(-90,0, 0)">3.8</text>
      </g>
    </g>
    <g transform="translate(237.32,123.08)">
      <g class="primitive">
        <text text-anchor="end" dy="0.35em" transform="rotate(-90,0, 0)">3.9</text>
      </g>
    </g>
    <g transform="translate(242.38,123.08)">
      <g class="primitive">
        <text text-anchor="end" dy="0.35em" transform="rotate(-90,0, 0)">4.0</text>
      </g>
    </g>
    <g transform="translate(247.45,123.08)">
      <g class="primitive">
        <text text-anchor="end" dy="0.35em" transform="rotate(-90,0, 0)">4.1</text>
      </g>
    </g>
    <g transform="translate(252.51,123.08)">
      <g class="primitive">
        <text text-anchor="end" dy="0.35em" transform="rotate(-90,0, 0)">4.2</text>
      </g>
    </g>
    <g transform="translate(257.57,123.08)">
      <g class="primitive">
        <text text-anchor="end" dy="0.35em" transform="rotate(-90,0, 0)">4.3</text>
      </g>
    </g>
    <g transform="translate(262.63,123.08)">
      <g class="primitive">
        <text text-anchor="end" dy="0.35em" transform="rotate(-90,0, 0)">4.4</text>
      </g>
    </g>
    <g transform="translate(267.69,123.08)">
      <g class="primitive">
        <text text-anchor="end" dy="0.35em" transform="rotate(-90,0, 0)">4.5</text>
      </g>
    </g>
    <g transform="translate(272.75,123.08)">
      <g class="primitive">
        <text text-anchor="end" dy="0.35em" transform="rotate(-90,0, 0)">4.6</text>
      </g>
    </g>
    <g transform="translate(277.82,123.08)">
      <g class="primitive">
        <text text-anchor="end" dy="0.35em" transform="rotate(-90,0, 0)">4.7</text>
      </g>
    </g>
    <g transform="translate(282.88,123.08)">
      <g class="primitive">
        <text text-anchor="end" dy="0.35em" transform="rotate(-90,0, 0)">4.8</text>
      </g>
    </g>
    <g transform="translate(287.94,123.08)">
      <g class="primitive">
        <text text-anchor="end" dy="0.35em" transform="rotate(-90,0, 0)">4.9</text>
      </g>
    </g>
    <g transform="translate(293,123.08)">
      <g class="primitive">
        <text text-anchor="end" dy="0.35em" transform="rotate(-90,0, 0)">5.0</text>
      </g>
    </g>
  </g>
  <g clip-path="url(#img-ab9071c0-5)">
    <g id="img-ab9071c0-6">
      <g pointer-events="visible" fill="#000000" fill-opacity="0.000" stroke="#000000" class="guide background" id="img-ab9071c0-7">
        <g transform="translate(166.46,63.54)" id="img-ab9071c0-8">
          <path d="M-128.54,-58.54 L 128.54 -58.54 128.54 58.54 -128.54 58.54 z" class="primitive"/>
        </g>
      </g>
      <g class="guide ygridlines xfixed" stroke-dasharray="0.5,0.5" stroke-width="0.2" stroke="#D0D0E0" id="img-ab9071c0-9">
        <g transform="translate(166.46,120.08)" id="img-ab9071c0-10">
          <path fill="none" d="M-128.54,0 L 128.54 0" class="primitive"/>
        </g>
        <g transform="translate(166.46,91.81)" id="img-ab9071c0-11">
          <path fill="none" d="M-128.54,0 L 128.54 0" class="primitive"/>
        </g>
        <g transform="translate(166.46,63.54)" id="img-ab9071c0-12">
          <path fill="none" d="M-128.54,0 L 128.54 0" class="primitive"/>
        </g>
        <g transform="translate(166.46,35.27)" id="img-ab9071c0-13">
          <path fill="none" d="M-128.54,0 L 128.54 0" class="primitive"/>
        </g>
        <g transform="translate(166.46,7)" id="img-ab9071c0-14">
          <path fill="none" d="M-128.54,0 L 128.54 0" class="primitive"/>
        </g>
      </g>
      <g class="guide xgridlines yfixed" stroke-dasharray="0.5,0.5" stroke-width="0.2" stroke="#D0D0E0" id="img-ab9071c0-15">
        <g transform="translate(39.92,63.54)" id="img-ab9071c0-16">
          <path fill="none" d="M0,-58.54 L 0 58.54" class="primitive"/>
        </g>
        <g transform="translate(44.98,63.54)" id="img-ab9071c0-17">
          <path fill="none" d="M0,-58.54 L 0 58.54" class="primitive"/>
        </g>
        <g transform="translate(50.04,63.54)" id="img-ab9071c0-18">
          <path fill="none" d="M0,-58.54 L 0 58.54" class="primitive"/>
        </g>
        <g transform="translate(55.1,63.54)" id="img-ab9071c0-19">
          <path fill="none" d="M0,-58.54 L 0 58.54" class="primitive"/>
        </g>
        <g transform="translate(60.17,63.54)" id="img-ab9071c0-20">
          <path fill="none" d="M0,-58.54 L 0 58.54" class="primitive"/>
        </g>
        <g transform="translate(65.23,63.54)" id="img-ab9071c0-21">
          <path fill="none" d="M0,-58.54 L 0 58.54" class="primitive"/>
        </g>
        <g transform="translate(70.29,63.54)" id="img-ab9071c0-22">
          <path fill="none" d="M0,-58.54 L 0 58.54" class="primitive"/>
        </g>
        <g transform="translate(75.35,63.54)" id="img-ab9071c0-23">
          <path fill="none" d="M0,-58.54 L 0 58.54" class="primitive"/>
        </g>
        <g transform="translate(80.41,63.54)" id="img-ab9071c0-24">
          <path fill="none" d="M0,-58.54 L 0 58.54" class="primitive"/>
        </g>
        <g transform="translate(85.47,63.54)" id="img-ab9071c0-25">
          <path fill="none" d="M0,-58.54 L 0 58.54" class="primitive"/>
        </g>
        <g transform="translate(90.54,63.54)" id="img-ab9071c0-26">
          <path fill="none" d="M0,-58.54 L 0 58.54" class="primitive"/>
        </g>
        <g transform="translate(95.6,63.54)" id="img-ab9071c0-27">
          <path fill="none" d="M0,-58.54 L 0 58.54" class="primitive"/>
        </g>
        <g transform="translate(100.66,63.54)" id="img-ab9071c0-28">
          <path fill="none" d="M0,-58.54 L 0 58.54" class="primitive"/>
        </g>
        <g transform="translate(105.72,63.54)" id="img-ab9071c0-29">
          <path fill="none" d="M0,-58.54 L 0 58.54" class="primitive"/>
        </g>
        <g transform="translate(110.78,63.54)" id="img-ab9071c0-30">
          <path fill="none" d="M0,-58.54 L 0 58.54" class="primitive"/>
        </g>
        <g transform="translate(115.84,63.54)" id="img-ab9071c0-31">
          <path fill="none" d="M0,-58.54 L 0 58.54" class="primitive"/>
        </g>
        <g transform="translate(120.91,63.54)" id="img-ab9071c0-32">
          <path fill="none" d="M0,-58.54 L 0 58.54" class="primitive"/>
        </g>
        <g transform="translate(125.97,63.54)" id="img-ab9071c0-33">
          <path fill="none" d="M0,-58.54 L 0 58.54" class="primitive"/>
        </g>
        <g transform="translate(131.03,63.54)" id="img-ab9071c0-34">
          <path fill="none" d="M0,-58.54 L 0 58.54" class="primitive"/>
        </g>
        <g transform="translate(136.09,63.54)" id="img-ab9071c0-35">
          <path fill="none" d="M0,-58.54 L 0 58.54" class="primitive"/>
        </g>
        <g transform="translate(141.15,63.54)" id="img-ab9071c0-36">
          <path fill="none" d="M0,-58.54 L 0 58.54" class="primitive"/>
        </g>
        <g transform="translate(146.21,63.54)" id="img-ab9071c0-37">
          <path fill="none" d="M0,-58.54 L 0 58.54" class="primitive"/>
        </g>
        <g transform="translate(151.28,63.54)" id="img-ab9071c0-38">
          <path fill="none" d="M0,-58.54 L 0 58.54" class="primitive"/>
        </g>
        <g transform="translate(156.34,63.54)" id="img-ab9071c0-39">
          <path fill="none" d="M0,-58.54 L 0 58.54" class="primitive"/>
        </g>
        <g transform="translate(161.4,63.54)" id="img-ab9071c0-40">
          <path fill="none" d="M0,-58.54 L 0 58.54" class="primitive"/>
        </g>
        <g transform="translate(166.46,63.54)" id="img-ab9071c0-41">
          <path fill="none" d="M0,-58.54 L 0 58.54" class="primitive"/>
        </g>
        <g transform="translate(171.52,63.54)" id="img-ab9071c0-42">
          <path fill="none" d="M0,-58.54 L 0 58.54" class="primitive"/>
        </g>
        <g transform="translate(176.58,63.54)" id="img-ab9071c0-43">
          <path fill="none" d="M0,-58.54 L 0 58.54" class="primitive"/>
        </g>
        <g transform="translate(181.64,63.54)" id="img-ab9071c0-44">
          <path fill="none" d="M0,-58.54 L 0 58.54" class="primitive"/>
        </g>
        <g transform="translate(186.71,63.54)" id="img-ab9071c0-45">
          <path fill="none" d="M0,-58.54 L 0 58.54" class="primitive"/>
        </g>
        <g transform="translate(191.77,63.54)" id="img-ab9071c0-46">
          <path fill="none" d="M0,-58.54 L 0 58.54" class="primitive"/>
        </g>
        <g transform="translate(196.83,63.54)" id="img-ab9071c0-47">
          <path fill="none" d="M0,-58.54 L 0 58.54" class="primitive"/>
        </g>
        <g transform="translate(201.89,63.54)" id="img-ab9071c0-48">
          <path fill="none" d="M0,-58.54 L 0 58.54" class="primitive"/>
        </g>
        <g transform="translate(206.95,63.54)" id="img-ab9071c0-49">
          <path fill="none" d="M0,-58.54 L 0 58.54" class="primitive"/>
        </g>
        <g transform="translate(212.01,63.54)" id="img-ab9071c0-50">
          <path fill="none" d="M0,-58.54 L 0 58.54" class="primitive"/>
        </g>
        <g transform="translate(217.08,63.54)" id="img-ab9071c0-51">
          <path fill="none" d="M0,-58.54 L 0 58.54" class="primitive"/>
        </g>
        <g transform="translate(222.14,63.54)" id="img-ab9071c0-52">
          <path fill="none" d="M0,-58.54 L 0 58.54" class="primitive"/>
        </g>
        <g transform="translate(227.2,63.54)" id="img-ab9071c0-53">
          <path fill="none" d="M0,-58.54 L 0 58.54" class="primitive"/>
        </g>
        <g transform="translate(232.26,63.54)" id="img-ab9071c0-54">
          <path fill="none" d="M0,-58.54 L 0 58.54" class="primitive"/>
        </g>
        <g transform="translate(237.32,63.54)" id="img-ab9071c0-55">
          <path fill="none" d="M0,-58.54 L 0 58.54" class="primitive"/>
        </g>
        <g transform="translate(242.38,63.54)" id="img-ab9071c0-56">
          <path fill="none" d="M0,-58.54 L 0 58.54" class="primitive"/>
        </g>
        <g transform="translate(247.45,63.54)" id="img-ab9071c0-57">
          <path fill="none" d="M0,-58.54 L 0 58.54" class="primitive"/>
        </g>
        <g transform="translate(252.51,63.54)" id="img-ab9071c0-58">
          <path fill="none" d="M0,-58.54 L 0 58.54" class="primitive"/>
        </g>
        <g transform="translate(257.57,63.54)" id="img-ab9071c0-59">
          <path fill="none" d="M0,-58.54 L 0 58.54" class="primitive"/>
        </g>
        <g transform="translate(262.63,63.54)" id="img-ab9071c0-60">
          <path fill="none" d="M0,-58.54 L 0 58.54" class="primitive"/>
        </g>
        <g transform="translate(267.69,63.54)" id="img-ab9071c0-61">
          <path fill="none" d="M0,-58.54 L 0 58.54" class="primitive"/>
        </g>
        <g transform="translate(272.75,63.54)" id="img-ab9071c0-62">
          <path fill="none" d="M0,-58.54 L 0 58.54" class="primitive"/>
        </g>
        <g transform="translate(277.82,63.54)" id="img-ab9071c0-63">
          <path fill="none" d="M0,-58.54 L 0 58.54" class="primitive"/>
        </g>
        <g transform="translate(282.88,63.54)" id="img-ab9071c0-64">
          <path fill="none" d="M0,-58.54 L 0 58.54" class="primitive"/>
        </g>
        <g transform="translate(287.94,63.54)" id="img-ab9071c0-65">
          <path fill="none" d="M0,-58.54 L 0 58.54" class="primitive"/>
        </g>
        <g transform="translate(293,63.54)" id="img-ab9071c0-66">
          <path fill="none" d="M0,-58.54 L 0 58.54" class="primitive"/>
        </g>
      </g>
      <g class="plotpanel" id="img-ab9071c0-67">
        <metadata>
          <boundingbox value="37.920000000000016mm 5.0mm 257.08000000000004mm 117.08500000000001mm"/>
          <unitbox value="-0.03951319740793424 70.7432462307114 5.079026394815869 -4141.486492461423"/>
        </metadata>
        <g stroke-width="0.79" fill="#000000" fill-opacity="0.000" class="geometry" id="img-ab9071c0-68">
          <g class="color_LCHab{Float32}(70.0f0,60.0f0,240.0f0)" stroke-dasharray="none" stroke="#00BFFF" id="img-ab9071c0-69">
            <g transform="translate(166.46,24.35)" id="img-ab9071c0-70">
              <path fill="none" d="M-126.54,90.45 L -121.48 72.06 -116.42 57.01 -111.36 44.69 -106.29 34.6 -101.23 26.34 -96.17 19.58 -91.11 14.04 -86.05 9.51 -80.99 5.79 -75.92 2.76 -70.86 0.27 -65.8 -1.77 -60.74 -3.44 -55.68 -4.8 -50.62 -5.92 -45.55 -6.84 -40.49 -7.59 -35.43 -8.2 -30.37 -8.7 -25.31 -9.11 -20.25 -9.45 -15.18 -9.72 -10.12 -9.95 -5.06 -10.14 0 -10.29 5.06 -10.41 10.12 -10.51 15.18 -10.59 20.25 -10.66 25.31 -10.72 30.37 -10.76 35.43 -10.8 40.49 -10.83 45.55 -10.86 50.62 -10.88 55.68 -10.89 60.74 -10.91 65.8 -10.92 70.86 -10.93 75.92 -10.94 80.99 -10.94 86.05 -10.95 91.11 -10.95 96.17 -10.95 101.23 -10.96 106.29 -10.96 111.36 -10.96 116.42 -10.96 121.48 -10.96 126.54 -10.97" class="primitive"/>
            </g>
          </g>
        </g>
      </g>
    </g>
  </g>
  <g class="guide ylabels" font-size="4.94" font-family="'PT Sans Caption','Helvetica Neue','Helvetica',sans-serif" fill="#6C606B" id="img-ab9071c0-71">
    <g transform="translate(36.92,120.08)" id="img-ab9071c0-72">
      <g class="primitive">
        <text text-anchor="end" dy="0.35em">-4×10³</text>
      </g>
    </g>
    <g transform="translate(36.92,91.81)" id="img-ab9071c0-73">
      <g class="primitive">
        <text text-anchor="end" dy="0.35em">-3×10³</text>
      </g>
    </g>
    <g transform="translate(36.92,63.54)" id="img-ab9071c0-74">
      <g class="primitive">
        <text text-anchor="end" dy="0.35em">-2×10³</text>
      </g>
    </g>
    <g transform="translate(36.92,35.27)" id="img-ab9071c0-75">
      <g class="primitive">
        <text text-anchor="end" dy="0.35em">-1×10³</text>
      </g>
    </g>
    <g transform="translate(36.92,7)" id="img-ab9071c0-76">
      <g class="primitive">
        <text text-anchor="end" dy="0.35em">0</text>
      </g>
    </g>
  </g>
  <g font-size="8.47" font-family="'PT Sans','Helvetica Neue','Helvetica',sans-serif" fill="#564A55" stroke="#000000" stroke-opacity="0.000" id="img-ab9071c0-77">
    <g transform="translate(10.94,61.54)" id="img-ab9071c0-78">
      <g class="primitive">
        <text text-anchor="middle" dy="0.35em" transform="rotate(-90,0, 2)">MLE value</text>
      </g>
    </g>
  </g>
</g>
<defs>
  <clipPath id="img-ab9071c0-5">
    <path d="M37.92,5 L 295 5 295 122.08 37.92 122.08" />
  </clipPath>
</defs>
</svg>
