<?xml version="1.0" encoding="UTF-8"?>
<svg xmlns="http://www.w3.org/2000/svg"
     xmlns:xlink="http://www.w3.org/1999/xlink"
     xmlns:gadfly="http://www.gadflyjl.org/ns"
     version="1.2"
     width="300mm" height="150mm" viewBox="0 0 300 150"
     stroke="none"
     fill="#000000"
     stroke-width="0.3"
     font-size="3.88"
>
<defs>
  <marker id="arrow" markerWidth="15" markerHeight="7" refX="5" refY="3.5" orient="auto" markerUnits="strokeWidth">
    <path d="M0,0 L15,3.5 L0,7 z" stroke="context-stroke" fill="context-stroke"/>
  </marker>
</defs>
<g stroke="#000000" stroke-opacity="0.000" fill="#FFFFFF" id="img-4c6729a5-1">
  <g transform="translate(150,75)">
    <path d="M-150,-75 L 150 -75 150 75 -150 75 z" class="primitive"/>
  </g>
</g>
<g class="plotroot xscalable yscalable" id="img-4c6729a5-2">
  <g font-size="8.47" font-family="'PT Sans','Helvetica Neue','Helvetica',sans-serif" fill="#564A55" stroke="#000000" stroke-opacity="0.000" id="img-4c6729a5-3">
    <g transform="translate(161.33,138.06)">
      <g class="primitive">
        <text text-anchor="end" dy="0.35em" transform="rotate(-90,0, 0)">y</text>
      </g>
    </g>
  </g>
  <g class="guide xlabels" font-size="4.94" font-family="'PT Sans Caption','Helvetica Neue','Helvetica',sans-serif" fill="#6C606B" id="img-4c6729a5-4">
    <g transform="translate(29.67,129.38)">
      <g class="primitive">
        <text text-anchor="middle" dy="0.6em">13</text>
      </g>
    </g>
    <g transform="translate(51.61,129.38)">
      <g class="primitive">
        <text text-anchor="middle" dy="0.6em">14</text>
      </g>
    </g>
    <g transform="translate(73.55,129.38)">
      <g class="primitive">
        <text text-anchor="middle" dy="0.6em">15</text>
      </g>
    </g>
    <g transform="translate(95.5,129.38)">
      <g class="primitive">
        <text text-anchor="middle" dy="0.6em">16</text>
      </g>
    </g>
    <g transform="translate(117.44,129.38)">
      <g class="primitive">
        <text text-anchor="middle" dy="0.6em">17</text>
      </g>
    </g>
    <g transform="translate(139.39,129.38)">
      <g class="primitive">
        <text text-anchor="middle" dy="0.6em">18</text>
      </g>
    </g>
    <g transform="translate(161.33,129.38)">
      <g class="primitive">
        <text text-anchor="middle" dy="0.6em">19</text>
      </g>
    </g>
    <g transform="translate(183.28,129.38)">
      <g class="primitive">
        <text text-anchor="middle" dy="0.6em">20</text>
      </g>
    </g>
    <g transform="translate(205.22,129.38)">
      <g class="primitive">
        <text text-anchor="middle" dy="0.6em">21</text>
      </g>
    </g>
    <g transform="translate(227.17,129.38)">
      <g class="primitive">
        <text text-anchor="middle" dy="0.6em">22</text>
      </g>
    </g>
    <g transform="translate(249.11,129.38)">
      <g class="primitive">
        <text text-anchor="middle" dy="0.6em">23</text>
      </g>
    </g>
    <g transform="translate(271.06,129.38)">
      <g class="primitive">
        <text text-anchor="middle" dy="0.6em">24</text>
      </g>
    </g>
    <g transform="translate(293,129.38)">
      <g class="primitive">
        <text text-anchor="middle" dy="0.6em">25</text>
      </g>
    </g>
  </g>
  <g clip-path="url(#img-4c6729a5-5)">
    <g id="img-4c6729a5-6">
      <g pointer-events="visible" fill="#000000" fill-opacity="0.000" stroke="#000000" class="guide background" id="img-4c6729a5-7">
        <g transform="translate(161.33,66.69)" id="img-4c6729a5-8">
          <path d="M-133.67,-61.69 L 133.67 -61.69 133.67 61.69 -133.67 61.69 z" class="primitive"/>
        </g>
      </g>
      <g class="guide ygridlines xfixed" stroke-dasharray="0.5,0.5" stroke-width="0.2" stroke="#D0D0E0" id="img-4c6729a5-9">
        <g transform="translate(161.33,126.38)" id="img-4c6729a5-10">
          <path fill="none" d="M-133.67,0 L 133.67 0" class="primitive"/>
        </g>
        <g transform="translate(161.33,86.59)" id="img-4c6729a5-11">
          <path fill="none" d="M-133.67,0 L 133.67 0" class="primitive"/>
        </g>
        <g transform="translate(161.33,46.79)" id="img-4c6729a5-12">
          <path fill="none" d="M-133.67,0 L 133.67 0" class="primitive"/>
        </g>
        <g transform="translate(161.33,7)" id="img-4c6729a5-13">
          <path fill="none" d="M-133.67,0 L 133.67 0" class="primitive"/>
        </g>
      </g>
      <g class="guide xgridlines yfixed" stroke-dasharray="0.5,0.5" stroke-width="0.2" stroke="#D0D0E0" id="img-4c6729a5-14">
        <g transform="translate(29.67,66.69)" id="img-4c6729a5-15">
          <path fill="none" d="M0,-61.69 L 0 61.69" class="primitive"/>
        </g>
        <g transform="translate(51.61,66.69)" id="img-4c6729a5-16">
          <path fill="none" d="M0,-61.69 L 0 61.69" class="primitive"/>
        </g>
        <g transform="translate(73.55,66.69)" id="img-4c6729a5-17">
          <path fill="none" d="M0,-61.69 L 0 61.69" class="primitive"/>
        </g>
        <g transform="translate(95.5,66.69)" id="img-4c6729a5-18">
          <path fill="none" d="M0,-61.69 L 0 61.69" class="primitive"/>
        </g>
        <g transform="translate(117.44,66.69)" id="img-4c6729a5-19">
          <path fill="none" d="M0,-61.69 L 0 61.69" class="primitive"/>
        </g>
        <g transform="translate(139.39,66.69)" id="img-4c6729a5-20">
          <path fill="none" d="M0,-61.69 L 0 61.69" class="primitive"/>
        </g>
        <g transform="translate(161.33,66.69)" id="img-4c6729a5-21">
          <path fill="none" d="M0,-61.69 L 0 61.69" class="primitive"/>
        </g>
        <g transform="translate(183.28,66.69)" id="img-4c6729a5-22">
          <path fill="none" d="M0,-61.69 L 0 61.69" class="primitive"/>
        </g>
        <g transform="translate(205.22,66.69)" id="img-4c6729a5-23">
          <path fill="none" d="M0,-61.69 L 0 61.69" class="primitive"/>
        </g>
        <g transform="translate(227.17,66.69)" id="img-4c6729a5-24">
          <path fill="none" d="M0,-61.69 L 0 61.69" class="primitive"/>
        </g>
        <g transform="translate(249.11,66.69)" id="img-4c6729a5-25">
          <path fill="none" d="M0,-61.69 L 0 61.69" class="primitive"/>
        </g>
        <g transform="translate(271.06,66.69)" id="img-4c6729a5-26">
          <path fill="none" d="M0,-61.69 L 0 61.69" class="primitive"/>
        </g>
        <g transform="translate(293,66.69)" id="img-4c6729a5-27">
          <path fill="none" d="M0,-61.69 L 0 61.69" class="primitive"/>
        </g>
      </g>
      <g class="plotpanel" id="img-4c6729a5-28">
        <metadata>
          <boundingbox value="27.66500000000002mm 5.0mm 267.33500000000004mm 123.38166666666666mm"/>
          <unitbox value="12.908861336320657 305.0258973320862 12.182277327358687 -310.05179466417235"/>
        </metadata>
        <g shape-rendering="crispEdges" stroke-width="0.3" id="img-4c6729a5-29">
          <g stroke="#000000" stroke-opacity="0.000" class="geometry" fill="#00BFFF" id="img-4c6729a5-30">
            <g transform="translate(40.64,72.26)" id="img-4c6729a5-31">
              <path d="M-11,-54.12 L 11 -54.12 11 54.12 -11 54.12 z" class="primitive"/>
            </g>
            <g transform="translate(62.58,111.46)" id="img-4c6729a5-32">
              <path d="M-11,-14.92 L 11 -14.92 11 14.92 -11 14.92 z" class="primitive"/>
            </g>
            <g transform="translate(84.53,110.66)" id="img-4c6729a5-33">
              <path d="M-11,-15.72 L 11 -15.72 11 15.72 -11 15.72 z" class="primitive"/>
            </g>
            <g transform="translate(106.47,106.48)" id="img-4c6729a5-34">
              <path d="M-11,-19.9 L 11 -19.9 11 19.9 -11 19.9 z" class="primitive"/>
            </g>
            <g transform="translate(128.42,105.29)" id="img-4c6729a5-35">
              <path d="M-11,-21.09 L 11 -21.09 11 21.09 -11 21.09 z" class="primitive"/>
            </g>
            <g transform="translate(150.36,107.28)" id="img-4c6729a5-36">
              <path d="M-11,-19.1 L 11 -19.1 11 19.1 -11 19.1 z" class="primitive"/>
            </g>
            <g transform="translate(172.3,111.46)" id="img-4c6729a5-37">
              <path d="M-11,-14.92 L 11 -14.92 11 14.92 -11 14.92 z" class="primitive"/>
            </g>
            <g transform="translate(194.25,103.5)" id="img-4c6729a5-38">
              <path d="M-11,-22.88 L 11 -22.88 11 22.88 -11 22.88 z" class="primitive"/>
            </g>
            <g transform="translate(216.19,102.9)" id="img-4c6729a5-39">
              <path d="M-11,-23.48 L 11 -23.48 11 23.48 -11 23.48 z" class="primitive"/>
            </g>
            <g transform="translate(238.14,109.27)" id="img-4c6729a5-40">
              <path d="M-11,-17.11 L 11 -17.11 11 17.11 -11 17.11 z" class="primitive"/>
            </g>
            <g transform="translate(260.08,111.46)" id="img-4c6729a5-41">
              <path d="M-11,-14.92 L 11 -14.92 11 14.92 -11 14.92 z" class="primitive"/>
            </g>
            <g transform="translate(282.03,75.45)" id="img-4c6729a5-42">
              <path d="M-11,-50.94 L 11 -50.94 11 50.94 -11 50.94 z" class="primitive"/>
            </g>
          </g>
        </g>
      </g>
    </g>
  </g>
  <g class="guide ylabels" font-size="4.94" font-family="'PT Sans Caption','Helvetica Neue','Helvetica',sans-serif" fill="#6C606B" id="img-4c6729a5-43">
    <g transform="translate(26.66,126.38)" id="img-4c6729a5-44">
      <g class="primitive">
        <text text-anchor="end" dy="0.35em">0</text>
      </g>
    </g>
    <g transform="translate(26.66,86.59)" id="img-4c6729a5-45">
      <g class="primitive">
        <text text-anchor="end" dy="0.35em">100</text>
      </g>
    </g>
    <g transform="translate(26.66,46.79)" id="img-4c6729a5-46">
      <g class="primitive">
        <text text-anchor="end" dy="0.35em">200</text>
      </g>
    </g>
    <g transform="translate(26.66,7)" id="img-4c6729a5-47">
      <g class="primitive">
        <text text-anchor="end" dy="0.35em">300</text>
      </g>
    </g>
  </g>
  <g font-size="8.47" font-family="'PT Sans','Helvetica Neue','Helvetica',sans-serif" fill="#564A55" stroke="#000000" stroke-opacity="0.000" id="img-4c6729a5-48">
    <g transform="translate(10.94,64.69)" id="img-4c6729a5-49">
      <g class="primitive">
        <text text-anchor="middle" dy="0.35em" transform="rotate(-90,0, 2)">frequency</text>
      </g>
    </g>
  </g>
</g>
<defs>
  <clipPath id="img-4c6729a5-5">
    <path d="M27.67,5 L 295 5 295 128.38 27.67 128.38" />
  </clipPath>
</defs>
</svg>
