<?xml version="1.0" encoding="UTF-8"?>
<svg xmlns="http://www.w3.org/2000/svg"
     xmlns:xlink="http://www.w3.org/1999/xlink"
     xmlns:gadfly="http://www.gadflyjl.org/ns"
     version="1.2"
     width="141.42mm" height="100mm" viewBox="0 0 141.42 100"
     stroke="none"
     fill="#000000"
     stroke-width="0.3"
     font-size="3.88"
>
<defs>
  <marker id="arrow" markerWidth="15" markerHeight="7" refX="5" refY="3.5" orient="auto" markerUnits="strokeWidth">
    <path d="M0,0 L15,3.5 L0,7 z" stroke="context-stroke" fill="context-stroke"/>
  </marker>
</defs>
<g class="plotroot xscalable yscalable" id="img-c1efcc9f-1">
  <g font-size="3.88" font-family="'PT Sans','Helvetica Neue','Helvetica',sans-serif" fill="#564A55" stroke="#000000" stroke-opacity="0.000" id="img-c1efcc9f-2">
    <g transform="translate(74.22,88.39)">
      <g class="primitive">
        <text text-anchor="middle" dy="0.6em">y</text>
      </g>
    </g>
  </g>
  <g class="guide xlabels" font-size="2.82" font-family="'PT Sans Caption','Helvetica Neue','Helvetica',sans-serif" fill="#6C606B" id="img-c1efcc9f-3">
    <g transform="translate(14.02,81.72)">
      <g class="primitive">
        <text text-anchor="middle" dy="0.6em">13</text>
      </g>
    </g>
    <g transform="translate(24.05,81.72)">
      <g class="primitive">
        <text text-anchor="middle" dy="0.6em">14</text>
      </g>
    </g>
    <g transform="translate(34.09,81.72)">
      <g class="primitive">
        <text text-anchor="middle" dy="0.6em">15</text>
      </g>
    </g>
    <g transform="translate(44.12,81.72)">
      <g class="primitive">
        <text text-anchor="middle" dy="0.6em">16</text>
      </g>
    </g>
    <g transform="translate(54.15,81.72)">
      <g class="primitive">
        <text text-anchor="middle" dy="0.6em">17</text>
      </g>
    </g>
    <g transform="translate(64.19,81.72)">
      <g class="primitive">
        <text text-anchor="middle" dy="0.6em">18</text>
      </g>
    </g>
    <g transform="translate(74.22,81.72)">
      <g class="primitive">
        <text text-anchor="middle" dy="0.6em">19</text>
      </g>
    </g>
    <g transform="translate(84.25,81.72)">
      <g class="primitive">
        <text text-anchor="middle" dy="0.6em">20</text>
      </g>
    </g>
    <g transform="translate(94.29,81.72)">
      <g class="primitive">
        <text text-anchor="middle" dy="0.6em">21</text>
      </g>
    </g>
    <g transform="translate(104.32,81.72)">
      <g class="primitive">
        <text text-anchor="middle" dy="0.6em">22</text>
      </g>
    </g>
    <g transform="translate(114.35,81.72)">
      <g class="primitive">
        <text text-anchor="middle" dy="0.6em">23</text>
      </g>
    </g>
    <g transform="translate(124.39,81.72)">
      <g class="primitive">
        <text text-anchor="middle" dy="0.6em">24</text>
      </g>
    </g>
    <g transform="translate(134.42,81.72)">
      <g class="primitive">
        <text text-anchor="middle" dy="0.6em">25</text>
      </g>
    </g>
  </g>
  <g clip-path="url(#img-c1efcc9f-4)">
    <g id="img-c1efcc9f-5">
      <g pointer-events="visible" fill="#000000" fill-opacity="0.000" stroke="#000000" stroke-opacity="0.000" class="guide background" id="img-c1efcc9f-6">
        <g transform="translate(74.22,42.86)" id="img-c1efcc9f-7">
          <path d="M-62.2,-37.86 L 62.2 -37.86 62.2 37.86 -62.2 37.86 z" class="primitive"/>
        </g>
      </g>
      <g class="guide ygridlines xfixed" stroke-dasharray="0.5,0.5" stroke-width="0.2" stroke="#D0D0E0" id="img-c1efcc9f-8">
        <g transform="translate(74.22,78.71)" id="img-c1efcc9f-9">
          <path fill="none" d="M-62.2,0 L 62.2 0" class="primitive"/>
        </g>
        <g transform="translate(74.22,54.81)" id="img-c1efcc9f-10">
          <path fill="none" d="M-62.2,0 L 62.2 0" class="primitive"/>
        </g>
        <g transform="translate(74.22,30.9)" id="img-c1efcc9f-11">
          <path fill="none" d="M-62.2,0 L 62.2 0" class="primitive"/>
        </g>
        <g transform="translate(74.22,7)" id="img-c1efcc9f-12">
          <path fill="none" d="M-62.2,0 L 62.2 0" class="primitive"/>
        </g>
      </g>
      <g class="guide xgridlines yfixed" stroke-dasharray="0.5,0.5" stroke-width="0.2" stroke="#D0D0E0" id="img-c1efcc9f-13">
        <g transform="translate(14.02,42.86)" id="img-c1efcc9f-14">
          <path fill="none" d="M0,-37.86 L 0 37.86" class="primitive"/>
        </g>
        <g transform="translate(24.05,42.86)" id="img-c1efcc9f-15">
          <path fill="none" d="M0,-37.86 L 0 37.86" class="primitive"/>
        </g>
        <g transform="translate(34.09,42.86)" id="img-c1efcc9f-16">
          <path fill="none" d="M0,-37.86 L 0 37.86" class="primitive"/>
        </g>
        <g transform="translate(44.12,42.86)" id="img-c1efcc9f-17">
          <path fill="none" d="M0,-37.86 L 0 37.86" class="primitive"/>
        </g>
        <g transform="translate(54.15,42.86)" id="img-c1efcc9f-18">
          <path fill="none" d="M0,-37.86 L 0 37.86" class="primitive"/>
        </g>
        <g transform="translate(64.19,42.86)" id="img-c1efcc9f-19">
          <path fill="none" d="M0,-37.86 L 0 37.86" class="primitive"/>
        </g>
        <g transform="translate(74.22,42.86)" id="img-c1efcc9f-20">
          <path fill="none" d="M0,-37.86 L 0 37.86" class="primitive"/>
        </g>
        <g transform="translate(84.25,42.86)" id="img-c1efcc9f-21">
          <path fill="none" d="M0,-37.86 L 0 37.86" class="primitive"/>
        </g>
        <g transform="translate(94.29,42.86)" id="img-c1efcc9f-22">
          <path fill="none" d="M0,-37.86 L 0 37.86" class="primitive"/>
        </g>
        <g transform="translate(104.32,42.86)" id="img-c1efcc9f-23">
          <path fill="none" d="M0,-37.86 L 0 37.86" class="primitive"/>
        </g>
        <g transform="translate(114.35,42.86)" id="img-c1efcc9f-24">
          <path fill="none" d="M0,-37.86 L 0 37.86" class="primitive"/>
        </g>
        <g transform="translate(124.39,42.86)" id="img-c1efcc9f-25">
          <path fill="none" d="M0,-37.86 L 0 37.86" class="primitive"/>
        </g>
        <g transform="translate(134.42,42.86)" id="img-c1efcc9f-26">
          <path fill="none" d="M0,-37.86 L 0 37.86" class="primitive"/>
        </g>
      </g>
      <g class="plotpanel" id="img-c1efcc9f-27">
        <metadata>
          <boundingbox value="12.02000000000001mm 5.0mm 124.4013562373095mm 75.715mm"/>
          <unitbox value="12.800666697203175 308.3664505333612 12.398666605593649 -316.7329010667225"/>
        </metadata>
        <g shape-rendering="crispEdges" stroke-width="0.3" id="img-c1efcc9f-28">
          <g stroke="#000000" stroke-opacity="0.000" class="geometry" fill="#00BFFF" id="img-c1efcc9f-29">
            <g transform="translate(19.04,46.2)" id="img-c1efcc9f-30">
              <path d="M-5.04,-32.51 L 5.04 -32.51 5.04 32.51 -5.04 32.51 z" class="primitive"/>
            </g>
            <g transform="translate(29.07,69.75)" id="img-c1efcc9f-31">
              <path d="M-5.04,-8.96 L 5.04 -8.96 5.04 8.96 -5.04 8.96 z" class="primitive"/>
            </g>
            <g transform="translate(39.1,69.27)" id="img-c1efcc9f-32">
              <path d="M-5.04,-9.44 L 5.04 -9.44 5.04 9.44 -5.04 9.44 z" class="primitive"/>
            </g>
            <g transform="translate(49.14,66.76)" id="img-c1efcc9f-33">
              <path d="M-5.04,-11.95 L 5.04 -11.95 5.04 11.95 -5.04 11.95 z" class="primitive"/>
            </g>
            <g transform="translate(59.17,66.05)" id="img-c1efcc9f-34">
              <path d="M-5.04,-12.67 L 5.04 -12.67 5.04 12.67 -5.04 12.67 z" class="primitive"/>
            </g>
            <g transform="translate(69.2,67.24)" id="img-c1efcc9f-35">
              <path d="M-5.04,-11.47 L 5.04 -11.47 5.04 11.47 -5.04 11.47 z" class="primitive"/>
            </g>
            <g transform="translate(79.24,69.75)" id="img-c1efcc9f-36">
              <path d="M-5.04,-8.96 L 5.04 -8.96 5.04 8.96 -5.04 8.96 z" class="primitive"/>
            </g>
            <g transform="translate(89.27,64.97)" id="img-c1efcc9f-37">
              <path d="M-5.04,-13.75 L 5.04 -13.75 5.04 13.75 -5.04 13.75 z" class="primitive"/>
            </g>
            <g transform="translate(99.3,64.61)" id="img-c1efcc9f-38">
              <path d="M-5.04,-14.1 L 5.04 -14.1 5.04 14.1 -5.04 14.1 z" class="primitive"/>
            </g>
            <g transform="translate(109.34,68.44)" id="img-c1efcc9f-39">
              <path d="M-5.04,-10.28 L 5.04 -10.28 5.04 10.28 -5.04 10.28 z" class="primitive"/>
            </g>
            <g transform="translate(119.37,69.75)" id="img-c1efcc9f-40">
              <path d="M-5.04,-8.96 L 5.04 -8.96 5.04 8.96 -5.04 8.96 z" class="primitive"/>
            </g>
            <g transform="translate(129.4,48.12)" id="img-c1efcc9f-41">
              <path d="M-5.04,-30.6 L 5.04 -30.6 5.04 30.6 -5.04 30.6 z" class="primitive"/>
            </g>
          </g>
        </g>
      </g>
    </g>
  </g>
  <g class="guide ylabels" font-size="2.82" font-family="'PT Sans Caption','Helvetica Neue','Helvetica',sans-serif" fill="#6C606B" id="img-c1efcc9f-42">
    <g transform="translate(11.02,78.71)" id="img-c1efcc9f-43">
      <g class="primitive">
        <text text-anchor="end" dy="0.35em">0</text>
      </g>
    </g>
    <g transform="translate(11.02,54.81)" id="img-c1efcc9f-44">
      <g class="primitive">
        <text text-anchor="end" dy="0.35em">100</text>
      </g>
    </g>
    <g transform="translate(11.02,30.9)" id="img-c1efcc9f-45">
      <g class="primitive">
        <text text-anchor="end" dy="0.35em">200</text>
      </g>
    </g>
    <g transform="translate(11.02,7)" id="img-c1efcc9f-46">
      <g class="primitive">
        <text text-anchor="end" dy="0.35em">300</text>
      </g>
    </g>
  </g>
</g>
<defs>
  <clipPath id="img-c1efcc9f-4">
    <path d="M12.02,5 L 136.42 5 136.42 80.72 12.02 80.72" />
  </clipPath>
</defs>
</svg>
