<?xml version="1.0" encoding="UTF-8"?>
<svg xmlns="http://www.w3.org/2000/svg"
     xmlns:xlink="http://www.w3.org/1999/xlink"
     xmlns:gadfly="http://www.gadflyjl.org/ns"
     version="1.2"
     width="141.42mm" height="100mm" viewBox="0 0 141.42 100"
     stroke="none"
     fill="#000000"
     stroke-width="0.3"
     font-size="3.88"
>
<defs>
  <marker id="arrow" markerWidth="15" markerHeight="7" refX="5" refY="3.5" orient="auto" markerUnits="strokeWidth">
    <path d="M0,0 L15,3.5 L0,7 z" stroke="context-stroke" fill="context-stroke"/>
  </marker>
</defs>
<g class="plotroot xscalable yscalable" id="img-6975b0c4-1">
  <g font-size="3.88" font-family="'PT Sans','Helvetica Neue','Helvetica',sans-serif" fill="#564A55" stroke="#000000" stroke-opacity="0.000" id="img-6975b0c4-2">
    <g transform="translate(73.38,88.39)">
      <g class="primitive">
        <text text-anchor="middle" dy="0.6em">x</text>
      </g>
    </g>
  </g>
  <g class="guide xlabels" font-size="2.82" font-family="'PT Sans Caption','Helvetica Neue','Helvetica',sans-serif" fill="#6C606B" id="img-6975b0c4-3">
    <g transform="translate(12.35,81.72)">
      <g class="primitive">
        <text text-anchor="middle" dy="0.6em">0</text>
      </g>
    </g>
    <g transform="translate(36.76,81.72)">
      <g class="primitive">
        <text text-anchor="middle" dy="0.6em">100</text>
      </g>
    </g>
    <g transform="translate(61.18,81.72)">
      <g class="primitive">
        <text text-anchor="middle" dy="0.6em">200</text>
      </g>
    </g>
    <g transform="translate(85.59,81.72)">
      <g class="primitive">
        <text text-anchor="middle" dy="0.6em">300</text>
      </g>
    </g>
    <g transform="translate(110.01,81.72)">
      <g class="primitive">
        <text text-anchor="middle" dy="0.6em">400</text>
      </g>
    </g>
    <g transform="translate(134.42,81.72)">
      <g class="primitive">
        <text text-anchor="middle" dy="0.6em">500</text>
      </g>
    </g>
  </g>
  <g clip-path="url(#img-6975b0c4-4)">
    <g id="img-6975b0c4-5">
      <g pointer-events="visible" fill="#000000" fill-opacity="0.000" stroke="#000000" stroke-opacity="0.000" class="guide background" id="img-6975b0c4-6">
        <g transform="translate(73.38,42.86)" id="img-6975b0c4-7">
          <path d="M-63.04,-37.86 L 63.04 -37.86 63.04 37.86 -63.04 37.86 z" class="primitive"/>
        </g>
      </g>
      <g class="guide ygridlines xfixed" stroke-dasharray="0.5,0.5" stroke-width="0.2" stroke="#D0D0E0" id="img-6975b0c4-8">
        <g transform="translate(73.38,78.71)" id="img-6975b0c4-9">
          <path fill="none" d="M-63.04,0 L 63.04 0" class="primitive"/>
        </g>
        <g transform="translate(73.38,64.37)" id="img-6975b0c4-10">
          <path fill="none" d="M-63.04,0 L 63.04 0" class="primitive"/>
        </g>
        <g transform="translate(73.38,50.03)" id="img-6975b0c4-11">
          <path fill="none" d="M-63.04,0 L 63.04 0" class="primitive"/>
        </g>
        <g transform="translate(73.38,35.69)" id="img-6975b0c4-12">
          <path fill="none" d="M-63.04,0 L 63.04 0" class="primitive"/>
        </g>
        <g transform="translate(73.38,21.34)" id="img-6975b0c4-13">
          <path fill="none" d="M-63.04,0 L 63.04 0" class="primitive"/>
        </g>
        <g transform="translate(73.38,7)" id="img-6975b0c4-14">
          <path fill="none" d="M-63.04,0 L 63.04 0" class="primitive"/>
        </g>
      </g>
      <g class="guide xgridlines yfixed" stroke-dasharray="0.5,0.5" stroke-width="0.2" stroke="#D0D0E0" id="img-6975b0c4-15">
        <g transform="translate(12.35,42.86)" id="img-6975b0c4-16">
          <path fill="none" d="M0,-37.86 L 0 37.86" class="primitive"/>
        </g>
        <g transform="translate(36.76,42.86)" id="img-6975b0c4-17">
          <path fill="none" d="M0,-37.86 L 0 37.86" class="primitive"/>
        </g>
        <g transform="translate(61.18,42.86)" id="img-6975b0c4-18">
          <path fill="none" d="M0,-37.86 L 0 37.86" class="primitive"/>
        </g>
        <g transform="translate(85.59,42.86)" id="img-6975b0c4-19">
          <path fill="none" d="M0,-37.86 L 0 37.86" class="primitive"/>
        </g>
        <g transform="translate(110.01,42.86)" id="img-6975b0c4-20">
          <path fill="none" d="M0,-37.86 L 0 37.86" class="primitive"/>
        </g>
        <g transform="translate(134.42,42.86)" id="img-6975b0c4-21">
          <path fill="none" d="M0,-37.86 L 0 37.86" class="primitive"/>
        </g>
      </g>
      <g class="plotpanel" id="img-6975b0c4-22">
        <metadata>
          <boundingbox value="10.346666666666664mm 5.0mm 126.07468957064285mm 75.715mm"/>
          <unitbox value="-8.191706270293766 25.697204211113434 516.3834125405875 -26.394408422226874"/>
        </metadata>
        <g shape-rendering="crispEdges" stroke-width="0.3" id="img-6975b0c4-23">
          <g stroke="#000000" stroke-opacity="0.000" class="geometry" fill="#00BFFF" id="img-6975b0c4-24">
            <g transform="translate(12.92,64.37)" id="img-6975b0c4-25">
              <path d="M-0.35,-14.34 L 0.35 -14.34 0.35 14.34 -0.35 14.34 z" class="primitive"/>
            </g>
            <g transform="translate(13.58,70.11)" id="img-6975b0c4-26">
              <path d="M-0.35,-8.61 L 0.35 -8.61 0.35 8.61 -0.35 8.61 z" class="primitive"/>
            </g>
            <g transform="translate(14.24,61.5)" id="img-6975b0c4-27">
              <path d="M-0.35,-17.21 L 0.35 -17.21 0.35 17.21 -0.35 17.21 z" class="primitive"/>
            </g>
            <g transform="translate(14.9,61.5)" id="img-6975b0c4-28">
              <path d="M-0.35,-17.21 L 0.35 -17.21 0.35 17.21 -0.35 17.21 z" class="primitive"/>
            </g>
            <g transform="translate(15.56,54.33)" id="img-6975b0c4-29">
              <path d="M-0.35,-24.38 L 0.35 -24.38 0.35 24.38 -0.35 24.38 z" class="primitive"/>
            </g>
            <g transform="translate(16.22,61.5)" id="img-6975b0c4-30">
              <path d="M-0.35,-17.21 L 0.35 -17.21 0.35 17.21 -0.35 17.21 z" class="primitive"/>
            </g>
            <g transform="translate(16.88,68.67)" id="img-6975b0c4-31">
              <path d="M-0.35,-10.04 L 0.35 -10.04 0.35 10.04 -0.35 10.04 z" class="primitive"/>
            </g>
            <g transform="translate(17.53,62.94)" id="img-6975b0c4-32">
              <path d="M-0.35,-15.78 L 0.35 -15.78 0.35 15.78 -0.35 15.78 z" class="primitive"/>
            </g>
            <g transform="translate(18.19,70.11)" id="img-6975b0c4-33">
              <path d="M-0.35,-8.61 L 0.35 -8.61 0.35 8.61 -0.35 8.61 z" class="primitive"/>
            </g>
            <g transform="translate(18.85,70.11)" id="img-6975b0c4-34">
              <path d="M-0.35,-8.61 L 0.35 -8.61 0.35 8.61 -0.35 8.61 z" class="primitive"/>
            </g>
            <g transform="translate(19.51,61.5)" id="img-6975b0c4-35">
              <path d="M-0.35,-17.21 L 0.35 -17.21 0.35 17.21 -0.35 17.21 z" class="primitive"/>
            </g>
            <g transform="translate(20.17,61.5)" id="img-6975b0c4-36">
              <path d="M-0.35,-17.21 L 0.35 -17.21 0.35 17.21 -0.35 17.21 z" class="primitive"/>
            </g>
            <g transform="translate(20.83,58.63)" id="img-6975b0c4-37">
              <path d="M-0.35,-20.08 L 0.35 -20.08 0.35 20.08 -0.35 20.08 z" class="primitive"/>
            </g>
            <g transform="translate(21.49,67.24)" id="img-6975b0c4-38">
              <path d="M-0.35,-11.47 L 0.35 -11.47 0.35 11.47 -0.35 11.47 z" class="primitive"/>
            </g>
            <g transform="translate(22.15,47.16)" id="img-6975b0c4-39">
              <path d="M-0.35,-31.55 L 0.35 -31.55 0.35 31.55 -0.35 31.55 z" class="primitive"/>
            </g>
            <g transform="translate(22.81,70.11)" id="img-6975b0c4-40">
              <path d="M-0.35,-8.61 L 0.35 -8.61 0.35 8.61 -0.35 8.61 z" class="primitive"/>
            </g>
            <g transform="translate(23.47,67.24)" id="img-6975b0c4-41">
              <path d="M-0.35,-11.47 L 0.35 -11.47 0.35 11.47 -0.35 11.47 z" class="primitive"/>
            </g>
            <g transform="translate(24.13,61.5)" id="img-6975b0c4-42">
              <path d="M-0.35,-17.21 L 0.35 -17.21 0.35 17.21 -0.35 17.21 z" class="primitive"/>
            </g>
            <g transform="translate(24.79,58.63)" id="img-6975b0c4-43">
              <path d="M-0.35,-20.08 L 0.35 -20.08 0.35 20.08 -0.35 20.08 z" class="primitive"/>
            </g>
            <g transform="translate(25.45,72.98)" id="img-6975b0c4-44">
              <path d="M-0.35,-5.74 L 0.35 -5.74 0.35 5.74 -0.35 5.74 z" class="primitive"/>
            </g>
            <g transform="translate(26.1,61.5)" id="img-6975b0c4-45">
              <path d="M-0.35,-17.21 L 0.35 -17.21 0.35 17.21 -0.35 17.21 z" class="primitive"/>
            </g>
            <g transform="translate(26.76,57.2)" id="img-6975b0c4-46">
              <path d="M-0.35,-21.51 L 0.35 -21.51 0.35 21.51 -0.35 21.51 z" class="primitive"/>
            </g>
            <g transform="translate(27.42,70.11)" id="img-6975b0c4-47">
              <path d="M-0.35,-8.61 L 0.35 -8.61 0.35 8.61 -0.35 8.61 z" class="primitive"/>
            </g>
            <g transform="translate(28.08,64.37)" id="img-6975b0c4-48">
              <path d="M-0.35,-14.34 L 0.35 -14.34 0.35 14.34 -0.35 14.34 z" class="primitive"/>
            </g>
            <g transform="translate(28.74,70.11)" id="img-6975b0c4-49">
              <path d="M-0.35,-8.61 L 0.35 -8.61 0.35 8.61 -0.35 8.61 z" class="primitive"/>
            </g>
            <g transform="translate(29.4,61.5)" id="img-6975b0c4-50">
              <path d="M-0.35,-17.21 L 0.35 -17.21 0.35 17.21 -0.35 17.21 z" class="primitive"/>
            </g>
            <g transform="translate(30.06,71.54)" id="img-6975b0c4-51">
              <path d="M-0.35,-7.17 L 0.35 -7.17 0.35 7.17 -0.35 7.17 z" class="primitive"/>
            </g>
            <g transform="translate(30.72,51.46)" id="img-6975b0c4-52">
              <path d="M-0.35,-27.25 L 0.35 -27.25 0.35 27.25 -0.35 27.25 z" class="primitive"/>
            </g>
            <g transform="translate(31.38,70.11)" id="img-6975b0c4-53">
              <path d="M-0.35,-8.61 L 0.35 -8.61 0.35 8.61 -0.35 8.61 z" class="primitive"/>
            </g>
            <g transform="translate(32.04,61.5)" id="img-6975b0c4-54">
              <path d="M-0.35,-17.21 L 0.35 -17.21 0.35 17.21 -0.35 17.21 z" class="primitive"/>
            </g>
            <g transform="translate(32.7,67.24)" id="img-6975b0c4-55">
              <path d="M-0.35,-11.47 L 0.35 -11.47 0.35 11.47 -0.35 11.47 z" class="primitive"/>
            </g>
            <g transform="translate(33.36,58.63)" id="img-6975b0c4-56">
              <path d="M-0.35,-20.08 L 0.35 -20.08 0.35 20.08 -0.35 20.08 z" class="primitive"/>
            </g>
            <g transform="translate(34.01,70.11)" id="img-6975b0c4-57">
              <path d="M-0.35,-8.61 L 0.35 -8.61 0.35 8.61 -0.35 8.61 z" class="primitive"/>
            </g>
            <g transform="translate(34.67,64.37)" id="img-6975b0c4-58">
              <path d="M-0.35,-14.34 L 0.35 -14.34 0.35 14.34 -0.35 14.34 z" class="primitive"/>
            </g>
            <g transform="translate(35.33,58.63)" id="img-6975b0c4-59">
              <path d="M-0.35,-20.08 L 0.35 -20.08 0.35 20.08 -0.35 20.08 z" class="primitive"/>
            </g>
            <g transform="translate(35.99,61.5)" id="img-6975b0c4-60">
              <path d="M-0.35,-17.21 L 0.35 -17.21 0.35 17.21 -0.35 17.21 z" class="primitive"/>
            </g>
            <g transform="translate(36.65,72.98)" id="img-6975b0c4-61">
              <path d="M-0.35,-5.74 L 0.35 -5.74 0.35 5.74 -0.35 5.74 z" class="primitive"/>
            </g>
            <g transform="translate(37.31,61.5)" id="img-6975b0c4-62">
              <path d="M-0.35,-17.21 L 0.35 -17.21 0.35 17.21 -0.35 17.21 z" class="primitive"/>
            </g>
            <g transform="translate(37.97,70.11)" id="img-6975b0c4-63">
              <path d="M-0.35,-8.61 L 0.35 -8.61 0.35 8.61 -0.35 8.61 z" class="primitive"/>
            </g>
            <g transform="translate(38.63,64.37)" id="img-6975b0c4-64">
              <path d="M-0.35,-14.34 L 0.35 -14.34 0.35 14.34 -0.35 14.34 z" class="primitive"/>
            </g>
            <g transform="translate(39.29,61.5)" id="img-6975b0c4-65">
              <path d="M-0.35,-17.21 L 0.35 -17.21 0.35 17.21 -0.35 17.21 z" class="primitive"/>
            </g>
            <g transform="translate(39.95,70.11)" id="img-6975b0c4-66">
              <path d="M-0.35,-8.61 L 0.35 -8.61 0.35 8.61 -0.35 8.61 z" class="primitive"/>
            </g>
            <g transform="translate(40.61,52.9)" id="img-6975b0c4-67">
              <path d="M-0.35,-25.82 L 0.35 -25.82 0.35 25.82 -0.35 25.82 z" class="primitive"/>
            </g>
            <g transform="translate(41.27,72.98)" id="img-6975b0c4-68">
              <path d="M-0.35,-5.74 L 0.35 -5.74 0.35 5.74 -0.35 5.74 z" class="primitive"/>
            </g>
            <g transform="translate(41.93,70.11)" id="img-6975b0c4-69">
              <path d="M-0.35,-8.61 L 0.35 -8.61 0.35 8.61 -0.35 8.61 z" class="primitive"/>
            </g>
            <g transform="translate(42.58,61.5)" id="img-6975b0c4-70">
              <path d="M-0.35,-17.21 L 0.35 -17.21 0.35 17.21 -0.35 17.21 z" class="primitive"/>
            </g>
            <g transform="translate(43.24,61.5)" id="img-6975b0c4-71">
              <path d="M-0.35,-17.21 L 0.35 -17.21 0.35 17.21 -0.35 17.21 z" class="primitive"/>
            </g>
            <g transform="translate(43.9,54.33)" id="img-6975b0c4-72">
              <path d="M-0.35,-24.38 L 0.35 -24.38 0.35 24.38 -0.35 24.38 z" class="primitive"/>
            </g>
            <g transform="translate(44.56,61.5)" id="img-6975b0c4-73">
              <path d="M-0.35,-17.21 L 0.35 -17.21 0.35 17.21 -0.35 17.21 z" class="primitive"/>
            </g>
            <g transform="translate(45.22,68.67)" id="img-6975b0c4-74">
              <path d="M-0.35,-10.04 L 0.35 -10.04 0.35 10.04 -0.35 10.04 z" class="primitive"/>
            </g>
            <g transform="translate(45.88,65.81)" id="img-6975b0c4-75">
              <path d="M-0.35,-12.91 L 0.35 -12.91 0.35 12.91 -0.35 12.91 z" class="primitive"/>
            </g>
            <g transform="translate(46.54,70.11)" id="img-6975b0c4-76">
              <path d="M-0.35,-8.61 L 0.35 -8.61 0.35 8.61 -0.35 8.61 z" class="primitive"/>
            </g>
            <g transform="translate(47.2,64.37)" id="img-6975b0c4-77">
              <path d="M-0.35,-14.34 L 0.35 -14.34 0.35 14.34 -0.35 14.34 z" class="primitive"/>
            </g>
            <g transform="translate(47.86,75.85)" id="img-6975b0c4-78">
              <path d="M-0.35,-2.87 L 0.35 -2.87 0.35 2.87 -0.35 2.87 z" class="primitive"/>
            </g>
            <g transform="translate(48.52,67.24)" id="img-6975b0c4-79">
              <path d="M-0.35,-11.47 L 0.35 -11.47 0.35 11.47 -0.35 11.47 z" class="primitive"/>
            </g>
            <g transform="translate(49.18,61.5)" id="img-6975b0c4-80">
              <path d="M-0.35,-17.21 L 0.35 -17.21 0.35 17.21 -0.35 17.21 z" class="primitive"/>
            </g>
            <g transform="translate(49.84,67.24)" id="img-6975b0c4-81">
              <path d="M-0.35,-11.47 L 0.35 -11.47 0.35 11.47 -0.35 11.47 z" class="primitive"/>
            </g>
            <g transform="translate(50.5,64.37)" id="img-6975b0c4-82">
              <path d="M-0.35,-14.34 L 0.35 -14.34 0.35 14.34 -0.35 14.34 z" class="primitive"/>
            </g>
            <g transform="translate(51.15,50.03)" id="img-6975b0c4-83">
              <path d="M-0.35,-28.69 L 0.35 -28.69 0.35 28.69 -0.35 28.69 z" class="primitive"/>
            </g>
            <g transform="translate(51.81,70.11)" id="img-6975b0c4-84">
              <path d="M-0.35,-8.61 L 0.35 -8.61 0.35 8.61 -0.35 8.61 z" class="primitive"/>
            </g>
            <g transform="translate(52.47,72.98)" id="img-6975b0c4-85">
              <path d="M-0.35,-5.74 L 0.35 -5.74 0.35 5.74 -0.35 5.74 z" class="primitive"/>
            </g>
            <g transform="translate(53.13,60.07)" id="img-6975b0c4-86">
              <path d="M-0.35,-18.65 L 0.35 -18.65 0.35 18.65 -0.35 18.65 z" class="primitive"/>
            </g>
            <g transform="translate(53.79,70.11)" id="img-6975b0c4-87">
              <path d="M-0.35,-8.61 L 0.35 -8.61 0.35 8.61 -0.35 8.61 z" class="primitive"/>
            </g>
            <g transform="translate(54.45,71.54)" id="img-6975b0c4-88">
              <path d="M-0.35,-7.17 L 0.35 -7.17 0.35 7.17 -0.35 7.17 z" class="primitive"/>
            </g>
            <g transform="translate(55.11,70.11)" id="img-6975b0c4-89">
              <path d="M-0.35,-8.61 L 0.35 -8.61 0.35 8.61 -0.35 8.61 z" class="primitive"/>
            </g>
            <g transform="translate(55.77,51.46)" id="img-6975b0c4-90">
              <path d="M-0.35,-27.25 L 0.35 -27.25 0.35 27.25 -0.35 27.25 z" class="primitive"/>
            </g>
            <g transform="translate(56.43,72.98)" id="img-6975b0c4-91">
              <path d="M-0.35,-5.74 L 0.35 -5.74 0.35 5.74 -0.35 5.74 z" class="primitive"/>
            </g>
            <g transform="translate(57.09,60.07)" id="img-6975b0c4-92">
              <path d="M-0.35,-18.65 L 0.35 -18.65 0.35 18.65 -0.35 18.65 z" class="primitive"/>
            </g>
            <g transform="translate(57.75,61.5)" id="img-6975b0c4-93">
              <path d="M-0.35,-17.21 L 0.35 -17.21 0.35 17.21 -0.35 17.21 z" class="primitive"/>
            </g>
            <g transform="translate(58.41,72.98)" id="img-6975b0c4-94">
              <path d="M-0.35,-5.74 L 0.35 -5.74 0.35 5.74 -0.35 5.74 z" class="primitive"/>
            </g>
            <g transform="translate(59.06,67.24)" id="img-6975b0c4-95">
              <path d="M-0.35,-11.47 L 0.35 -11.47 0.35 11.47 -0.35 11.47 z" class="primitive"/>
            </g>
            <g transform="translate(59.72,61.5)" id="img-6975b0c4-96">
              <path d="M-0.35,-17.21 L 0.35 -17.21 0.35 17.21 -0.35 17.21 z" class="primitive"/>
            </g>
            <g transform="translate(60.38,61.5)" id="img-6975b0c4-97">
              <path d="M-0.35,-17.21 L 0.35 -17.21 0.35 17.21 -0.35 17.21 z" class="primitive"/>
            </g>
            <g transform="translate(61.04,64.37)" id="img-6975b0c4-98">
              <path d="M-0.35,-14.34 L 0.35 -14.34 0.35 14.34 -0.35 14.34 z" class="primitive"/>
            </g>
            <g transform="translate(61.7,61.5)" id="img-6975b0c4-99">
              <path d="M-0.35,-17.21 L 0.35 -17.21 0.35 17.21 -0.35 17.21 z" class="primitive"/>
            </g>
            <g transform="translate(62.36,51.46)" id="img-6975b0c4-100">
              <path d="M-0.35,-27.25 L 0.35 -27.25 0.35 27.25 -0.35 27.25 z" class="primitive"/>
            </g>
            <g transform="translate(63.02,68.67)" id="img-6975b0c4-101">
              <path d="M-0.35,-10.04 L 0.35 -10.04 0.35 10.04 -0.35 10.04 z" class="primitive"/>
            </g>
            <g transform="translate(63.68,64.37)" id="img-6975b0c4-102">
              <path d="M-0.35,-14.34 L 0.35 -14.34 0.35 14.34 -0.35 14.34 z" class="primitive"/>
            </g>
            <g transform="translate(64.34,60.07)" id="img-6975b0c4-103">
              <path d="M-0.35,-18.65 L 0.35 -18.65 0.35 18.65 -0.35 18.65 z" class="primitive"/>
            </g>
            <g transform="translate(65,64.37)" id="img-6975b0c4-104">
              <path d="M-0.35,-14.34 L 0.35 -14.34 0.35 14.34 -0.35 14.34 z" class="primitive"/>
            </g>
            <g transform="translate(65.66,64.37)" id="img-6975b0c4-105">
              <path d="M-0.35,-14.34 L 0.35 -14.34 0.35 14.34 -0.35 14.34 z" class="primitive"/>
            </g>
            <g transform="translate(66.32,65.81)" id="img-6975b0c4-106">
              <path d="M-0.35,-12.91 L 0.35 -12.91 0.35 12.91 -0.35 12.91 z" class="primitive"/>
            </g>
            <g transform="translate(66.98,78.72)" id="img-6975b0c4-107">
              <path d="M-0.35,-0 L 0.35 -0 0.35 0 -0.35 0 z" class="primitive"/>
            </g>
            <g transform="translate(67.63,78.72)" id="img-6975b0c4-108">
              <path d="M-0.35,-0 L 0.35 -0 0.35 0 -0.35 0 z" class="primitive"/>
            </g>
            <g transform="translate(68.29,55.77)" id="img-6975b0c4-109">
              <path d="M-0.35,-22.95 L 0.35 -22.95 0.35 22.95 -0.35 22.95 z" class="primitive"/>
            </g>
            <g transform="translate(68.95,70.11)" id="img-6975b0c4-110">
              <path d="M-0.35,-8.61 L 0.35 -8.61 0.35 8.61 -0.35 8.61 z" class="primitive"/>
            </g>
            <g transform="translate(69.61,60.07)" id="img-6975b0c4-111">
              <path d="M-0.35,-18.65 L 0.35 -18.65 0.35 18.65 -0.35 18.65 z" class="primitive"/>
            </g>
            <g transform="translate(70.27,61.5)" id="img-6975b0c4-112">
              <path d="M-0.35,-17.21 L 0.35 -17.21 0.35 17.21 -0.35 17.21 z" class="primitive"/>
            </g>
            <g transform="translate(70.93,64.37)" id="img-6975b0c4-113">
              <path d="M-0.35,-14.34 L 0.35 -14.34 0.35 14.34 -0.35 14.34 z" class="primitive"/>
            </g>
            <g transform="translate(71.59,65.81)" id="img-6975b0c4-114">
              <path d="M-0.35,-12.91 L 0.35 -12.91 0.35 12.91 -0.35 12.91 z" class="primitive"/>
            </g>
            <g transform="translate(72.25,58.63)" id="img-6975b0c4-115">
              <path d="M-0.35,-20.08 L 0.35 -20.08 0.35 20.08 -0.35 20.08 z" class="primitive"/>
            </g>
            <g transform="translate(72.91,64.37)" id="img-6975b0c4-116">
              <path d="M-0.35,-14.34 L 0.35 -14.34 0.35 14.34 -0.35 14.34 z" class="primitive"/>
            </g>
            <g transform="translate(73.57,65.81)" id="img-6975b0c4-117">
              <path d="M-0.35,-12.91 L 0.35 -12.91 0.35 12.91 -0.35 12.91 z" class="primitive"/>
            </g>
            <g transform="translate(74.23,78.72)" id="img-6975b0c4-118">
              <path d="M-0.35,-0 L 0.35 -0 0.35 0 -0.35 0 z" class="primitive"/>
            </g>
            <g transform="translate(74.89,78.72)" id="img-6975b0c4-119">
              <path d="M-0.35,-0 L 0.35 -0 0.35 0 -0.35 0 z" class="primitive"/>
            </g>
            <g transform="translate(75.54,60.07)" id="img-6975b0c4-120">
              <path d="M-0.35,-18.65 L 0.35 -18.65 0.35 18.65 -0.35 18.65 z" class="primitive"/>
            </g>
            <g transform="translate(76.2,75.85)" id="img-6975b0c4-121">
              <path d="M-0.35,-2.87 L 0.35 -2.87 0.35 2.87 -0.35 2.87 z" class="primitive"/>
            </g>
            <g transform="translate(76.86,64.37)" id="img-6975b0c4-122">
              <path d="M-0.35,-14.34 L 0.35 -14.34 0.35 14.34 -0.35 14.34 z" class="primitive"/>
            </g>
            <g transform="translate(77.52,61.5)" id="img-6975b0c4-123">
              <path d="M-0.35,-17.21 L 0.35 -17.21 0.35 17.21 -0.35 17.21 z" class="primitive"/>
            </g>
            <g transform="translate(78.18,67.24)" id="img-6975b0c4-124">
              <path d="M-0.35,-11.47 L 0.35 -11.47 0.35 11.47 -0.35 11.47 z" class="primitive"/>
            </g>
            <g transform="translate(78.84,65.81)" id="img-6975b0c4-125">
              <path d="M-0.35,-12.91 L 0.35 -12.91 0.35 12.91 -0.35 12.91 z" class="primitive"/>
            </g>
            <g transform="translate(79.5,70.11)" id="img-6975b0c4-126">
              <path d="M-0.35,-8.61 L 0.35 -8.61 0.35 8.61 -0.35 8.61 z" class="primitive"/>
            </g>
            <g transform="translate(80.16,58.63)" id="img-6975b0c4-127">
              <path d="M-0.35,-20.08 L 0.35 -20.08 0.35 20.08 -0.35 20.08 z" class="primitive"/>
            </g>
            <g transform="translate(80.82,72.98)" id="img-6975b0c4-128">
              <path d="M-0.35,-5.74 L 0.35 -5.74 0.35 5.74 -0.35 5.74 z" class="primitive"/>
            </g>
            <g transform="translate(81.48,70.11)" id="img-6975b0c4-129">
              <path d="M-0.35,-8.61 L 0.35 -8.61 0.35 8.61 -0.35 8.61 z" class="primitive"/>
            </g>
            <g transform="translate(82.14,55.77)" id="img-6975b0c4-130">
              <path d="M-0.35,-22.95 L 0.35 -22.95 0.35 22.95 -0.35 22.95 z" class="primitive"/>
            </g>
            <g transform="translate(82.8,61.5)" id="img-6975b0c4-131">
              <path d="M-0.35,-17.21 L 0.35 -17.21 0.35 17.21 -0.35 17.21 z" class="primitive"/>
            </g>
            <g transform="translate(83.46,57.2)" id="img-6975b0c4-132">
              <path d="M-0.35,-21.51 L 0.35 -21.51 0.35 21.51 -0.35 21.51 z" class="primitive"/>
            </g>
            <g transform="translate(84.11,60.07)" id="img-6975b0c4-133">
              <path d="M-0.35,-18.65 L 0.35 -18.65 0.35 18.65 -0.35 18.65 z" class="primitive"/>
            </g>
            <g transform="translate(84.77,57.2)" id="img-6975b0c4-134">
              <path d="M-0.35,-21.51 L 0.35 -21.51 0.35 21.51 -0.35 21.51 z" class="primitive"/>
            </g>
            <g transform="translate(85.43,67.24)" id="img-6975b0c4-135">
              <path d="M-0.35,-11.47 L 0.35 -11.47 0.35 11.47 -0.35 11.47 z" class="primitive"/>
            </g>
            <g transform="translate(86.09,52.9)" id="img-6975b0c4-136">
              <path d="M-0.35,-25.82 L 0.35 -25.82 0.35 25.82 -0.35 25.82 z" class="primitive"/>
            </g>
            <g transform="translate(86.75,52.9)" id="img-6975b0c4-137">
              <path d="M-0.35,-25.82 L 0.35 -25.82 0.35 25.82 -0.35 25.82 z" class="primitive"/>
            </g>
            <g transform="translate(87.41,71.54)" id="img-6975b0c4-138">
              <path d="M-0.35,-7.17 L 0.35 -7.17 0.35 7.17 -0.35 7.17 z" class="primitive"/>
            </g>
            <g transform="translate(88.07,70.11)" id="img-6975b0c4-139">
              <path d="M-0.35,-8.61 L 0.35 -8.61 0.35 8.61 -0.35 8.61 z" class="primitive"/>
            </g>
            <g transform="translate(88.73,47.16)" id="img-6975b0c4-140">
              <path d="M-0.35,-31.55 L 0.35 -31.55 0.35 31.55 -0.35 31.55 z" class="primitive"/>
            </g>
            <g transform="translate(89.39,72.98)" id="img-6975b0c4-141">
              <path d="M-0.35,-5.74 L 0.35 -5.74 0.35 5.74 -0.35 5.74 z" class="primitive"/>
            </g>
            <g transform="translate(90.05,61.5)" id="img-6975b0c4-142">
              <path d="M-0.35,-17.21 L 0.35 -17.21 0.35 17.21 -0.35 17.21 z" class="primitive"/>
            </g>
            <g transform="translate(90.71,70.11)" id="img-6975b0c4-143">
              <path d="M-0.35,-8.61 L 0.35 -8.61 0.35 8.61 -0.35 8.61 z" class="primitive"/>
            </g>
            <g transform="translate(91.37,61.5)" id="img-6975b0c4-144">
              <path d="M-0.35,-17.21 L 0.35 -17.21 0.35 17.21 -0.35 17.21 z" class="primitive"/>
            </g>
            <g transform="translate(92.02,72.98)" id="img-6975b0c4-145">
              <path d="M-0.35,-5.74 L 0.35 -5.74 0.35 5.74 -0.35 5.74 z" class="primitive"/>
            </g>
            <g transform="translate(92.68,48.59)" id="img-6975b0c4-146">
              <path d="M-0.35,-30.12 L 0.35 -30.12 0.35 30.12 -0.35 30.12 z" class="primitive"/>
            </g>
            <g transform="translate(93.34,70.11)" id="img-6975b0c4-147">
              <path d="M-0.35,-8.61 L 0.35 -8.61 0.35 8.61 -0.35 8.61 z" class="primitive"/>
            </g>
            <g transform="translate(94,65.81)" id="img-6975b0c4-148">
              <path d="M-0.35,-12.91 L 0.35 -12.91 0.35 12.91 -0.35 12.91 z" class="primitive"/>
            </g>
            <g transform="translate(94.66,74.41)" id="img-6975b0c4-149">
              <path d="M-0.35,-4.3 L 0.35 -4.3 0.35 4.3 -0.35 4.3 z" class="primitive"/>
            </g>
            <g transform="translate(95.32,67.24)" id="img-6975b0c4-150">
              <path d="M-0.35,-11.47 L 0.35 -11.47 0.35 11.47 -0.35 11.47 z" class="primitive"/>
            </g>
            <g transform="translate(95.98,67.24)" id="img-6975b0c4-151">
              <path d="M-0.35,-11.47 L 0.35 -11.47 0.35 11.47 -0.35 11.47 z" class="primitive"/>
            </g>
            <g transform="translate(96.64,61.5)" id="img-6975b0c4-152">
              <path d="M-0.35,-17.21 L 0.35 -17.21 0.35 17.21 -0.35 17.21 z" class="primitive"/>
            </g>
            <g transform="translate(97.3,64.37)" id="img-6975b0c4-153">
              <path d="M-0.35,-14.34 L 0.35 -14.34 0.35 14.34 -0.35 14.34 z" class="primitive"/>
            </g>
            <g transform="translate(97.96,70.11)" id="img-6975b0c4-154">
              <path d="M-0.35,-8.61 L 0.35 -8.61 0.35 8.61 -0.35 8.61 z" class="primitive"/>
            </g>
            <g transform="translate(98.62,55.77)" id="img-6975b0c4-155">
              <path d="M-0.35,-22.95 L 0.35 -22.95 0.35 22.95 -0.35 22.95 z" class="primitive"/>
            </g>
            <g transform="translate(99.28,70.11)" id="img-6975b0c4-156">
              <path d="M-0.35,-8.61 L 0.35 -8.61 0.35 8.61 -0.35 8.61 z" class="primitive"/>
            </g>
            <g transform="translate(99.94,48.59)" id="img-6975b0c4-157">
              <path d="M-0.35,-30.12 L 0.35 -30.12 0.35 30.12 -0.35 30.12 z" class="primitive"/>
            </g>
            <g transform="translate(100.59,70.11)" id="img-6975b0c4-158">
              <path d="M-0.35,-8.61 L 0.35 -8.61 0.35 8.61 -0.35 8.61 z" class="primitive"/>
            </g>
            <g transform="translate(101.25,74.41)" id="img-6975b0c4-159">
              <path d="M-0.35,-4.3 L 0.35 -4.3 0.35 4.3 -0.35 4.3 z" class="primitive"/>
            </g>
            <g transform="translate(101.91,61.5)" id="img-6975b0c4-160">
              <path d="M-0.35,-17.21 L 0.35 -17.21 0.35 17.21 -0.35 17.21 z" class="primitive"/>
            </g>
            <g transform="translate(102.57,72.98)" id="img-6975b0c4-161">
              <path d="M-0.35,-5.74 L 0.35 -5.74 0.35 5.74 -0.35 5.74 z" class="primitive"/>
            </g>
            <g transform="translate(103.23,67.24)" id="img-6975b0c4-162">
              <path d="M-0.35,-11.47 L 0.35 -11.47 0.35 11.47 -0.35 11.47 z" class="primitive"/>
            </g>
            <g transform="translate(103.89,75.85)" id="img-6975b0c4-163">
              <path d="M-0.35,-2.87 L 0.35 -2.87 0.35 2.87 -0.35 2.87 z" class="primitive"/>
            </g>
            <g transform="translate(104.55,75.85)" id="img-6975b0c4-164">
              <path d="M-0.35,-2.87 L 0.35 -2.87 0.35 2.87 -0.35 2.87 z" class="primitive"/>
            </g>
            <g transform="translate(105.21,62.94)" id="img-6975b0c4-165">
              <path d="M-0.35,-15.78 L 0.35 -15.78 0.35 15.78 -0.35 15.78 z" class="primitive"/>
            </g>
            <g transform="translate(105.87,70.11)" id="img-6975b0c4-166">
              <path d="M-0.35,-8.61 L 0.35 -8.61 0.35 8.61 -0.35 8.61 z" class="primitive"/>
            </g>
            <g transform="translate(106.53,61.5)" id="img-6975b0c4-167">
              <path d="M-0.35,-17.21 L 0.35 -17.21 0.35 17.21 -0.35 17.21 z" class="primitive"/>
            </g>
            <g transform="translate(107.19,72.98)" id="img-6975b0c4-168">
              <path d="M-0.35,-5.74 L 0.35 -5.74 0.35 5.74 -0.35 5.74 z" class="primitive"/>
            </g>
            <g transform="translate(107.85,61.5)" id="img-6975b0c4-169">
              <path d="M-0.35,-17.21 L 0.35 -17.21 0.35 17.21 -0.35 17.21 z" class="primitive"/>
            </g>
            <g transform="translate(108.5,70.11)" id="img-6975b0c4-170">
              <path d="M-0.35,-8.61 L 0.35 -8.61 0.35 8.61 -0.35 8.61 z" class="primitive"/>
            </g>
            <g transform="translate(109.16,62.94)" id="img-6975b0c4-171">
              <path d="M-0.35,-15.78 L 0.35 -15.78 0.35 15.78 -0.35 15.78 z" class="primitive"/>
            </g>
            <g transform="translate(109.82,54.33)" id="img-6975b0c4-172">
              <path d="M-0.35,-24.38 L 0.35 -24.38 0.35 24.38 -0.35 24.38 z" class="primitive"/>
            </g>
            <g transform="translate(110.48,74.41)" id="img-6975b0c4-173">
              <path d="M-0.35,-4.3 L 0.35 -4.3 0.35 4.3 -0.35 4.3 z" class="primitive"/>
            </g>
            <g transform="translate(111.14,58.63)" id="img-6975b0c4-174">
              <path d="M-0.35,-20.08 L 0.35 -20.08 0.35 20.08 -0.35 20.08 z" class="primitive"/>
            </g>
          </g>
        </g>
      </g>
    </g>
  </g>
  <g class="guide ylabels" font-size="2.82" font-family="'PT Sans Caption','Helvetica Neue','Helvetica',sans-serif" fill="#6C606B" id="img-6975b0c4-175">
    <g transform="translate(9.35,78.71)" id="img-6975b0c4-176">
      <g class="primitive">
        <text text-anchor="end" dy="0.35em">0</text>
      </g>
    </g>
    <g transform="translate(9.35,64.37)" id="img-6975b0c4-177">
      <g class="primitive">
        <text text-anchor="end" dy="0.35em">5</text>
      </g>
    </g>
    <g transform="translate(9.35,50.03)" id="img-6975b0c4-178">
      <g class="primitive">
        <text text-anchor="end" dy="0.35em">10</text>
      </g>
    </g>
    <g transform="translate(9.35,35.69)" id="img-6975b0c4-179">
      <g class="primitive">
        <text text-anchor="end" dy="0.35em">15</text>
      </g>
    </g>
    <g transform="translate(9.35,21.34)" id="img-6975b0c4-180">
      <g class="primitive">
        <text text-anchor="end" dy="0.35em">20</text>
      </g>
    </g>
    <g transform="translate(9.35,7)" id="img-6975b0c4-181">
      <g class="primitive">
        <text text-anchor="end" dy="0.35em">25</text>
      </g>
    </g>
  </g>
</g>
<defs>
  <clipPath id="img-6975b0c4-4">
    <path d="M10.35,5 L 136.42 5 136.42 80.72 10.35 80.72" />
  </clipPath>
</defs>
</svg>
