<?xml version="1.0" encoding="UTF-8"?>
<svg xmlns="http://www.w3.org/2000/svg"
     xmlns:xlink="http://www.w3.org/1999/xlink"
     xmlns:gadfly="http://www.gadflyjl.org/ns"
     version="1.2"
     width="300mm" height="150mm" viewBox="0 0 300 150"
     stroke="none"
     fill="#000000"
     stroke-width="0.3"
     font-size="3.88"
>
<defs>
  <marker id="arrow" markerWidth="15" markerHeight="7" refX="5" refY="3.5" orient="auto" markerUnits="strokeWidth">
    <path d="M0,0 L15,3.5 L0,7 z" stroke="context-stroke" fill="context-stroke"/>
  </marker>
</defs>
<g stroke="#000000" stroke-opacity="0.000" fill="#FFFFFF" id="img-67d5a3fb-1">
  <g transform="translate(150,75)">
    <path d="M-150,-75 L 150 -75 150 75 -150 75 z" class="primitive"/>
  </g>
</g>
<g class="plotroot xscalable yscalable" id="img-67d5a3fb-2">
  <g font-size="8.47" font-family="'PT Sans','Helvetica Neue','Helvetica',sans-serif" fill="#564A55" stroke="#000000" stroke-opacity="0.000" id="img-67d5a3fb-3">
    <g transform="translate(161.33,134.12)">
      <g class="primitive">
        <text text-anchor="middle" dy="0.6em">σ</text>
      </g>
    </g>
  </g>
  <g class="guide xlabels" font-size="4.94" font-family="'PT Sans Caption','Helvetica Neue','Helvetica',sans-serif" fill="#6C606B" id="img-67d5a3fb-4">
    <g transform="translate(29.67,125.44)">
      <g class="primitive">
        <text text-anchor="middle" dy="0.6em">0.0</text>
      </g>
    </g>
    <g transform="translate(95.5,125.44)">
      <g class="primitive">
        <text text-anchor="middle" dy="0.6em">0.5</text>
      </g>
    </g>
    <g transform="translate(161.33,125.44)">
      <g class="primitive">
        <text text-anchor="middle" dy="0.6em">1.0</text>
      </g>
    </g>
    <g transform="translate(227.17,125.44)">
      <g class="primitive">
        <text text-anchor="middle" dy="0.6em">1.5</text>
      </g>
    </g>
    <g transform="translate(293,125.44)">
      <g class="primitive">
        <text text-anchor="middle" dy="0.6em">2.0</text>
      </g>
    </g>
  </g>
  <g clip-path="url(#img-67d5a3fb-5)">
    <g id="img-67d5a3fb-6">
      <g pointer-events="visible" fill="#000000" fill-opacity="0.000" stroke="#000000" class="guide background" id="img-67d5a3fb-7">
        <g transform="translate(161.33,64.72)" id="img-67d5a3fb-8">
          <path d="M-133.67,-59.72 L 133.67 -59.72 133.67 59.72 -133.67 59.72 z" class="primitive"/>
        </g>
      </g>
      <g class="guide ygridlines xfixed" stroke-dasharray="0.5,0.5" stroke-width="0.2" stroke="#D0D0E0" id="img-67d5a3fb-9">
        <g transform="translate(161.33,122.44)" id="img-67d5a3fb-10">
          <path fill="none" d="M-133.67,0 L 133.67 0" class="primitive"/>
        </g>
        <g transform="translate(161.33,83.96)" id="img-67d5a3fb-11">
          <path fill="none" d="M-133.67,0 L 133.67 0" class="primitive"/>
        </g>
        <g transform="translate(161.33,45.48)" id="img-67d5a3fb-12">
          <path fill="none" d="M-133.67,0 L 133.67 0" class="primitive"/>
        </g>
        <g transform="translate(161.33,7)" id="img-67d5a3fb-13">
          <path fill="none" d="M-133.67,0 L 133.67 0" class="primitive"/>
        </g>
      </g>
      <g class="guide xgridlines yfixed" stroke-dasharray="0.5,0.5" stroke-width="0.2" stroke="#D0D0E0" id="img-67d5a3fb-14">
        <g transform="translate(29.67,64.72)" id="img-67d5a3fb-15">
          <path fill="none" d="M0,-59.72 L 0 59.72" class="primitive"/>
        </g>
        <g transform="translate(95.5,64.72)" id="img-67d5a3fb-16">
          <path fill="none" d="M0,-59.72 L 0 59.72" class="primitive"/>
        </g>
        <g transform="translate(161.33,64.72)" id="img-67d5a3fb-17">
          <path fill="none" d="M0,-59.72 L 0 59.72" class="primitive"/>
        </g>
        <g transform="translate(227.17,64.72)" id="img-67d5a3fb-18">
          <path fill="none" d="M0,-59.72 L 0 59.72" class="primitive"/>
        </g>
        <g transform="translate(293,64.72)" id="img-67d5a3fb-19">
          <path fill="none" d="M0,-59.72 L 0 59.72" class="primitive"/>
        </g>
      </g>
      <g class="plotpanel" id="img-67d5a3fb-20">
        <metadata>
          <boundingbox value="27.66500000000002mm 5.0mm 267.335mm 119.44166666666666mm"/>
          <unitbox value="-0.015189777279890635 152.59871507976612 2.030379554559781 -155.19743015953225"/>
        </metadata>
        <g stroke-width="0.79" fill="#000000" fill-opacity="0.000" class="geometry" id="img-67d5a3fb-21">
          <g transform="translate(167.92,60.61)" id="img-67d5a3fb-22" stroke="#00BFFF" class="color_λ" stroke-dasharray="none">
            <path fill="none" d="M-125.08,19.95 L -111.92 49.28 -98.75 41.59 -85.58 33.87 -72.42 27.2 -59.25 20.24 -46.08 3.29 -32.92 3.09 -19.75 8.6 -6.58 8.75 6.58 -24.47 19.75 -28.84 32.92 -22.96 46.08 -18.44 59.25 -6.83 72.42 -15.04 85.58 -30.7 98.75 -22.46 111.92 -15.73 125.08 -30.39" class="primitive"/>
          </g>
          <g transform="translate(167.92,103.65)" id="img-67d5a3fb-23" stroke="#D4CA3A" class="color_β" stroke-dasharray="none">
            <path fill="none" d="M-125.08,-13.54 L -111.92 12.53 -98.75 10.97 -85.58 9.91 -72.42 8.52 -59.25 7.85 -46.08 17.01 -32.92 12.23 -19.75 -0.15 -6.58 -5.77 6.58 -6.75 19.75 -12.3 32.92 13.63 46.08 2.94 59.25 -15.8 72.42 -11.62 85.58 10.79 98.75 -11.02 111.92 -23.05 125.08 -6.38" class="primitive"/>
          </g>
        </g>
      </g>
    </g>
  </g>
  <g class="guide ylabels" font-size="4.94" font-family="'PT Sans Caption','Helvetica Neue','Helvetica',sans-serif" fill="#6C606B" id="img-67d5a3fb-24">
    <g transform="translate(26.66,122.44)" id="img-67d5a3fb-25">
      <g class="primitive">
        <text text-anchor="end" dy="0.35em">0</text>
      </g>
    </g>
    <g transform="translate(26.66,83.96)" id="img-67d5a3fb-26">
      <g class="primitive">
        <text text-anchor="end" dy="0.35em">50</text>
      </g>
    </g>
    <g transform="translate(26.66,45.48)" id="img-67d5a3fb-27">
      <g class="primitive">
        <text text-anchor="end" dy="0.35em">100</text>
      </g>
    </g>
    <g transform="translate(26.66,7)" id="img-67d5a3fb-28">
      <g class="primitive">
        <text text-anchor="end" dy="0.35em">150</text>
      </g>
    </g>
  </g>
  <g font-size="8.47" font-family="'PT Sans','Helvetica Neue','Helvetica',sans-serif" fill="#564A55" stroke="#000000" stroke-opacity="0.000" id="img-67d5a3fb-29">
    <g transform="translate(10.94,62.72)" id="img-67d5a3fb-30">
      <g class="primitive">
        <text text-anchor="middle" dy="0.35em" transform="rotate(-90,0, 2)">SMSE</text>
      </g>
    </g>
  </g>
</g>
<defs>
  <clipPath id="img-67d5a3fb-5">
    <path d="M27.67,5 L 295 5 295 124.44 27.67 124.44" />
  </clipPath>
</defs>
</svg>
