<?xml version="1.0" encoding="UTF-8"?>
<svg xmlns="http://www.w3.org/2000/svg"
     xmlns:xlink="http://www.w3.org/1999/xlink"
     xmlns:gadfly="http://www.gadflyjl.org/ns"
     version="1.2"
     width="150mm" height="150mm" viewBox="0 0 150 150"
     stroke="none"
     fill="#000000"
     stroke-width="0.3"
     font-size="3.88"
>
<defs>
  <marker id="arrow" markerWidth="15" markerHeight="7" refX="5" refY="3.5" orient="auto" markerUnits="strokeWidth">
    <path d="M0,0 L15,3.5 L0,7 z" stroke="context-stroke" fill="context-stroke"/>
  </marker>
</defs>
<g stroke="#000000" stroke-opacity="0.000" fill="#FFFFFF" id="img-04d4be59-1">
  <g transform="translate(75,75)">
    <path d="M-75,-75 L 75 -75 75 75 -75 75 z" class="primitive"/>
  </g>
</g>
<g class="plotroot xscalable yscalable" id="img-04d4be59-2">
  <g font-size="8.47" font-family="'PT Sans','Helvetica Neue','Helvetica',sans-serif" fill="#564A55" stroke="#000000" stroke-opacity="0.000" id="img-04d4be59-3">
    <g transform="translate(84.95,137.64)">
      <g class="primitive">
        <text text-anchor="end" dy="0.35em" transform="rotate(-90,0, 0)">x</text>
      </g>
    </g>
  </g>
  <g class="guide xlabels" font-size="4.94" font-family="'PT Sans Caption','Helvetica Neue','Helvetica',sans-serif" fill="#6C606B" id="img-04d4be59-4">
    <g transform="translate(26.9,128.96)">
      <g class="primitive">
        <text text-anchor="middle" dy="0.6em">-2</text>
      </g>
    </g>
    <g transform="translate(55.93,128.96)">
      <g class="primitive">
        <text text-anchor="middle" dy="0.6em">-1</text>
      </g>
    </g>
    <g transform="translate(84.95,128.96)">
      <g class="primitive">
        <text text-anchor="middle" dy="0.6em">0</text>
      </g>
    </g>
    <g transform="translate(113.98,128.96)">
      <g class="primitive">
        <text text-anchor="middle" dy="0.6em">1</text>
      </g>
    </g>
    <g transform="translate(143,128.96)">
      <g class="primitive">
        <text text-anchor="middle" dy="0.6em">2</text>
      </g>
    </g>
  </g>
  <g clip-path="url(#img-04d4be59-5)">
    <g id="img-04d4be59-6">
      <g pointer-events="visible" fill="#000000" fill-opacity="0.000" stroke="#000000" class="guide background" id="img-04d4be59-7">
        <g transform="translate(84.95,71.42)" id="img-04d4be59-8">
          <path d="M-60.05,-56.54 L 60.05 -56.54 60.05 56.54 -60.05 56.54 z" class="primitive"/>
        </g>
      </g>
      <g class="guide ygridlines xfixed" stroke-dasharray="0.5,0.5" stroke-width="0.2" stroke="#D0D0E0" id="img-04d4be59-9">
        <g transform="translate(84.95,125.96)" id="img-04d4be59-10">
          <path fill="none" d="M-60.05,0 L 60.05 0" class="primitive"/>
        </g>
        <g transform="translate(84.95,89.6)" id="img-04d4be59-11">
          <path fill="none" d="M-60.05,0 L 60.05 0" class="primitive"/>
        </g>
        <g transform="translate(84.95,53.24)" id="img-04d4be59-12">
          <path fill="none" d="M-60.05,0 L 60.05 0" class="primitive"/>
        </g>
        <g transform="translate(84.95,16.88)" id="img-04d4be59-13">
          <path fill="none" d="M-60.05,0 L 60.05 0" class="primitive"/>
        </g>
      </g>
      <g class="guide xgridlines yfixed" stroke-dasharray="0.5,0.5" stroke-width="0.2" stroke="#D0D0E0" id="img-04d4be59-14">
        <g transform="translate(26.9,71.42)" id="img-04d4be59-15">
          <path fill="none" d="M0,-56.54 L 0 56.54" class="primitive"/>
        </g>
        <g transform="translate(55.93,71.42)" id="img-04d4be59-16">
          <path fill="none" d="M0,-56.54 L 0 56.54" class="primitive"/>
        </g>
        <g transform="translate(84.95,71.42)" id="img-04d4be59-17">
          <path fill="none" d="M0,-56.54 L 0 56.54" class="primitive"/>
        </g>
        <g transform="translate(113.98,71.42)" id="img-04d4be59-18">
          <path fill="none" d="M0,-56.54 L 0 56.54" class="primitive"/>
        </g>
        <g transform="translate(143,71.42)" id="img-04d4be59-19">
          <path fill="none" d="M0,-56.54 L 0 56.54" class="primitive"/>
        </g>
      </g>
      <g class="plotpanel" id="img-04d4be59-20">
        <metadata>
          <boundingbox value="24.903333333333336mm 14.879999999999995mm 120.09666666666666mm 113.08166666666668mm"/>
          <unitbox value="-2.0689080938298545 0.15275023300585192 4.137816187659709 -0.15550046601170378"/>
        </metadata>
        <g stroke-width="0.79" fill="#000000" fill-opacity="0.000" class="geometry" id="img-04d4be59-21">
          <g class="color_LCHab{Float32}(70.0f0,60.0f0,240.0f0)" stroke-dasharray="none" stroke="#00BFFF" id="img-04d4be59-22">
            <g transform="translate(84.95,65.1)" id="img-04d4be59-23">
              <path fill="none" d="M-58.05,44.51 L -57.47 43.85 -56.89 43.17 -56.31 42.48 -55.73 41.76 -55.15 41.03 -54.57 40.27 -53.98 39.5 -53.4 38.7 -52.82 37.89 -52.24 37.05 -51.66 36.2 -51.08 35.32 -50.5 34.43 -49.92 33.51 -49.34 32.58 -48.76 31.63 -48.18 30.65 -47.6 29.66 -47.02 28.65 -46.44 27.62 -45.86 26.57 -45.28 25.5 -44.7 24.42 -44.12 23.32 -43.54 22.2 -42.96 21.06 -42.38 19.91 -41.79 18.75 -41.21 17.57 -40.63 16.37 -40.05 15.16 -39.47 13.94 -38.89 12.71 -38.31 11.46 -37.73 10.21 -37.15 8.95 -36.57 7.67 -35.99 6.39 -35.41 5.11 -34.83 3.81 -34.25 2.52 -33.67 1.22 -33.09 -0.09 -32.51 -1.39 -31.93 -2.7 -31.35 -4 -30.77 -5.31 -30.19 -6.61 -29.6 -7.9 -29.02 -9.19 -28.44 -10.47 -27.86 -11.75 -27.28 -13.01 -26.7 -14.27 -26.12 -15.51 -25.54 -16.74 -24.96 -17.95 -24.38 -19.15 -23.8 -20.33 -23.22 -21.49 -22.64 -22.64 -22.06 -23.76 -21.48 -24.86 -20.9 -25.93 -20.32 -26.99 -19.74 -28.01 -19.16 -29.01 -18.58 -29.98 -17.99 -30.92 -17.41 -31.83 -16.83 -32.71 -16.25 -33.56 -15.67 -34.37 -15.09 -35.15 -14.51 -35.89 -13.93 -36.59 -13.35 -37.26 -12.77 -37.89 -12.19 -38.49 -11.61 -39.04 -11.03 -39.55 -10.45 -40.03 -9.87 -40.46 -9.29 -40.85 -8.71 -41.2 -8.13 -41.5 -7.55 -41.76 -6.97 -41.99 -6.39 -42.16 -5.8 -42.3 -5.22 -42.39 -4.64 -42.44 -4.06 -42.44 -3.48 -42.4 -2.9 -42.32 -2.32 -42.2 -1.74 -42.03 -1.16 -41.82 -0.58 -41.57 0 -41.28 0.58 -40.95 1.16 -40.58 1.74 -40.16 2.32 -39.71 2.9 -39.22 3.48 -38.69 4.06 -38.13 4.64 -37.53 5.22 -36.89 5.8 -36.22 6.39 -35.52 6.97 -34.78 7.55 -34.01 8.13 -33.21 8.71 -32.38 9.29 -31.52 9.87 -30.63 10.45 -29.72 11.03 -28.78 11.61 -27.82 12.19 -26.83 12.77 -25.82 13.35 -24.79 13.93 -23.74 14.51 -22.67 15.09 -21.58 15.67 -20.48 16.25 -19.36 16.83 -18.23 17.41 -17.08 17.99 -15.92 18.58 -14.75 19.16 -13.57 19.74 -12.38 20.32 -11.19 20.9 -9.98 21.48 -8.78 22.06 -7.56 22.64 -6.35 23.22 -5.13 23.8 -3.91 24.38 -2.68 24.96 -1.46 25.54 -0.24 26.12 0.98 26.7 2.19 27.28 3.4 27.86 4.61 28.44 5.81 29.02 7.01 29.6 8.19 30.19 9.37 30.77 10.55 31.35 11.71 31.93 12.86 32.51 14.01 33.09 15.14 33.67 16.26 34.25 17.37 34.83 18.47 35.41 19.55 35.99 20.63 36.57 21.68 37.15 22.73 37.73 23.76 38.31 24.77 38.89 25.77 39.47 26.76 40.05 27.73 40.63 28.68 41.21 29.62 41.79 30.54 42.38 31.44 42.96 32.33 43.54 33.2 44.12 34.05 44.7 34.89 45.28 35.71 45.86 36.51 46.44 37.3 47.02 38.07 47.6 38.82 48.18 39.56 48.76 40.28 49.34 40.98 49.92 41.66 50.5 42.33 51.08 42.98 51.66 43.62 52.24 44.24 52.82 44.84 53.4 45.43 53.98 46 54.57 46.55 55.15 47.09 55.73 47.61 56.31 48.12 56.89 48.62 57.47 49.1 58.05 49.56" class="primitive"/>
            </g>
          </g>
        </g>
      </g>
    </g>
  </g>
  <g class="guide ylabels" font-size="4.94" font-family="'PT Sans Caption','Helvetica Neue','Helvetica',sans-serif" fill="#6C606B" id="img-04d4be59-24">
    <g transform="translate(23.9,125.96)" id="img-04d4be59-25">
      <g class="primitive">
        <text text-anchor="end" dy="0.35em">0.00</text>
      </g>
    </g>
    <g transform="translate(23.9,89.6)" id="img-04d4be59-26">
      <g class="primitive">
        <text text-anchor="end" dy="0.35em">0.05</text>
      </g>
    </g>
    <g transform="translate(23.9,53.24)" id="img-04d4be59-27">
      <g class="primitive">
        <text text-anchor="end" dy="0.35em">0.10</text>
      </g>
    </g>
    <g transform="translate(23.9,16.88)" id="img-04d4be59-28">
      <g class="primitive">
        <text text-anchor="end" dy="0.35em">0.15</text>
      </g>
    </g>
  </g>
  <g font-size="8.47" font-family="'PT Sans','Helvetica Neue','Helvetica',sans-serif" fill="#564A55" stroke="#000000" stroke-opacity="0.000" id="img-04d4be59-29">
    <g transform="translate(10.94,71.42)" id="img-04d4be59-30">
      <g class="primitive">
        <text text-anchor="end" dy="0.35em">y</text>
      </g>
    </g>
  </g>
  <g font-size="8.47" font-family="'PT Sans','Helvetica Neue','Helvetica',sans-serif" fill="#564A55" stroke="#000000" stroke-opacity="0.000" id="img-04d4be59-31">
    <g transform="translate(84.95,5)" id="img-04d4be59-32">
      <g class="primitive">
        <text text-anchor="middle" dy="0.6em">Y = 0.5</text>
      </g>
    </g>
  </g>
</g>
<defs>
  <clipPath id="img-04d4be59-5">
    <path d="M24.9,14.88 L 145 14.88 145 127.96 24.9 127.96" />
  </clipPath>
</defs>
</svg>
