<?xml version="1.0" encoding="UTF-8"?>
<svg xmlns="http://www.w3.org/2000/svg"
     xmlns:xlink="http://www.w3.org/1999/xlink"
     xmlns:gadfly="http://www.gadflyjl.org/ns"
     version="1.2"
     width="150mm" height="150mm" viewBox="0 0 150 150"
     stroke="none"
     fill="#000000"
     stroke-width="0.3"
     font-size="3.88"
>
<defs>
  <marker id="arrow" markerWidth="15" markerHeight="7" refX="5" refY="3.5" orient="auto" markerUnits="strokeWidth">
    <path d="M0,0 L15,3.5 L0,7 z" stroke="context-stroke" fill="context-stroke"/>
  </marker>
</defs>
<g stroke="#000000" stroke-opacity="0.000" fill="#FFFFFF" id="img-696e7fdd-1">
  <g transform="translate(75,75)">
    <path d="M-75,-75 L 75 -75 75 75 -75 75 z" class="primitive"/>
  </g>
</g>
<g class="plotroot xscalable yscalable" id="img-696e7fdd-2">
  <g font-size="8.47" font-family="'PT Sans','Helvetica Neue','Helvetica',sans-serif" fill="#564A55" stroke="#000000" stroke-opacity="0.000" id="img-696e7fdd-3">
    <g transform="translate(84.95,137.64)">
      <g class="primitive">
        <text text-anchor="end" dy="0.35em" transform="rotate(-90,0, 0)">x</text>
      </g>
    </g>
  </g>
  <g class="guide xlabels" font-size="4.94" font-family="'PT Sans Caption','Helvetica Neue','Helvetica',sans-serif" fill="#6C606B" id="img-696e7fdd-4">
    <g transform="translate(26.9,128.96)">
      <g class="primitive">
        <text text-anchor="middle" dy="0.6em">-2</text>
      </g>
    </g>
    <g transform="translate(55.93,128.96)">
      <g class="primitive">
        <text text-anchor="middle" dy="0.6em">-1</text>
      </g>
    </g>
    <g transform="translate(84.95,128.96)">
      <g class="primitive">
        <text text-anchor="middle" dy="0.6em">0</text>
      </g>
    </g>
    <g transform="translate(113.98,128.96)">
      <g class="primitive">
        <text text-anchor="middle" dy="0.6em">1</text>
      </g>
    </g>
    <g transform="translate(143,128.96)">
      <g class="primitive">
        <text text-anchor="middle" dy="0.6em">2</text>
      </g>
    </g>
  </g>
  <g clip-path="url(#img-696e7fdd-5)">
    <g id="img-696e7fdd-6">
      <g pointer-events="visible" fill="#000000" fill-opacity="0.000" stroke="#000000" class="guide background" id="img-696e7fdd-7">
        <g transform="translate(84.95,71.42)" id="img-696e7fdd-8">
          <path d="M-60.05,-56.54 L 60.05 -56.54 60.05 56.54 -60.05 56.54 z" class="primitive"/>
        </g>
      </g>
      <g class="guide ygridlines xfixed" stroke-dasharray="0.5,0.5" stroke-width="0.2" stroke="#D0D0E0" id="img-696e7fdd-9">
        <g transform="translate(84.95,125.96)" id="img-696e7fdd-10">
          <path fill="none" d="M-60.05,0 L 60.05 0" class="primitive"/>
        </g>
        <g transform="translate(84.95,98.69)" id="img-696e7fdd-11">
          <path fill="none" d="M-60.05,0 L 60.05 0" class="primitive"/>
        </g>
        <g transform="translate(84.95,71.42)" id="img-696e7fdd-12">
          <path fill="none" d="M-60.05,0 L 60.05 0" class="primitive"/>
        </g>
        <g transform="translate(84.95,44.15)" id="img-696e7fdd-13">
          <path fill="none" d="M-60.05,0 L 60.05 0" class="primitive"/>
        </g>
        <g transform="translate(84.95,16.88)" id="img-696e7fdd-14">
          <path fill="none" d="M-60.05,0 L 60.05 0" class="primitive"/>
        </g>
      </g>
      <g class="guide xgridlines yfixed" stroke-dasharray="0.5,0.5" stroke-width="0.2" stroke="#D0D0E0" id="img-696e7fdd-15">
        <g transform="translate(26.9,71.42)" id="img-696e7fdd-16">
          <path fill="none" d="M0,-56.54 L 0 56.54" class="primitive"/>
        </g>
        <g transform="translate(55.93,71.42)" id="img-696e7fdd-17">
          <path fill="none" d="M0,-56.54 L 0 56.54" class="primitive"/>
        </g>
        <g transform="translate(84.95,71.42)" id="img-696e7fdd-18">
          <path fill="none" d="M0,-56.54 L 0 56.54" class="primitive"/>
        </g>
        <g transform="translate(113.98,71.42)" id="img-696e7fdd-19">
          <path fill="none" d="M0,-56.54 L 0 56.54" class="primitive"/>
        </g>
        <g transform="translate(143,71.42)" id="img-696e7fdd-20">
          <path fill="none" d="M0,-56.54 L 0 56.54" class="primitive"/>
        </g>
      </g>
      <g class="plotpanel" id="img-696e7fdd-21">
        <metadata>
          <boundingbox value="24.903333333333336mm 14.879999999999995mm 120.09666666666666mm 113.08166666666666mm"/>
          <unitbox value="-2.0689080938298545 0.20366697734113587 4.137816187659709 -0.20733395468227167"/>
        </metadata>
        <g stroke-width="0.79" fill="#000000" fill-opacity="0.000" class="geometry" id="img-696e7fdd-22">
          <g class="color_LCHab{Float32}(70.0f0,60.0f0,240.0f0)" stroke-dasharray="none" stroke="#00BFFF" id="img-696e7fdd-23">
            <g transform="translate(84.95,74.24)" id="img-696e7fdd-24">
              <path fill="none" d="M-58.05,39.97 L -57.47 39.5 -56.89 39.01 -56.31 38.5 -55.73 37.98 -55.15 37.44 -54.57 36.89 -53.98 36.33 -53.4 35.75 -52.82 35.15 -52.24 34.54 -51.66 33.92 -51.08 33.28 -50.5 32.62 -49.92 31.95 -49.34 31.26 -48.76 30.55 -48.18 29.84 -47.6 29.1 -47.02 28.35 -46.44 27.59 -45.86 26.81 -45.28 26.01 -44.7 25.2 -44.12 24.38 -43.54 23.54 -42.96 22.69 -42.38 21.82 -41.79 20.94 -41.21 20.05 -40.63 19.14 -40.05 18.22 -39.47 17.29 -38.89 16.35 -38.31 15.4 -37.73 14.43 -37.15 13.46 -36.57 12.47 -35.99 11.48 -35.41 10.48 -34.83 9.47 -34.25 8.45 -33.67 7.43 -33.09 6.4 -32.51 5.36 -31.93 4.32 -31.35 3.27 -30.77 2.23 -30.19 1.18 -29.6 0.12 -29.02 -0.93 -28.44 -1.98 -27.86 -3.03 -27.28 -4.08 -26.7 -5.13 -26.12 -6.18 -25.54 -7.22 -24.96 -8.25 -24.38 -9.28 -23.8 -10.3 -23.22 -11.31 -22.64 -12.32 -22.06 -13.31 -21.48 -14.29 -20.9 -15.26 -20.32 -16.22 -19.74 -17.17 -19.16 -18.09 -18.58 -19.01 -17.99 -19.9 -17.41 -20.78 -16.83 -21.64 -16.25 -22.49 -15.67 -23.31 -15.09 -24.11 -14.51 -24.88 -13.93 -25.64 -13.35 -26.37 -12.77 -27.07 -12.19 -27.75 -11.61 -28.41 -11.03 -29.04 -10.45 -29.64 -9.87 -30.21 -9.29 -30.75 -8.71 -31.26 -8.13 -31.75 -7.55 -32.2 -6.97 -32.62 -6.39 -33.01 -5.8 -33.36 -5.22 -33.69 -4.64 -33.98 -4.06 -34.24 -3.48 -34.46 -2.9 -34.65 -2.32 -34.81 -1.74 -34.93 -1.16 -35.01 -0.58 -35.07 0 -35.08 0.58 -35.07 1.16 -35.01 1.74 -34.93 2.32 -34.81 2.9 -34.65 3.48 -34.46 4.06 -34.24 4.64 -33.98 5.22 -33.69 5.8 -33.36 6.39 -33.01 6.97 -32.62 7.55 -32.2 8.13 -31.75 8.71 -31.26 9.29 -30.75 9.87 -30.21 10.45 -29.64 11.03 -29.04 11.61 -28.41 12.19 -27.75 12.77 -27.07 13.35 -26.37 13.93 -25.64 14.51 -24.88 15.09 -24.11 15.67 -23.31 16.25 -22.49 16.83 -21.64 17.41 -20.78 17.99 -19.9 18.58 -19.01 19.16 -18.09 19.74 -17.17 20.32 -16.22 20.9 -15.26 21.48 -14.29 22.06 -13.31 22.64 -12.32 23.22 -11.31 23.8 -10.3 24.38 -9.28 24.96 -8.25 25.54 -7.22 26.12 -6.18 26.7 -5.13 27.28 -4.08 27.86 -3.03 28.44 -1.98 29.02 -0.93 29.6 0.12 30.19 1.18 30.77 2.23 31.35 3.27 31.93 4.32 32.51 5.36 33.09 6.4 33.67 7.43 34.25 8.45 34.83 9.47 35.41 10.48 35.99 11.48 36.57 12.47 37.15 13.46 37.73 14.43 38.31 15.4 38.89 16.35 39.47 17.29 40.05 18.22 40.63 19.14 41.21 20.05 41.79 20.94 42.38 21.82 42.96 22.69 43.54 23.54 44.12 24.38 44.7 25.2 45.28 26.01 45.86 26.81 46.44 27.59 47.02 28.35 47.6 29.1 48.18 29.84 48.76 30.55 49.34 31.26 49.92 31.95 50.5 32.62 51.08 33.28 51.66 33.92 52.24 34.54 52.82 35.15 53.4 35.75 53.98 36.33 54.57 36.89 55.15 37.44 55.73 37.98 56.31 38.5 56.89 39.01 57.47 39.5 58.05 39.97" class="primitive"/>
            </g>
          </g>
        </g>
      </g>
    </g>
  </g>
  <g class="guide ylabels" font-size="4.94" font-family="'PT Sans Caption','Helvetica Neue','Helvetica',sans-serif" fill="#6C606B" id="img-696e7fdd-25">
    <g transform="translate(23.9,125.96)" id="img-696e7fdd-26">
      <g class="primitive">
        <text text-anchor="end" dy="0.35em">0.00</text>
      </g>
    </g>
    <g transform="translate(23.9,98.69)" id="img-696e7fdd-27">
      <g class="primitive">
        <text text-anchor="end" dy="0.35em">0.05</text>
      </g>
    </g>
    <g transform="translate(23.9,71.42)" id="img-696e7fdd-28">
      <g class="primitive">
        <text text-anchor="end" dy="0.35em">0.10</text>
      </g>
    </g>
    <g transform="translate(23.9,44.15)" id="img-696e7fdd-29">
      <g class="primitive">
        <text text-anchor="end" dy="0.35em">0.15</text>
      </g>
    </g>
    <g transform="translate(23.9,16.88)" id="img-696e7fdd-30">
      <g class="primitive">
        <text text-anchor="end" dy="0.35em">0.20</text>
      </g>
    </g>
  </g>
  <g font-size="8.47" font-family="'PT Sans','Helvetica Neue','Helvetica',sans-serif" fill="#564A55" stroke="#000000" stroke-opacity="0.000" id="img-696e7fdd-31">
    <g transform="translate(10.94,71.42)" id="img-696e7fdd-32">
      <g class="primitive">
        <text text-anchor="end" dy="0.35em">y</text>
      </g>
    </g>
  </g>
  <g font-size="8.47" font-family="'PT Sans','Helvetica Neue','Helvetica',sans-serif" fill="#564A55" stroke="#000000" stroke-opacity="0.000" id="img-696e7fdd-33">
    <g transform="translate(84.95,5)" id="img-696e7fdd-34">
      <g class="primitive">
        <text text-anchor="middle" dy="0.6em">Y = 0</text>
      </g>
    </g>
  </g>
</g>
<defs>
  <clipPath id="img-696e7fdd-5">
    <path d="M24.9,14.88 L 145 14.88 145 127.96 24.9 127.96" />
  </clipPath>
</defs>
</svg>
